<mxfile host="app.diagrams.net" modified="2024-04-21T12:51:41.760Z" agent="Mozilla/5.0 (Windows NT 10.0; Win64; x64) AppleWebKit/537.36 (KHTML, like Gecko) Chrome/123.0.0.0 Safari/537.36" etag="RFqMrH0smE9U6fEdJF36" version="24.2.5" type="github">
  <diagram name="第 1 页" id="cQ3V-AvvIIfFbPsAb5q9">
    <mxGraphModel dx="875" dy="435" grid="1" gridSize="10" guides="1" tooltips="1" connect="1" arrows="1" fold="1" page="1" pageScale="1" pageWidth="827" pageHeight="1169" math="0" shadow="0">
      <root>
        <mxCell id="0" />
        <mxCell id="1" parent="0" />
        <mxCell id="kNm-ANeQV7d39zhUVkQm-1" value="" style="shape=image;verticalLabelPosition=bottom;labelBackgroundColor=default;verticalAlign=top;aspect=fixed;imageAspect=0;image=data:image/png,iVBORw0KGgoAAAANSUhEUgAAAV4AAAEvCAMAAAA6i1lMAAAAAXNSR0IArs4c6QAAAARnQU1BAACxjwv8YQUAAAJeUExURZ6enqampqOjo6qqqqCgoJubm42NjZOTk5qamp+fn6KioqioqK+vr6WlpaGhobOzs7CwsLKysp2dnZmZmZaWlo+Pj66urpeXl46OjomJiYODg5GRkYSEhIWFhYqKipKSkoCAgH19fZCQkLGxsaysrKSkpE9PTy8vL1FRUW1tbWRkZFhYWGBgYD4+PicnJ0pKSnBwcLa2try8vLm5uXNzc1NTU29vb39/f2NjY19fX2hoaHd3d6mpqbi4uIeHh6urq0hISDExMVBQUHFxcaenp5WVlZycnJSUlIyMjF1dXXJycjY2NlpaWoaGhq2trbu7u5iYmLS0tLq6urW1tXl5ebe3t2FhYUJCQk5OTmlpaYuLi4GBgXZ2dnR0dCoqKjAwML6+vktLSx8fHyUlJV5eXmpqamxsbL+/v4iIiENDQ3p6esfHx3t7e1dXV2VlZWtrazU1NSYmJoKCgnh4eEVFRR4eHklJSW5ubnx8fL29vT09PWZmZk1NTXV1dWdnZ2JiYltbW35+fi4uLlxcXFlZWSEhITc3N1JSUjk5OVZWVkZGRsDAwFRUVExMTEdHR8HBwVVVVT8/P8nJyTQ0NCsrK8jIyDg4OC0tLTMzMzs7O8LCwkFBQSwsLDw8PMTExDIyMszMzEBAQCkpKTo6OsXFxRwcHCgoKM7OzsPDw9LS0kRERCQkJMrKyiAgICMjI9PT0xAQEBoaGiIiIh0dHRgYGBQUFMbGxhkZGRUVFRISEtfX1w0NDRsbGxEREQ8PDxcXFxYWFsvLyxMTE9zc3M3NzQUFBQMDAwsLC9TU1AAAAIbpz/4AAADKdFJOU////////////////////////////////////////////////////////////////////////////////////////////////////////////////////////////////////////////////////////////////////////////////////////////////////////////////////////////////////////////////////////////////////////////wDP3C3ZAAAACXBIWXMAABcRAAAXEQHKJvM/AACP+klEQVR4Xl2dy3HjPLRuu8ohOBwF4TSUg5LQ0MMea+i5R6fqxHXXWh+o/s+FSTz2GxsbIEhR8p/PD9Lnx+f985P8g8zmx8fXDqB3AKLvdw5OAJQ3wBBIf3/+PB+P5/P18xIK/OsLSbfn7fZ4PkYo/8f99Q2FmuCavmmrfENmxV34/f74vn3e0Pn6fqpUM8giiq+GvJ07bGdICRD6q5EwDckX08Uh5gDp8+n82goe3AxefEIl8FcwCIXdUUPtQPTY4/NPjSk/YlbU8rjd1KNJnPUN6tmSq5F5F3J/vF6P/0jIxHoi++3+uCvr8fN9G0qayCdrLWnNA6bi8bgj5n5//fw8Hg+BjnLWT0R01FR1JJHVS0f0oI2TiOedcx5q+Q7hssqLTBI9J639p0WGgkN6SE4OyIqDiJ25V3aAjEXSY/VPuhvRg/uwNL777aEhhaACOPLV/XH7F5doVyRnjv/8RMj9+fmXzt6ez0e2fv1NscTxqCulBppFB6QPAp5Z8PpmbtxUQBBbHhMUH6t9l0OxCqgyMsslvRz5xSfpNJVB7MAMlzvsixSiggtQtXUAeS3S+Mdsgu52c3GgPg1QxUh90pnlBK/ADv6IQrW4Ojxe9w9mvuSUdFk7TEEs6TAE6L8jRPznDe47zkmDmrSNYkrNda8VzSMEPj5dcp531x4mByPlWDOUWZR2uTR79bjXFoAJVBVbcaldw2YtaiwJNYPOX2H+eUx05BFZlssYJccZbSr2nJD7Q/PLBUAaSOz/6J3BLlQuAKD06Ofn94MWIYA76TElTrsRj/K6EFlYV1TsWWe1Ht9fuPaKJ47mi3gzFaccmDIo77evz+fz9ngQvqzkLFNbGXAvhI6dUeCcUmKMnAWxrX+xZJmfrzoYlUWfzuqu0tY6r6OWSSpt9wCmY0wRvEnUgw+aYLez9orIoR8EZxoEw83l6b3cSP96tFCsf4Dp4ScXncZNQGfJipKsTgQD+v2Nk6yrIJaOlbGGMSCOUv3PzGBNeT66KjkV9LB2GJqFAW0KLVRQgjU42VYu0dp5KIAtV73Y0xjA1uhqiRLR2mICOJxV5Uh8qAQVBHT7T62aiumMmoIF9eebC0vipGdWwqKzDBwhBtSLS3rcccnoKcuRrR4uo07v54Oj9QJhRpnHQhgtqUjbmlfv7u5BHkToupC6ee2kBCTt9HF+EFR5MstTt1B8EQDAEdUoJZcEWp1YajPm8JO2KJSkdXrKLCrXaOUN99qeKintIrCC4f78fVn1TyK4NzlT4lVOL7ucyK4gEblug4sJIiRwejsQRKKYk6JV41hXy3WyjdeFhYR/RQkzfuuApys5pczFuirlD1CeKItka9EqBymT/RvASrYPaU6poGWCzFLVGiXVXOthyyLTdmlzDZFcVnmXoLq/mPde4MCbG70TkAQv6cz1L65swA+UsVj0yKIcB0ef3l1ppucYE4dMHSkduO5SKCW4Lm7ZEsSVjquGTHNqJNWSxDljkr2/UzObJwexsF5tkGBWNkQ7aNaXGtkurACV5TQ79ZHrl2PM4jAw7CskyASdyergsNRbpdNF42h0SIBAOXg3wSEmr7G14YFvJYClWcEEjj7QPDSVgZQBQjrrEyRQ7i1Ir5f7QDguhvE8mxYKlNWUjNgjrGbP6KtNF6egMUUWqYDj3moCFhXnoD04UAvbQqhRxWXP79tfLggfZ+2t+ws5WnnShAVuMPJBvM7Ez69AuV65XtuTL/dxUoMjjBb6iDYKhClFZa5b4QS3oB5SDbF6KINGs+Xs8/kQx6xb4IA0ZQi7kvX2CBCd5NEce670DyYL10nXsaWQnXUnamEelbYD21J75cDVb8/2kKRuihuaSMcxqZva7le5u9t65zr39dddh73TKqhuv9/y/Z90bFEYdfcZbEK4qDEw+WXaxEZr5y7IQLUU0spFnbs3OFl/vz6//nKte1MUydhhdNemOlZI2udEKkVQDyCWQqzZF9MI+3MQc5ywcr20pmi7EW8zakQdNlpCqeDenBtGCLWsUE4JqIgb64I+hccdXY42yc36W03hoA6XRRAv5l6VHr/fTy///5WdZaZsMNXTcBReOJLFyV2fDNn45W7F6wD8+k8YwHhrGbWyxWEtKWRKzgOGjhSHstyKf/GRJs+G8RduTRkKNepabxYikoS2tnwQvaNGmDMuSsUGse7Vy5sIx1ggGyx6Aqm9SxhpfTAzQaZSdUXAsvlgR/b9TfROxsFaHhLBZlq1oApsBTDO4LqYiRrJFZdBZuPCcLWdkBpWPetEYfUpEvqbEIsmqTOzvA4NL8Fi/DRMudQU6Xpodb2Vzr9rmWM9V4ZUJuaaaj9wrzDPJze5pQiC/eWqvzVW/iVXBMcuhfq9aJBNgWYoe0stsnDL96/PDLTZhTsdZPYphvXXrguNGTJVJBquFzeMbOqM2PvTmz9uFpHbAznVSO45gyqUC/8IjlIlKnOVk9Hkr/DZ7JUknHlWjKdpdpJmRXcyBJSEMu7rUWtvpF6rLB0QhLjf8iJL2DQQDY0h4aZoc1LN9quruCnGGZVMC0+W+u/XdbvtHi2UWfmMjkPXxLUjvHQPbvcYaUKWzZ1Plfgzx8EQYcMOAawa3ENjPkIVfEk6sdpIHrXhTuuiWHWU+sK8ZGhYHHRsC7lj/tSPxqWDxMYs/ovR+n+SIOIcsDXZDQVdamfytavF9SgWMVN8CbJO2EPx/fDxBeRniZRIYgltX+ubLbspUSNd0lx3110enU0yK87u6FhBtS0YTXvXkCdMaipVtcliKR3CwteuFSqqU73IGrAqQ5ErXojxpxwmjlMrhXOvJFXGbalxhYlxqoOzXP4xZK2X6xtXrN2QQVpkLJQTWgtlTxZs5XhDLFxEcg4Vp9YpO8RgenyyYPri4uYWz20IuukGC2/1edWNQyYy4K+tYD4gISlWg5Ncu4I0he9csgs+0Fp2P1OXn/7ZtilZVXuIngcB+fzWBDdm4cLrLgUc1vvj59UTB6a1JGfi2iOSdQbKpQKIPUT4uFG/hd76X41Dhr4yAoB6RKtUZSX91Fczpy5M/8F2MyBYGR6sVQwYun0M4eV7y83dZ/lGAyer1+3ONHk8vNWYVPMStaSGSJOGpbRO2eMw5Vc54Mg03ziyuWuSezEb4gyilx8t5N4E1GWSjqkiJwvm8w63TwkyG7pE1WHXOPr6cDE8cAqq4zYbsWBZnBBJi/RiONURYlDtSTnAUjPeRztoxAdd4vRvnt9C99IOo0eMIw/MXntHrhglJU+pVqpGdXw1ZWValKiRbWMQ0z+q4zSGg3yUIYkt1rDvF+3W3mib2PEfIh2IfFXoTVvRJt2gANoHYU14eWNL2imbH9Tsg4lYwj8FlKDFyWFafSBHzso12Ou+TnLm4V904kN97WbcudP1zoX9VAl3yanopSKMiotMZk6lNXMBoxh2bXvgvOjQEPufm/2L7f9wFkDUvv4SRFyPVGb0RnvkQBaLRuvRnq9zj0enWiNIWI0myT6ePzisaZ6QBnIka526GT57fP98v1ilb17U/1FGNxpHIvgZEL1Tzz5ZpZTIvM+zLrusDawIUrZDq2Yw6NSz9BDXhjKsukZLjuA1JLJSMTPMKA7F8DUuERujAw5ur0+bILcDgIgiDTkbs6BTvd5IbyR4yWAtIUxaIwzpYyPyvm7fXHFsTJGSPP7VhuB0XG+uSI/Xz/ed/bQLBWiwoo4A9MVUPAqkGgCvSdRqJE7v8oc5BUHLrCxryObsqwuSXYKOzHVvfx2FiyBVWU2Alqk1D0oXcPgQphGj2qWCsG29+kscMFm/b9wUy37Ij2Gpk8xMiw1hqqXgCqVk8nR/mo8uexQVxSyo0mR3Nt9Z0ve8Q3CrB1WzEXbEiTobBVVVYVyRsV+X7cLmmOPr3K6zyfW+S69HCZBBoWAueNldXyYS5aEGwB5qZvZulliu8zQ0+Bh4ecvSu34j8/H9zboLXgYuS39aja7R0QrowGK+CzfWPfycoc9wZNElctimpHj94PtxXYXTRYkr5OkihHx84uO1GjcGxhBe0shRn3aVuZeijDDg5k2/so1oudKdunwbNn2ZaBXlfkEAQCa54ZRARUlUhY0Ugqsh/PhiTZzhGlhz2T9KM2smuvT9ze3p6+6n4lD2WZvT0xKCciA6My6ovIS4H9KeJAsm0Vv2s/fXbvsTILe3DkvJqiJU+hs3ty2jiCXUQGmmdBIp4ZoCF3f5SVDjNG8TvXTgXD/mfJ2xR7Zrl72CzpnibWLONpilOdceDkCFi+jmh8Nohxnvo3LjtAYlLrMlYKZUALOxNpPreX8w/sQA64N989LWZz3h7U4yATTqmITGvx9eOFz/lDebWMT9kMaOJF+nHCHKmI9OsuUEdUf4/bvt3ihMK6ZZHltWawvWYxJzsjVDux+95dkXla0WRqoXPW3Tz8C4ubBYP0RxjUMpYk6Iq84sJebpWd3sIEuf1yMToXJHUZOWQ0ODNQuVXz4Q1xC0nM/awlqR0UPY5Djm3Bm7HigZeNK9UehjNkQRhvIeCRXFySJJPxLn3qgysK8XNyuC3/qsnboMXZc5Qp36aTGpcK9PdIhZ9LLMeaVzWeDcAbF91NvdSBoB5UiXEHgXu2PC+ljlUjnEDoEk985+SDIro10h0VRGhx57i+YbFxgk/1kUuXc9M2desXFC1QquBbdRB+J8YndGH4kY7oh181lGQ1pYnwFdOHsQQNCx9vta08F5Oh3HIXEiBghNavY6dYFhwN39HXMVq10WgJX0sXWbmIozWTCzWRBs4NsnNxN9s6t09KxQe/5I0/RaZZIQTD9v/x7EoaSaY9Yr3OOFlplF/U+umhOlPkzqEAEf9u01r5FprFL5w1CuTuLZuMEIhbLMEpqhNiPlCuTixLJ0c6+ho6ZWEot1LOkA4j8krYdB6fNf9ip97vH18XyKz7GL3ej1J8S0U1Gh1a7Ou2Cr3KWCyuRmhxUZV7czaybTxwNeLCW6SCtJiaOOkwZ3ShFzSGVx0JqL9FTjnxBtdsp5JROSYaqVqrt7ajiY7uKO0ShmAhKBV4m2F/fYjioWEj/eX3G8FV3UnAoe6EBrJJ3Dy6MADbp7vUWKkpr5pkoozrZBZCRSgoLTWPGO452MGbUfbdNbOiHi4jBMo2Mlc0bp6Osdb/pp6WVcQkR9frExs2HSAMkr48wwndWiLUttUlrTEAaJxIWSRFz8M1kxLrlM6W+uqj/fN6+K22lLq/ozILZT/5+iZOmjfaC4iJI4lKPA1Cacat2MAWfFwtYcDS/8gHW07WwEWr/rzNGiU1oSjyXnFFXNxSlOYQgKYybHSnuPlSy14ogkP2s7I0QmpyRxBMGG3OvEO+69oAAMQXtk4Ap2iaJQ65udHKQfBX2zYrJOfzOoIqeRpF9sB9GDNJfgt1PWKJaOAYVqV4RKVmHC0fWB1qL0uDNe6vbBTAdTJrR+zBCpqKpfm13RhQCLo044hQJljK6u0SD5FJoqPniwN+OiZBz0vHfkIpVvZj6QnaCeBv5WYiMzq107DrOLU6676YJaaNGm2mCxsfOKxoLpTXFj64xSh6QqUd3Vrr5aRBxf+qdaqntCijJzyPKmjnW9dbj/LQzs2rM3vwOwtJDjEr4j4cd6+3qwGxDrU1WUH+wpXWnYhOsmsD1onKyvy70Nm/TlibX+eCK9/hfiWAXQC8TN6wr+cs2VRQ7DyqHUmEw5ApXTvaK3rkpjhIdOF7R01yUGLYPEuCv3RoF8ndKVTByf3qtHw4DqrflPUR4LVOVJkVGADa3jYAVOF9l0mgSeVf7tRQ0sV5aTB0SixdPgeu1FBfsfz4+/X8SuzhR596aYqrJkkGfrD2i88gMlsFwrtd4BhYPrp4662BQYEmFeNWhNDHw+ZuBGiwXYceUupbgbwdjy/LqtgBaAHflTQUeLvWbv4b53N2oWdtvT1slGmS2yLn5tRQgRWItd7pNuSbLH5Wo1rbYrFtVAExATN6K7o/PTbM6fx9+zWLo4WBndYVoPHBUuRbZp+HGOyxvmeTsBiaTElvEg0xFhLWPEH5iDcPNu1kH2MXM9KjaTnQFbxrtLSEi88avz0EyeOHrRHhZTMwrmBpolsAcRC2F2gz7rM6Cdc9q6OElMJbJS2El+bFbdf8Cnrq3DOqGU1cD60icasU/FbK5bET3f7uUw7FU513D6wqh+5OLzZCePX31j2udd70XK/qg3VqU49OAcvoEldSe/+wAvcXcudM2C9SvFEWKcr6hisk4QpAhvhCSbRIeXwq0KXclpyLewZySM9iL6cKNtpbgApxmkOkf9nTRE5atPaXVrhYB6L8D+PNYx5DKY7HK/n9D5CF+XSDQ29r1JUBAdUMtWB+YRXnFYWFM0lq1qr3Kc96fk5u763A/Xe0vl4JpsEBzK0GSM1Oy9G8ZgwfZmIS0TCN0Cbh1QRd5PXFoBYiNdcz7MrQa4rj1udhPIKHnRLbjIpWDUMJcFUjGl9OnuDK9+JTVeSocUMDp7OCx/uJjrUBcioIur9V8q3NtV48hJVn5yD2CY0Ns9+3bfbIcYoYIBWthASxX3/Cs83ZmjnjcKiKtft6bbxoDUolAybDNMhDNJTpIqTdbcw8WFs1xGrqC0mBOhNNPLmAmXz3mUg+0+gkB7zwISKDP0ZhghcAGe0eBti7vakTQIguoVxe1BVVE2YlOPu0QoWRyUoe0yR2JduZxt576+3NJL1IXCELFCu07CsKtBio8wkhgNW4NYsivwPX+6EqTWsvyis583oxt8i0Yk8FtBsYtCD2X0q3b42MH0BthTVdOwRUik6uHWxZkswVgAyhP5sWHKrM4Ns+0ygszeEsGnFUTP1qFDPImCr0ubQLdpq0enUbpWhlxl3MtvP0JT5aYUh2VJHiClISYHMlHY5DNvGLvsPH9+2NelaPQV6ksO7dtPn7aH0gqSmSGZj+ekFj0ula1VdcgYDZHXBAhxlBfFejxWRSBSvKlAy+xllfXZph3RNI92i8nzPAFAu1p8au56r5b7n3dHE30aThWp45W7Jwql3Nlwf/hNySR6XgNRa8uqjTmnZdugc11gWczITl8yHvER5PI9n+Ak+ygofeQgzEkuBT5HerCHx1MQ6NVc21mQIk9aCtxOrm9BRg8+H5HpSHo3D02hxsloHzRL6DFQHoHadmgD0EfkJPBoJftjXBeWTvC62vgUq2+XIYpOqy6lJW862vDJszNmSD73qD5BsmzZfnw//C4Bu3D2IAALicNo/q/ipRABXeEC09T0tnj6rYmfy7gJpNre7MBcL2zlPVlJ1/4xn6ullrdgJY1ZSITU7Hq7m6na8l11sxrCRMDucOyKtFm+4fU9B90feaIn/0ignkDXbrcPdlFGMLj7+fHpbYKWTmv0tmrYqhfUfPzNxYXblL8ffawi8miwb2dloW2GbG/v2dv6AUHgJUdJu1sfiELLbTq1Q/ceXO4RZlhb23IgWbKMfn2QwkRbZhR/SbMlOQDjRLJDWdIq6EYsqRMidqgpZ2qftTVUFHFJsfxI8YQXox3tBgWI17W/n35B2IHDJTodlsYx4xJi8qMKP7J5fP8+vXN01mtDUuQ4NSOoNLB3QUz9UHFQePkHg7lOda2yE/nNGMaFQDlpZOf8CLnbFevKVcDDR+/w2SUPJSZVoGM3G4JQt2wnQm2DBAstatozHUKFv9gD7xMhbooF6PdweqTMNjWwOMIHReJaRbA5AmwkgO2364q72FwgxYjJ4FWaEQb4+fP7YFDkEBkJ54SpEdkzvRaIu5s0+0SXXDGKXZvy6K8by418poJ3s8v9RNEqptBWdmpcZJRfj+ccU3rXt8m6THMkIFOqlUOqPA+7VX8cxyQzFr2vCAL7il7XC7usf6ZOC1wAdG/BtSubAuufBK7GqTr0gShQEy1NURT2EICXIUlGJomDnoGetOcCEdDb4Q9v6OE2cV00Vu0sqQ2iS4PNd8SCbPPgIcbVu/YUZS65GpDOHy2rB7gss0RExZQRa0TT0Lj9SQV9oRI5Y+tMnrdJznffMYPDTlMxPkOtKa11sCeGVfom8Ou+o0gxsGNRyDDmsjnkbsDTE4KORJU8x6GR1fHrFxUpXLa5s5UKBz6/iySduYBaTtuK4TrPCvIvVRS+M5MAWFMQ3vvrXANMV0l6zItC80w0ukshToTNfZLP1roRpOAJLBGXUxeHI3Kdqd61j+TITGUOJlwxyAQlNM9fP65Lo4BYlFFWqxREb7bQCV9uQeVtoGTj24j4F8WNm1x2LkB9yxTneefRjmFMEOsjanrNVaSGc0GXqcBB6GhMBMKlP2C5emVVO+WURquUnSghAC743H80x3HYhqxfjmYfZeosiaI3wKsdL9tKgpeay72fXhm+v9OStLwrm3Qqwhmw17bUJe56taaVSKlXHl2VA9K4GpxKNnaeepibPxwElDjWW3BCKyVWyLRSx2WXDS0TclE4QLGUhLrFzgDjkySfrY5jr9KULExkZJQxCLGCYCRrlLMBPUbvITSFMQjoFB7PZ/JyfrEOctHXHIm5fLweMdf8NyqTljVH6ThYO/dTL9ewOTcmujNW14w19JyclG2DCWGDgAFW5O5uOOICYmfIxqL/hIh3YMELVaLlcDMNjBSkoRNQspF8CqbvCuECq69NUn4i0XtmAuK85LRzGCBZY2w/LUyxaQZ++/5xbkqM4cT+s5fXL7MoTovycKeYZl3yY/tPdIpLn8naKgcgyCGIYmRfRenj12f7xpksSTDVxszjzVrVzzogpIhCiBQgkdGf3Ro7ZCegFaF0DXKOlWwwCiFdMZM6IoUOUOlY5uguVf3Yi3XzaHxieXgHqSD5YzZuksYN5vF6ffsTC1TjMSuCTxjbjj33uvxxKWV2//gCoeCRREHukAjOBf/AnbAjtAcOWh4ovUc5eVCaeqkQkqt+Cq3IoYgw6d4S08LdXLwTJFWdCMuZDVC0KEmh3InNuccfniIEd43Tgj9y2zgkI9UWE97TcJIv/xU5GQ1h3/fBvVRHoIhiTiFBHP+g6rqzbQDD3tRFtKUHjNTROibyZ7gQMSE5fea3aNACcC0XVtaKg2pWWwt7+kDDzZwt+F1BNIPmXMykglTi5ABIqDXra1Dzla+MW5u8HiRDjzNuggG0NAX39xxMUySUFGRyKjcSS0qUnOr5yKw6KZ9zptthqUmbpH99qcI+TMCFNQvvX+DhOTUmJE0sszs+qzAJUVYViaEVBLUnHPXHLp2zwgOLDZABs9kN8hg9FJSQ1CyX1pXmcm+Y1EDZCEiUzBquwMxU3by1N77wFzP5FVr1224krrwGPjwrodly+TgSSimDibrG9ZIx9z6SjKKUsAHIM0KKcA1VFEwg3FvroGLRrbnQlsfVj0wLHbnQkYtY9Nps0Et2a5KP2MRPtB/SLDrVEKTJOOIpPOErl8u7i2E/OLA1RfefAbUFnUSEYXMv3nm6AzLGqF8auIZhxU6ljEozEKSZvgn8d58EjU5JF3Xk9i9rhsqaKCXRnMECHj9PfTCb5C4F0jlLZQP43zAgpnJt3QUWF0mhmpPQ2vOMHUTO/dvfMwB6xuCIptWK7nC6rVdk+D516HH6aJsA8WGWFuQStJXJUhjJHgvCzntlqby616hSiTLanm4kCi8T8S8NHRqZ8SCub+/EePltMlchYawzUfp4HGvXICDrtyc5hrXY62A6ZJeomYHtBCzlwUqaVJWtohhSbl0DBt/pP3XlkCTXijk1SIsPbeUo//1JsYO5Qe6Oc3pb6/yRFYWE5M6CKmC871PdbDpWlXN6BBbjbCYxdEaVqlklTBFw1gVrpbwGwOtGlSjw37HoEvtmUSQstcVomGCQ8TCyiXB1ikxs7t5cjmd9Oxqrm0a+Kgb9vPQBwGiODXJ4KttigkDZePTVFVGL13dOYdgpjzGs6i0bbUbeJqj5IanThei08XecSmIofATp82wXvK+vW09mZJ0NRnTmCDnQ0xDdfWzQwYdoTNRXq4PlsaA8NKGct8zR2jh6fh3Cfgq9v3RubDbDmimqasm+vn683/4n/F2Aq44J50/b8JvPe4XbS2MLQL6NGGhsxobvOMJwfHr8q9TTtKqYNVPF4fpCt3y/zIlo8gEtq4NYPS9DKc5lRQhFcj4ZC9wjHhg5MtLGiaEuDGd94aZyFp7RkgcCDLBD9kkPrxJQa+ivXLNfnceG2o2h7W1jHz/+YkeEBz4t1RUZU6mGQUD0Tor6OlszxnrJ+PKF8Nt+9VFfyjCxZUfH4eDYWiitFvtGjYLti59ldn8gVptHmwhbMSgr14WxNprqdTqAZKwi8yaHyBhBL8jIbIUTiehHGwAbhpMTY/QARjthpARUEUTmS0vaLCwwVbMRaqbhkqTD8/5WpnGGKmbidI7G/nf1ef5cH8sYtQqVx2zWURx5M9LugT0DoWg9a6PKjb5tCJdBw98kmWhsdU9m1lxESyGkKzij8ox2zehlHljf50mfocaKIRvBxIGxoUQlxL/hHyet+4vb1C5GIufLyDJiNCHkUIFZN8W5vp5DRC4f8E5ydxjvMHunrtrJ3YiSFXhjLKiqAfZFeAatXkxJV2EJlpIk7ZiXtM9FSMMlPnQejXtLC0d4soDyab8AmkWxu8p501zsLpba9zZZBkmnOO9Zv8AAHj+9QZDoZI/AjEbjWEAJa0wg+GOharOAZ3Eo2ZHEHzb5KyLQJowtyqDhLLZFN2ersqQ8f378kQuvMsYx5rM8TPDk2B3JPZQzzhVYNCNqbSUohEzCQeo5yCXDftZqxsTOSxHsdK5ESzP0vARRlGZ7F+VgmnaQlMCfv9++Vk8znKWUHWtlWIqKJdbeKdWxGmD3j2VJMNOjJegqdJFQ+RTeWTpU/2q+1uX7bbvGTTQRg4CNU1NgE7ia2AWUXqNwl6ik8JKMC8Ip6dt1bg60J2Q7BJEXR1YqLNB6ei2AilJtHcmkqE5aeyXo++9Tq2icRzZHRxyZHbm6pDHDvRdBGCvK0pwQJf3UANp7nZS6t3ipRrlazkkeK9ZP7yuGcPDica8kwAaWjTiNg9t3ugHchRqQ0MBHsJzvIPb+XpJwMpnUVkDGp9OFiZBi40tLnjdmRRQRrVGuObefR9NC0M5DSKmMgU+ASOc34oEdzC5bIwGQzLfJykLDg13A0CJIzYI3fqTsdAbyg7Lv759fNr4g+84fiWXMxQJ10WTb+nIJqsqyAtibkaSmcL2IYnSELvzCcu8qIY3SeGSrcZJ8GW12IP+5ZNW8/oY8+tgkVqN+mU5e5rwDatOhs8Soy70jgT4qCVtiILSRTA76+vr++RG4JKpT7kUCUyjpwvz4B/ofvyjYYO51MPqEb/0I3bvqMZ8Ezh7H7PTYHV6YCSU/BNYtHtu32jc9RuVkyojnZO+YinfdHyoO4ad6wa6CFOrLG5dBOevtzBHb31D09MDcOUScIAHVamkBbVeFVTHOb5sqYsTr+/GQR/ACVPH+0D/R2220k9NHvSrw6v3305/O2J7kfbQSZzYtBtivQKt62shM8leXliF0CVhngWz+XaRLa6jUXBJptBHJF+lorhonRzKvtm74fLnjkU4ZwavAV+DO+c4TtUnFziEa01sg1Y5O+zwgBZA1ZTavUN4hoPSybOJ+68nK21Xn62O/zuFe3h8HAHC/c4vBaLkkKVZJatBDVLgLJ/afm3YKV5ktnZn8NI6n48pmxqociv8P7IwEZgqkanZ02NhpMa5iPB8g6uHG15qo8nd682wCGh509k8fwJomwSwBy9b1Q2GtRWP4Y4bCJlAKUlejzy9i1x+ccrkCfOe+mKXbEAZid5TkR0zwOSBHYCpTgecLXkCIH49HeoRfpsw5Y79ID+Xw6XLtmJ2jz6xMq1oNgB2sNhmDTgzH7TuDbC1Sq1s2akaqZIPeuDn94w8WNaCR58gmTaxz7Kit/o1QxBt8TD4tXeVbMVZev9+324tlwMQy8MBlPc7564/fPJjVBPPth8LXSpGtGBNWgH/682iyErAHrv2XvrTZlep4THyui7QMNNTME08UF4RnaTE1zSTGA4PIqDti1tMBQljxp/WvpmEwtY28ZEe4V2O66xf/u2uDJj9Wp0Yv7MhxdoIjMjW8JmUKnokj4bw9+/qEC63/aIL7h6joituGPf8ipm+vn5e/yeBLTn6FkWuYAplRPl7z2xE37g/aKbfrSEmG2IdddNMv4DImdBkDdFoedLc+SSp8Jo3Dridi7Q4zFJyuhpu8D6ZeaIGHstyi1ZzAwQE0Hc7Prz8bo4UvDI7JqQ5uSe6hmAhUJ5aM7jeGNeUi7F5+u8vvElHxDs2PLtmUuUBwZYGeHYSd7bUSo/Sz1xf6qOjGPuPmR/aQENxu3vr0SNvVYqrmX4Yanx7Xmjc4vJLPUA4C1z5GNMR/OhIkvhhChxxB/id9seIVdiN6D2CZccv15sleiSXNm3lBfVoheTSWO82uqrLMPEqFOMV1EbNqZswTKUQdVyWTV6ZHl1ud/Onbo6R7X+L660r88eHWy0HpaQu9d5+hiEJdhdo9C0qVemojbZ8EZUTQd9XIl1z+gv0CRyfZRb1KpVWy+X6ti8Z4bmsmpg4bmRfblBGzr9406HNI33OI2Hwui5zCiv5y3LGO2WZNrKKqZOqhVJs6nf4usOzf7t9skSFxluBv3EtEhcW9vkzdJun+9deNBKL9ySGEpBvXXGOnDhWoOaUuIeZySyAw8KwoxfJGctb5qAT+q5Z3njErqQC9Mok5NEz2O9e2Q3Zp8QhblW59hzVCzr63hPQUHC0SnyVuMhJidAbWAgl1gVY4eHYCT3pJevoKOiG5txqISaa8rvfZpt8B8Gtnfsj011G79Snh1+3399HnS1o6r9o4FpSIRPNZICydM69E1RUTcYCMLqnij9P2odbeQ1IabEkGOEDXzCOcmur1Sgk0PbYficDtErHEpWTyfeHLn0eG3SSNZi0qEJXHlHHUCO2xIsjIySCVmja+U1OD7t2HS6gXOrT6pLQ7CNX3Su7r5wcId8YEMRCl3v3m5/GLsTu1ZIGmQzMM9ColzZMo604bgH3Ryhkebq4e6VqH+KTwI0iFHQkpLCiJja9ON53hcRCk0+SuJq/fPixozl4/j5xL/5vGvD6ayr1Dwo5cKibs6Qunfpp7/cLON5e4XWH8VQLvivE+i4a/3s8Yez/n72f4TIIg7+vGvWmuMISorh6m+NIm/r+6LQZ+14Q74hfW8sBPOp0LLNMwUuJWn6AdltDvomz3Fe+kn8jErNtc0blcO8F9aEWI7nF6Mbgac2sbEs6zNgzHcY3cWBRqMFvzbMcbJ9IJTu+AQd+8ZqFRanxOHTIi1V9Tm3tf/gSCHxJpV8KTckw32QwWihPLCjEpVpJf4/wvtA7qGqWGKxkkOQ5C0hAhT7Z92WHQlvx33VcIGiEoAcnfFeUKJpxD9IIxIg6NqXJhX+3AJ0YjBbj1mNtoCqgqm1/idN6LaSfIkREPvOjPSN7uOrX4ZftmFBO73ndoR7YcWek8i1eK7Kf6vS7b3wjntbo7opFUUZhyDkLzEvqmTYlHAGHwHnWIxMfjSUj/ve7iJFWRLRFcv+2bX2qm77D1Ueai0wn11kMqGxsAScKYWXi6ZtL3zRYpXQokBuIj7u4KGkgxbR+IUxx7uy1kORnuVikGYD/nDv87VVd2cFWY+5ytew0Vi9CZ3SpF8x/3rBqX6QCtOYY0/uHOhB3qQJUij96tF2wee01+o6f/DpgJytXDl7zZVj5/f37c4YvSvZFqbKJn0MlcUUg9SIFaWuM2YwjB3BuM06XVAj8hfb/d6VqsCRQg8ABbhu8ff+WLbRiXPQagGTCTJdWCmWymYPOj+VRUkjUzUSra/x2bKs4Z5lKdGRHnOWofcCl5SZWBJt5AIi1ppZDx8eM7t7EevpR9ci/BjtR3Oe5fD58F6gCSO4cjSCZn4qnbKNVZFSb0bMmgyG3V8p6lMr8+X7++EcDlSmqIJBQDxZe/t8Ag+0DBQWi91qgPPyFLHamlRMXTm1eOqpRZZzroOiUbxzkmjCQYZ7lbN2vrioRdmhNsITpUtVYCFR5IYi5SIb0dL2DG0cmEY40/waR7QRA0Xt+MlP5vBVp1aWJKcXpMcCgZ/+Eb1Iuw8R7Cw7f0uG62NqSNnLHQfdQYWz82BqkRBjQSiGAndy5CKO72mmnVQz1pAOOgKu/YA5091Bpahzr8gO/mkiYkZxSTqShrslcIqMWhNivx/De9rRDVI6rm4Vc/jXQ2mx8f5+V/ai4MSl+TINQ+GyI0flNHE/p4QKJoVzvXAAYKHKJ1g/RQRKY57Xr3insODqrIHmbRiBw+R8ZuXZ5CGmIVIYWYnUE4VHl+xQDiKW1BW8rFra9TmPWjgLYjJisSCVmYhzpSs2apJkBGl1W/r955C8XFg5jB1a/vet/7vSlRyOFTkH+ALwVhRzIg1cARVD14VW5uJ8NsGOB66fmDX5n+0mDh2XnY3OjZ0r1zIIeu0FBQhrQFK7x+JdFhTBBHj6gF04+XI1pvss5coaYIbVNWVBnsYGgG06arJ+LMW3PCdt24+/CPXWUv0XMfRcXLSuTXA0nPsWTDESac/CxX+XvE5P/1coVuwFPN+NYGx99RbHeU8wCDHqEZdSR60cVFGCg4pB6b5JXLChYkS2d7SVf7pUnM1K+63IK/MukOraac1gCJWYxohqXaD2BH6Ax+AxluQIKdrl2fvfu33y0RHKe7PXPYcs8fiWpCVafMt9Bgubd1QPDOmGxr/NbbOuzjSLt9xliFmmVLfC4IwdrlVZC5RRX3sfehkniy2RmpmzcKHRLeoYs/p5iQTcBqy8wb7wTk8sEUZmtMb2CANWI5aqwPb0Og7hKypw0kv/zMxp3rCbGSmHXXtfekS+gk/ndeaf6aNaIq2aBnOC10n9vK70xvCXrlgPgKgd4zO7NroYQdmOGzXn0Mo+4XIUG1qdGDPrIAss5JAWLFSIrcCyoLdaEHW2zYzKAaMYR8a4qqmtnB13YMqw3PaQS2GPrRjHdSvsKGiK8Cjdr2vdL/kzopForAc+arX8AV/vJFP/KqvTnSl9xmsowPf/HWFSDnwGU0G9DYoJDkaGJfbHFoGgNFZUDumSWeDOFEHZwJpY7laCQH3fiMIsaQE2FKoXgFJcwMtJkI/tzpzZsJsKx5KifL0jYN/n6V+0xvnHyq6gzV61t7E5ToRChEQKeCQnmWViG/sX/+fVE9ttxv337wa20Erx+217pdBrrrt1ecQvkJ0VaIWx+T+h8yYvUA6xyfkLTli6Gv/tmipBXyorfHtJrEQiW8HBjTqMPGtYlnuljMqSs6QNSdBY9ml/BAt5w+anDP24fb388+0GKUMcMfOTxqLjGIuOQNYxIkkQitSDNbEgQNQ0KtH7fjr65vAB+/v/u+lZYyol7MrHraWV0hJxdctwPToBJXG2sHonAq677rO6wj0yAkVTuUpAwqI+XTq0Xe1Ij3kFVOnoGQRVF6HpqOIgTtxoxy6CBbTftq1H7+Dz29+a/PWOb84Baevd8r57YHjr7dUFN+PAqQJraVOiDn15373mNdUQOEQ/f6gZ5TpZ90KhC0xwFA/BqmbCzY9uF9gjhWptGOpMJDtbD3qrBRxyVVeCWSpDtUS4leAook7R9Qykk+A1U+QnJt2wyiYsHl14Dp/7zAobJihdnow1R3nNxSeHVwD7Fg6v8Un2C1b2qCZXsDDoUPy6EWG/+cwC4gM8JnJbxZ5mqKWr+3qZGNttMqH7gqUXXyiPKgCbrhTHKSLG32Z9I0IePwsCkXOqQ6LJwlydbqFNlg00TQaDdC1qQRdWitqsGaLnn878vdpguspoGNE2JvP/eGl7f7Xlz6pIYL9rONmaJOSQWjPK/uBbQD1Bpq7Avln4IjGbH/CwDo1h2tYsT7iE1YT3xyLYgyh0LxsfTz5EdsImutEZFAq9pGi4jJvdcZIYj4TYyQHYFhTJEMfyi8TsQWzeoFwAFLDcprFPdjvz7ee/kYagZRSGt0ttsR1NOGVsibX9l5XF+8sjjhY9/9vBbePJkxcVudndkFiaJkF6Cx9Rn9PlWWwCfk+0rJF5s2bol3S6cKC/4SzNh93b65M05X2jLKqv3QSReECHLj0XKSamC72NCgEpGz70gDWMyPexCBnIORl6j8G1+Nk0zAaPyhU9eBY3JpY2HvRohDHA0MdkjocF/ZzjO6xZFwpM7eRlSZOUzT5oFowXQhM8/fg7UY/ynaLrkCc6tghH99/WWb8cFaLKe2x56rjVOOtrRKUY9UXRyrBXAwEeyzTKxrNRgdelx0kNPQmuzxGcLDjQrrx6lDAUojKuu/ADPdYyUqf0CjvvuVbVb9VhXFkCw4YVZM8AnxH31gxu2xu7ZrmhRlAVQ81dXHhcCBh5ZUXMqo3fwhLVrdGUjt0w0rTqebXy7aP0IRRRJz9cQX9hSV9COy0DiiqdhJIP3WsujBxNv5AOpOtMmta9h1nxrkFY7NsV6CoVJmmkE2ZoCXl0D0wmgSnmDJszQ5pYqgvmVEpPmdYg+UHXoIZqOkVU84lWQ/LFfNqVHTuwx/tZA1J4Dhe91B+L/a2Lz4DHIz+ZrGufbzo39psmPi/1Wsc25nQwRzqUZCPUy0lBQe75MMo1wU6EBN8qrrTT0MfApOytywwTIOdJ3T8aunGTlb/CrKmMQJWXmSHymyG77+oVgWSnHcfI54OOtLozi68rS8ARq8/SBXzeanj2/8tB0C+ukm7vHt2745VqP9npydYANyfQrQgxKFqlbBKVC9Wz6F27l1/cJQkKKdfSZzkVGtGPqwBbiI9ehotoZK1O5P8z6fr/NSwpHYUoHL3oxvU0ZhTvdIuXdLbyQVdKRAmRpqCbA9GlJLSRgaUUKjRUx/PyB228c6iNvkufeIl8b398/Py61LZhgQ3iEbi0//D5bij46mb8LfPtXoGV+q3hVsPJxJHT+ZjwczbBynPK6VKNxq4Rpfj64oTrJosd7YyJ+JyBs25lJNbVNAW7wmY2lna+/hymuyWuUAf9lCfiEmIYoGwS5RR5zz/f7tbTBon5xTYXTJX79Pdyy+3eD/VnO3YW/82bj8TtUdXPbBkfwkU+TeaT9YwQo4VHJVVhuZSrv3SJrAQ1uuxYeli+DBpj8wmQuYcw5RzvLX2SBFK3H0V/VAvYpX08FG2ye3FVK5SEmVgtgkdhKLqJtqAuwyKxavQGpUpZT9rnux2zdrgUPpXa4/TMS6qhRu4byUsih71HH+/NE3hbsZd5YZCe8+qu2SPkOsA2fUmsKSFTX+X4xF3JKlHZJSDshyKBDydeBqqbbZGvA4FHaf4EHjNP5i9r3CDmc1Y2xMBHpU9eF/HqbmiA1m9J4ezfgaCVNEcGegeiftgHU+7S7LCMI9bqy42Wb7ok8Z89e3Hd0q1PX3vHAOUEkuuXH67l69UTH6s087IpsCTzM32huJktAhmqNWB2unhTdSBshr05vDfMepijiUAn265NwU3VXtP++3jMlJoUcDSKcu5uDPPgQyuVKyOEg9BdJKOodtnbNdOvBI8/clXscxe0CwaWBh6LrmdGLHi4/bPAB9+tjGN0d89zTB3TxG4DPNJE7nUWpBMree5j1aq3f8aZBG0B7HIQ5ds9VU2IUdwcZCYKPoX9KCjSgnnIQOaZOlnY0c1TnyBIJ1f080TJ0henwgCVIWjiZhchacQif0pEDSb+EI5FVAWhIOy3TXU+8MFaIHzTCG69f9+9d7Xwevz64Vts2FwikTSRrA6uytqfBim7ojwZAKDNvluH7pqfcV752bHTtVE2MLinGrn4/6dKY+E9rjHO7K490YtcFzeJ9DGiGgkMUUYEZvYzaSWZx0QTXHajOEJtHSmBYsO4UatbgspJBLgY83VCSu99KHQrvRO5OJWt9ST24KOJSG8+ELVC+nttwOtiYFRuCJshwHg06zyL5dJtaJI26pSu03aETptuHJogCXvQqpctUDehul7CCCNB07HIs6x1JIjPX6dBhtHPmyYNbJcqXyGuDkhxrh6Rvbfa5rGuE24ZjT0uE6kF+4/rktawHRWUUGdf2hiEw9HgNhe+AwgrJRKsGk6KyYQtmPZpAkDlS0Kz1ioZTLlqEeW4We0eJIgGCqsugFJWjXoTHag0LfhieXHvtfk56xkD1f19or6NIRwFA4pBuZrLBdAMcV6WA+PGvF0IyrsAs+Wn9xd0FM04KGjbG7jvBq2BSFcMYiCSsrFRxmeiTZpXQqD43AkQaWtoG1Wp5HLneONDcmlNahgmxcrlo+E3fNwkvSJPB4ThbNFnrkbrr4iVbyYCt42C77hmS047HaunXYRZpNnhfkk7RDpNVC5PFz/3Ir4D/D2peoSEpgoSWE3fZ60/H5hZtZlRR7SVkYqIyo/vj0396QCmJx9YKGsmJaCElTmR115xKZ3vHXl/GPWpK1hg9e3W5ghv/L2Vfgfr65SmjqkFuHNgYyFPSHl1o02b0aGakHkumyd0MekiD1rA4Nyhky1Gits5F5+EP13ogw3t4mhHFKIYe9F+22FNm3YDDAiZCzZVfq7UXeK7S2ltR4WOYxAFjTKmsXAWtpepUyw+JPZvVAay4L6pCeXerBGAJIdY/e6/X+jw1f6tbzcV1+k8HiYr4SZiLT+aPN5wcH0n1dFzL4vzzChhldK6aCR8bhc0cWBuPSR7w+u/UdPlWxIGOrr1L7JzVAKSmdQrq5Hoby2bz7F0WDmi2rU5H0apiJq4jUoyIXNK9VJQyyiak6qhD/umrdS4Y9Y4KN6vl8/fyw1dnbFcrlONPhiMiENYycdEsMyIr/t0KapTwseGhBpzRPDLtbLv7dTKoIjN7TQxsyX3X43AfGLgqfrxeXCj3dhcynalqwO9bNcvbtAJofALtgT2tusmapfDq/63mdcKBksyaj+cWrKc6ks3MDJpvVVUan+g0UAO8pu6xwV/Qtzp7+sESwAfANDEQmRzHHydmcNA0ApXjvCkaI6D9uPJIv0KSj5Dh5HrAeSCr7JE9AO+GYoy4CXPZ6sNLme2Y76y3u1wFgoPORj8PIjFNMKfce8em3z1OVksgELnpTMrQjalnXo16hPiskDRMgWZUDspqNoXRy6wJtGu4l71xEXj9+9fGD7iTxuFj6d/HOJ9xm0hP0+efcXQdcUVhaPyuuUOM6JhoVJuLFyxbrldTDEi903qsT5P5vJX3ilFOicWwD+RicZs2WscAv1CTdmWLrRjlkhWRIe6l5xz8K8cUY64qxzFMTRGOS14LO4fOvXqmmQOSsGhndav45P7xkK9l+qFI8rJKf2KdWhaR4iCfnuq2Qr0JFq64vQ2iE56rewDtLuQS4YOnkpII1UPcfq0S76zVqrWGri6cDYuQmGi7Q5UeFvag6I63qjCUhanoTayZ2hD98eqAKNUCUVi2UuKwGp3TkYOXrhsm2ErTZyFC6Fvc3Qi028v5jFRo2KKSGzuTS2HeKHe7UHtkVkcY2lRUc+FagH036BMMF1WVPuiZrH0lpWe9hGtgkB+DGKuatmi9AbNuu0NR03b+c1kkymPSMcqMWQ98yShCQgFeHa5USbDeBnfZawyxVO1rXp1GS4RMMxcP6ZpJb4CRVcClve9BXERoRFHJJuIPay/+xKDeFqY8GIvkveSGAuHvpk4cf/2fiB9OSq4H/nzEVBgN+VFdPejSACaDFxK5vl7gLvmbIUVn2LgufzOS8CMXOFPJDN8NUKr0BCLxC0sBWJZXtHMIEJGLVBNfagykS0dsS7NgZN2OBaExANcnDfgWdjEnlGvTz+PKujVYrygmgukazeQ3Pu09JJPlcEd/6HR+uq9rz8nF4oZt0L3bevtNRemr86WGZue6BZnDESJnuUBkFReQgAlaW4nc/Jxt/cdg4Zl2jEe2kTUiEVI9pgiJaHg6kUhRkZ/q6kv1ZLDDlIlaWCsfTGEwfuXEueHQ5ggAsemUzbYmANsAMijAWAeI9WVy5pHJrY/wzdL7cCsJnYxrgk/WEjW8Vw5XEysHK8PrpsqbEDJZoZeTTEqNoaul2I2K3JRZM7d3dUQdbGWJk5lMUVUoaRVoU9NF2D079xzvPn+99v6YdhDhDLtYiIUYXBIpkAd8iWI8CKN8w/OPamUq5JIl7jcNzpTdCBxO4/moRN1leAxxiU/Q3bncgMxhKk5GD/36y9t5e378P53G9DFsns2N9lX7V5ImAhCsmQaPEjpVcQpC89SBl8qaQseYc4GBTJew6ilkTBWst89DwNfZ+Xl9oQ/J1XUiKRmWqB9nRVEeSJF5rHLfb/Q8rQLrrp6dRFkf0zrlj2KDsGDqYOQQpGF/L9hkTXu5J2Z7mosUtzSVqNfrr0xKW7TbbykT7lo3QnOZ+ZCXD8Lh3/A2n5BepbK0YLu1pS5TKUym2Pdm6OPI4ye1ZlWBGSO97tqkR4vO/PMbomvKpxNIqXAB5M1Ygx2RHSI6lPXNwjVSN5McgKc5oUI3G6pnjsHJL8+Ke8cn9b7ut9i/eAZ/J5mXXuaSsXZ9gYlXwO64+mwghboolsgg4vaeRPudRX+fKUuHjEzc26KugPkcXJeElHnIt4dBLsmdUNORm2WJYm4uSKdJuu2aAliI5KsujpxPbUvTeCLKkLYvZTyvwlCqyhWRNtuarmOEQEdNJbm5xVD8Bhx4sglruG5cDC1cKx6yLknzq8xdguCJ6YVORClycSnY0xVmyYuq2N+p5H8DESZGeQdYaj4YsBaAxcUOXlQdfzdCl6jWd5VY9XLkUpCiD177FcCSE6cgSAL43fV0WoKm/MPndCsQCkS5DBUzz5Euf0aIuHfiUldv9F66EDF+K92ke/WTG9JqB6sxXZcIZ6n5OJMh5ePOHztpEJJm04CRzbEoHodJcaLnMG9loQd97DNNQgRRPc4kmDGOtcFzCj6qTzO7ip33UonMFefOmhNEiwM726MceBLZmlLuIRHOlDzZmIotr0uQYWTb0EvTZpJTTYQonjGtIVD08dn28+/OrT/8NFlLYPFC8n4Yt6ZfNbgTGRjy3siJeWITq21nRH9VsMQQGFeJ01ipaxVz9VQKgE81m5sfBok9GgsaKbE51+O/+oujN5TG4IaD0eAYy25ZVepjabeu1VAZPIwz+OzxahN5WX1tHNU3FRCtklmi8+1zgVk3utFCHMOWwBKm3r1L5yz45czJmZ3ZQG0uBYCr6EXqpE0T5H9VhQjXEqvayVugj0PUfGkWP6eKypeuiygVSKICmYaibVK1d/t+pvXQRbwm5k2E3D/NJs/o6Q5EwZtJde6n2Fl2IBL0Z1GuvaCA5bRB5v2g9z31wRxEZRrju9qsX56PLtheuYjLaUchdfwIoN7fI/CbwLyUnM8kw71AfaFQTwuHdiq+iAEjU2C8xkMypKpBggrOrXgkCR9uGoRMxBZkjkLpSg7CW15xLFKdWmlZ1hHCQ/yP+CL4wSlU2K8A6rPSp8IDVDyQHZFL27xwgxYreB9k0kxAZz5/+DViCk02mhVGQzDdu8kdEHULTZJDL5MDUKF/FKlwo/vE7Rw2d5OdwYTpUQYIeVAnFddHMU5wXAq5veVe7TiHROnyWoDAr60xAP+kSQWBtN9ZXV2RS9qls46rD7LmTr9VY7GgI3zabCmVjFhluZbvavsG3dNzjkPrfuQmQ/OKfLJgMeTN03fyM7h+yhIOO3YOJWn3gYOR3f+jT7s/Q7SxHZmI8+y+Cot7wODXcQyoDuAa7B18hvhSQTvele1egc0rJLIQU4iwsHEWRr5EANxe9Yo5lVXQ7K5WsjdwSt3u51+XWrwe1TPj+GkJh8fMMboAYmQ/iua2ltKpR3JXWsxBu4xQyHdmxtYeWDy+gAWLvTqo7pHW4V1MFHrj5lQ5bKMXTWGFb97b8UrYOB/Q9uIdbEYZJF8qjhAnRr4rtTBBs8td8Ek1Sh8i9lpBukKigk3WBDjfhU3lRSwXdJ6O7HZGWdTFjqzBz/B847hpnxnc/SSeYs/3rJJE0CrhxHTp5ircKzlGhfSJnNAJAzRNvUW/Lo9F+jc6L9cbGxVp3TFq4JhQOk2y28yddf7xoNTgSAzs6gIo4ALMjUwDeKGBMQrprG9/ZMqEjx5olAVlXHxGli/w5kzZmhNh588cep9IHamy12qL73i4Qg+woKUtqmmRYMkZBdbtBNdkRQtqo/SeBvvUy+zlJUZ6KtNGvqW6OQVFpf3SItfmOP6crp3Xfh0Uj88/PsdxrTjTsWlXA6V99vopYc/uchhRJ1xMzcV+6UBkgROEzN7cDiVlK7Oftp19z0SI/FC7GXSgU9Hl7MYC4CT0swn0ICKMqL0HSvVNLAmnuDcXFD0ubE7QyV/lKAq+dfuy/FWEiI5RWQFCLQWGwCdH0mFnMoSYx9VlVVI4OAUXAlY6IxJBxOMOn35Yy5WIv5cWfgdl3KxS3fW/ySYybg6lEoQele9Pc55McPw8u2n5HmbHgfkIX+Usv8bGY5jpPnK1kWQtFZWmkkXG64Bm1SUJkWVoNcRVyu9sreiZJDypentFnsBJKR8gZZysk/GAXcsmA0NGrRP5zq6Ejwz/vCwuge4c9hRnF8+fp91HxyoONmUBlKRYLHTIvNblX6qDaG77FcrqJTZ+JPrmI9YCSWwRU9BCaDvevk6LM6xMWX/z8rQ9g9AtVSCIfhTRLkYgRYYZ96JVbsCxJCH8gLWhiqmq/RKRkQZ2HZ1YWhDRuIqP7/qjWgY4u2jQ6CKHihCOMTSX3Hurj98cNCIvDpXrqJSJ4dTJ1hB1Ja6zLFymFj3ZwZx9e3rni+ZgSE1m+FAtFWyEJybgaWx3nagI1dgYqXFrO6+CM9/CMDI91+QSxWXdsHTYRR6BcgNPeKm5/XdeIISEGkbROgNh0ERzESL9yLI9hDmgSryQKyAFON2Yoyje+8AvR5ldXUKdgSbyYSd2AaIWoyVEnhwsJcSGNH/gwQC4TjrRLhvvd7Ym3D1VvjIp3qdjF0qMSDfRwvsgAwaOI4BgwYPBlEpyoGZ6UVPt3GuKUPOJBslwXqk5raDRL8/FcLMTPDnGP0hxEGaPBTEsXw6NdbVQBZ8ABEfs9ive2gqZEeMSqKQlSyxXB0mIF/6rRye3Th/33jiee7a7U90TwinEiJ0dGK0rrrCRbg5WQ2Q4F0AYEnD5JXYyb5SGy8U058GrmdbOm9suc3NCCS/MfFdR6kRCGfiI0OgDFWDf+2gXBoQYttjbwujXQCNI8amC94uHL/7ahNCrHMCHkMjiqkxJ2cuZdJHjzQNOnk+3PMMi3hnW0tiXk4lOSAs2tDFxtQAgkUjTNtwkOhMTlO2bMABsTajCFq42oQ5B6oRxHN1qKWhKdBpTlYgiXwgOkO848DULCbLGqrIiL32ArUnZaOOT79fzebUVKFXBkjFXUwXQBDJlIMFjg13v7rg9XGu6G3SG2+XVWQTmTkmcABrERzuLIP0k3AXYQmh2GU5qgGR+JSi8JXqzb/4m4IKIspbV6tcQrfrP61j27U3w2Hc6bv3t7Hvdy/+XeD+hBVhbF/W1axmxDHORyVO0FMN0biX1KiPkse5vs4SBr2Wgh3uD//L5cDp4Mc51UrOsrIiCW+jJBoLXjKaqbuMoUJsfFk904QrD+q8mpL7ho3vYdvpgusWbTYS0lkxpryoIk1ExTISVKRbLoWffiYeBKaz8u7rfYqTDrVMJgCf8PeY090jkXN2tkEYnjprsVRqEw7Sa84LVlcH19fHNX9vr9eYlzhoFza0Myqqb15LBaO+KjtSiwp7gxUraWoBOBaHQfEteYSV56oog/z3moPHZplLF6xmcFpV51y2mYNfHnRBF9TPw3t7sr7fI1eI9DFFcvKLM2C7yGpOMcQu2GXfIDX2+K2ztpgCmKjkmQzRytV7u0IXZpcAPDTPDtfyddHORGR5JPpCFhwjj14iSVK5VTDshoQ+lDeq1U8fFaDGeMtCSIvQ0yzgkWcIAVYWywmOg7jVHunubDcGMtAOHLQ9593nqw6s7afef83GghJf9q77XlDJNElNA+geWE8OeRgeXtQ0z2n4bBYXXn+E1RuP4+/Tjm5opFIHifcYjRknckhGWuO8452XwBSQJdCoXMl9Y84izRLflETlhCQohOlNWBrxE5O40EziyfVukLVwHHEG9C5JNUE+R+VqxLHo+Pv/fvX5ZjSCaiQm0FyBGtboeqtmjpIj4/VWSt1iSsRhrKdfawkI69/rlLCuM/w9QPjH/TVs12RyPm0AB2sNqBzKDmlyD4Ww8AEhh6QE9QIEaNrjd2Kj3JE0q+jtakKj9ZxZUSv6rbAd2oLwPRtAt5na0D+x6vzEzs++3v19NfOiZmtjwpqA5bCpVsGu3uCGyYUfgTne8GxJJtxEvDYIaalxwnvaRptaTRLdGSAzFuW5wjGljWXK/EpeMWIKmmpaKu5T5x9UaldGm02vASdE7eZKJ7ZIo5DEdorRFZKU9YzqWKm/Ur3rRBNBuy56MCIOzj/ZVsH/MfwyF04Nd6v3fuvYACMyTSqaRLfpS5RiF0cDlNpQfHQthMVwwKBraBUGXPceEBcuURUCeO1y6dV8BsMMgoYjLZb3zrJYerJZfLfGnQ5t4olWu9q1sgfTSceZ9KlKZjWlOjRaYW0lWNZbe3Uonu0nrCgqXKMWbVa/CVo/IjMtOO5Ao5QpPDIByov/wv7/jjq8z4CwjM+LNFEaaEsF3VB6wyGR7HlDBzwTp1bAgdNBYKI1dnUr58kwdW7abT8SlJdBLVUyVEGPOG01IM5yrVGiWR7EQGUfCTG6I4FODVw06dbpaxn5BW4PsMQVG466n5VVB2nZEnffn7vTnTVkzSFiEpoBFGnIAY+TtDeQX1MIdIHlrrleXpoOj6WFLwyBNBvYXBlcEXFL2+eLkw3IrQS5E1c+MMVWKSpOhOrK8adMpV2RpA1cctljcuYay0oBEcKDYl0Tl4ybxrUaYJLQ71MUBy3etiMQCn7r5aCrl/9kmxEOqA0iVdFtmNkQbtBH6N2GaT1cxJ6jkF4xVqVu74QTIwxIvyRoic7FmCzIn78fA3S/oOFAmOPSRsmlyxqxVsAoEC0mrOPupLQgpMEmOlBL7dJNyxko7l2x9H8CKp7b09EKlEcmiqT7W71IVKWHabxlZH89qYu9JhamSQu3MAHm0ScgJKTQkoi+A/riAlTg5Zhqq76qallDlDweIUf6xQnIo6J8LRING8f3/7evb8a3t2STj6j7+f/rrfxadInOBDj54xmiS2WxwUmwDJN+HkZz8sIUhirKd6zDSp0u8z+uTg++d6n1OhyymM7S5qU7E0brBXkXtpLdDkV2M2cDgAAcdgflzWNDmqlCpxPRKHZ0Vm+0EfygGQal8BJWK2ih8NF3E/A6GQ2s3dBioKe+X/uz7bwjRB8fSFbNx7QmB5Ra7Dd1JZkhiMbbEF00EmyJv+n9XOuYf7XsI3U52jJc2AxBFWhMSDKbSUYrLW3pDiozgVDaLI4vNnljCNhMZ7jsmxOHRiyyl7rU78oWoqJd6Z2p/QXKhM2VD88HsJTeRmkYuGS6VEAFmcXT7sCOA9EWVFccuNOGWkvoqzxdddtVhVjQhibE+TsH7Up4jIIFOy6JKvzM1ncSczukjqvl7mmNAQGwkJ9ry3fpN5xFs2fwU651tTJo7Q8j1GwTKf43x5NHBcIU85mFVN4p705dGw0emzJPqJYKslmeskiTXz1Xc6/G44slxytf8sZ7v4KN/D9x33j1LUVDpKpc9x0SnbnoXNR44TkI/979yMfBPIdYRxtEJIoNQGLbJR7q5NdEq3KI/GTWBjM0o7Q3sb30vF9Ng8VBRZkmb3QMFEekRZ1aJzMAjx7q//r0QtPcBi0PzXLK3BufhKT+h6iREqnxlqmVIoFKW+RGLHk2XcjofaMZXRmFtx9ThrmaOEqhGSPh792+spGGvhoIl2NLDZSFK6ka53/Z9ikiLGPY8IW5E0etcFz8nmsmmP7X/BfZHKSHm6gr2+JanVNqI6eT6IBbi53ypl0vsfufuFkiSzgvRImkUBn57FA8Y7NPZftxtk/docycVYUuUrTvlqMiPIrEAo8BSkbviRziLReMimHtUrhQvcua/Ic7THL9klgaYxiMnqOfyxfO6fmP+HT9tsLEQDChLmEsg2m/5Kb2jGdBjBjzqAhkFSI5mbapHSODP5gnz4LRgsxb+9GqMNdsA34F/4u8VXq81chJOCI+1iwsnhwk+cEjKo+v9okIBU502WwuqVH0tMVnrVIUm0dsvxcgtLS8FpUqf1kVjRvcoXDLHONlD/jCH0EoJWjkhwYhjohdB+jB60QyBlY1Wi+Yax7e75nu0CX5i4OmJ4hjFouHAr8Iu4xMRNPP/1jZcw7/rpovFLkLGf8vnV5OgfKNtgKArHZtk8XO3h77Frdb6WhzPz8vUwvq8393FayktuOzfFQiZYnG1pBZ6IPVQR1LL0pniSGVp9OXeAh/jaDSkKGj87DY4t8BwRUvTYiEJy09TC1pdXokDLhJ0UkNwR07tMwieXqqe/JIlVmLHN78/vt9+DgpD7f79U9AKcYdD0ns6XS9AlVcshLQpo3VlFslMfwKQxy0n1QgPakrTmCqkr/iFAo7Oauiyrrj5JV81CSk9hV/pT8A+l1KhFBKmKQEr/PavNY64pfH9H7HBXM4BWSqcQgKdccs0j0JzSvvZHLzlnRl+64N6Y3P+7SyCT/NwUmQ5J8j/maFkGwTXJT7dw76wFSUZBBB3rHAR6gV3I9Su8R1BiV4uhTNjkBB9SspBgDcpF8dICWh4XB2fY5avUTwd/tJAAdwh5DoHCXBMPOpWYuudYMqu/39nbkqxpSyqNiItyL7k3mZFGfPocMqKWAa5rLyLWH99wg4Yejk2U5PmZgsTak1nU3UBXMRmyFqfr8bgpwCqvZ+4babs1MVYyya4CXA+SMTYkcUk/giWVIPfIBBlUSbCUGpDU/hpJ3IlOlO62L6MdUriw5Kj0VDW35I0CVzs7T93RzsgT42rS1cNtRO59/0J6Z6aPWXGwr8faWQh99PAN2Iv7Lld1fqthxtvjmVJbyWrXvASnSrR4JSgEOFtlNWzL7FAqI35JrdRJDZPJGqhrv5XIkjXb1DY6YUlJF+p3K3J/xJEMRVuTLB9s9sfIOXVzXiAfW8nJQgtYEwZPhpdDARNHbgct9HZSRSer/nt7upH9+p9+rppI21Csl6pI/oTWtOHaKXeNBtKR4BAiSAEtyaL9OCI7CjBRmj1mQFQkg9DhyzLtG0viOkQlO/BVDHVE7JFOc0rOokOwlJMHoBUu3qzLnqMqcUX71s3e2xIkJiyWW5FGjRuwJOgDeiAuS638/QshFy0D9fHzy+Td+qM0B0UiLbUpZyuFAmXWOmU7TkD9NEc7sSqD/VPT0C4SpmRHuGTpN8moucb7VzDKxd5Gzv1Jd3pewzbwGVdTuDfFwcntVpiVEkPT8wAail8HfdbiUMQUgykL/zMR4gfY5SevllZRnNX6MU5o3L1kokoffshPV9cu7vlLQuQqbMyO2ztp/1uE3M1Rjx4lTW9RNtV/Gm1tFS9C+pnEuS67Rjg5KKKQMqkpT8DOKyMdaR/+8r8cxYH+pQCVWBWNzHzCL529WeZhEh0nqbu4Gh4y+eHQQBJYOYNQ9OnhySQzGpRA5PljqZJ3uXRSFEum0ysZyKe5eLs0lLMb8JoVMMYpOTJQKyENmR2EyyEjPpeUrNIZJbYXQd/eW+MwknX6ZxfCtnMQUCBdBIfUxSLFFj06t1VmN+xEZYzvERM0fgjfoSvMZGmMkvRm4tpq2XWndHL9Z1m95f7pbtuPNeHYtkoZpHkrQDAlZFxKv9hI9r37FKlUZq+FsEgJRM7h4s2LQUuRiYAlkj66DyXjdSopkYkSFMWVd1M8BmuxhLCty4oPNV28wtNIai43H/9tmC4TJmAElu6pAgXVKMGY1iLX6MAql4L8bje3a3/v3Cd/4+KYWpByjUrmKRlSOZEsAdmGd8+HoRqVUKhiINdZzixZjggotQW0ZjSbTcK0rurYOQsCs0CDnRWg7gnx8D2HYJxv5khWVaY3rQXaIMPlmKqSb1aLF3TIVhfZJCXZBysRC7PDEPkpg3Rv/o8b9xTcpHEH3t7Xjy6kSe+hgX+e7EzB8YBtg9fvQJnGke+43GXRIVtpFymUYdPUSJ5JZrN+OiDUp37ncp09Kco7nrST/pYO8uU1JWaFbFb0Qr+yt9d3AQ2lwMgdxIuLZEuiAGpqHDiA6IPpdcwkAWfcJ3kS3Dc0I3EPN8Cklw92mJmKM0EXNcxbIY/RHBqbWm7h9e+sUe1YRCxE1UxhXIQIXUpGFNFP49KGU6hnYsVaD6abOZKdJ/w/xQ1JaPMRHsghTKw/XghCGVk4FuWJr2F+ahkPMScynLX1RBJyv2poL8A5f+tIjxFkGY3bVD8xLoxxlIISB+mxi0zKksXMisKbEv7gGCKSRa5rqRKCmbQvS5NsuqzXGUkLcfJDNV8Gq03D1c+mDgrg99pcZwZ902Zibkx5A1FfxB6iUZv+QYMc+IR5Ojh4t0gLtv/D7fvAtNyBKCIMCe963ZXd/ejDe2NW0YgdkaWJQ3CGXeBqvfn3yZi4qnCxb/XVgyNDZoRrimgLjvJ6eski99CsBvFosi/CYohGm2ZXpXSXeETiXkDhQ40u3uzOGhIW1GWtCcsZQ00p4tx+Z40KJQMzeu2FLF9/uWP48XuxXhJB+YsUeC/5BTCHIa2oj/vz5+f3KV9mJ+14QiOoZPyshK/BvPluODfV3FZL7hI1vJtfSQVK57Tsyqo0LxFpmKJg6ZJ2Lftf8yKwRbFpVSZuXoC3tXfKRC/ile5FYB7Wfl1TAJXkLeOcsVbfQg7ypGAFCT13Zf34/P59+f7Wz4vgevhLxN785l7TuHtK6cX99vP726/orGe5xIF6K9GCCpkdrl0Puyb2Yxxvu0mY4gYLue4UcqhnVnJWz70cwpQnwtrxQGuUSVvRGqe1A1UKEO9VHt4USxaRFWqOmAo0RNSR60gbbRKlIKESTq1wjUqTHT2wEjLpVQqMLK3yp4cfT6Ls9+fhFccXirb8ItVXWjP+44OVl2FIOyjN0sMZ2BmRyK+/usyLIZs5dnOv14//TPLislCEG0EtNFoFBxQpPsFLh9wUViXB/otYX98mDKcuxdyJXpntWBWR0oO6+VFMT0rkPcwM4Rh2yuBx0mgs0+dABKuLfsnQuW5Q0fr0N7f2aYTPc6dGWvzls3M2DGeEfFikjEQlMO8SA8ZH3jBzjG9+MKwCMsX70z057AoYBTgVHU75kLolK4vqS1UThY2z6QxmUeOign/vgwbTPbpaPs778349kPRMAkog+Pp6stckbK71yEwqN1JRJ65smFxRP4OWVq6he3EL+1G2A06vW59F6Ic+DNZOumto+rD3h63FJqHiXA6SYxW7FazHmIA2sxFAHtWpSsW/LCliWllKc6CccSVHZys0maNcL7ZHXDUfVzsdNvNQTryZKWEkHYyhb0jidONLFLUF0ufvry8H7pc3cR0aZU70PBlfUiauvw7O+iER2g9xt+y3bsL8oS3nhh+AMJFvNz9+98kmFhG5um3/UV9RDZxSVII8+jkv+URM2SUBbJVLuZZz/z3OZX0CGobZ4zySu479x9ijqeYpcYmfL3VDogXr3qjsVgBhUg9Rsvz849ZwXC4Patoq6AORXd+6wEYvg5Uu9IlZUYbcU1+FpLWpVNenHxj6WTAx9vSdMG96/bdXD65yvs7l1EC7voap15Y1+1qP5xgjbuJUxaGGKrRf3EorXRd7Wfth7vmI/tP9BNKPhFjsJwYZTEXx+chOGyzfiYZ9YE33mzypGd66PatUWvkcKFG0+15b5OPm72rQv5L/mPSQyC7rtsqB4iqvHb80jMBFEwwL6az9ZsukE9yTGsUstLoFD3etYWmIZ4IuGTXpp036NCfnLrsz/N3f4jZZ4GKG0h3az4/jMVZ5LGSqafhY9110oBLSlyRGT90wo2rUhQ/noXoPjZkKgGFkLV3uvdotrTqxmAEuPsWUlxOrXpWB7W7L0yQNVFntVJllXNdfT7/OLIghuHs52pxmCvrpJharvaSQ+krnkgykVkKxU2Sz3OQ2pMA92bfavr9/z5Mz9wryRp2QHORCwW0eK9YhQ2WYYzjIAzZXtZxHTmALkcBtNgxy9c0gaoFDuaCG204irvGaJFAfCNULV0sE4oTU9bKDWU2jEG1/snDaAPolJ8LXOyzDG+e7OMkT23hNE3vqabKPGHNnkckQN2S4090IBSGMe3H5fs12UnSbpPLGrzClGr2Iz7johAI3u2KTBIN1JcRInXNWLQtox0xuzAQTLgYM8IM/KQbzemY2pLyTVwGkaKefeXGMIusPIt2SXmSiQ5px9fz6wjG+RUE3Xn0GFPZKdm790ZMXzl6TbMJp5G9V8DdAfXfq5U++OVUevYUnA9l6TZl7NS6r3AsGJEHWoWhZdgNZYx6QhzIyKkunYwMwGboQ7nF6cOXFMzkGsQhOd5T5vgudsKOsQwK1v9v/qtY02dK2vBVlC2C2rvqeFcKdhS/dfftqWiQjNXbmCF0CaHD72NXfnrodcbfgvvfbh2zelTxYe1nSoWm6Hon2s7GesGyoa9L839QktHuRYW5XdJKz0KbvD5zG4MsYbfsA+jzvVYB+H9VVHl8ssCVxySy5NibTwuG9Gmaag4STR2hdtET+6VMBVG8vcvzLhgzQg3g7H+ePY6ca9EZr4rxV0imkj+euZmTesrUkdPNGR8ND9a93b1mHuZZXNlOAk7LPcrDiAS6SDtFKLsxSeY0Gp+AxVABp3yvDacstiCExE15niAGbDRrtoUpixzS3lgR7iKFSflCa5VMcEiDuX1waCUPv7v1vmz/9T91LRWIKa21vRidKhFM0OApufpmd+GV0dG+LxO/3N+sOYjZRlQm13myLooAWGB8Osw9dGB3F0Wf41p83hBMgII16O8QYG4Fz7YCo6l6l1OtBI5LChrmVTz9nZ9R2dQWqnTFY7KChLRY2kphUM49VpHpb1YPZ7incvoNy/WxXwZ9yrHUhbyWA0wcOBw3e1UExX91TeI+NvNYJS30mVoJx2bBI4FYN/82nKpNr0n7YStIdznm1Q+01l8Sawto4RP7fChvc2IgYvGWIQw3x0joPbU52aIe2Qlk3Vx1iKPITEigLRgN5I0aZc9onA063iIms86SgP+TSvzxLU5+83aBK8arxq3DGb0vEgrcXOfFfDGpO6Ewwfhwu3UvfEGrWjWNSFRppA6ygf8CBO6leLWNgvWjFOnw+kIRGAvstFFGOtdzjV0I1528WdZzTTGAjFPEOoKINZ0UZRbY3UAnhpIfP54P4/Vt8YZ2zOXMxIO+YBjHcztXVan2+TMe9vonWVc2LGxs0mP1Kyh4ISaTGcQqR8RyTxkrK/uMYr0hOa/kk4CyrEqbKaiIcM3Vs/JOy6IXEzPpiVqZys1HY+fv+DZvZilE1HlaijHXnmi5CtLHA5uH8+vjr64lff+H2H8QDvPfsu5lik25DplCbJJxwOmpFkZ4Hr9+NvycLhBc4X+/7uPmapb9mqmPyDfMAIuq2W298yMTKp4+ZN14CJtLkNJPSSupC1ViyPEZou3BpBFm0Maudg0gCOY4vADiyVk396PHB2P7HQtF/XzmwgzHp/UNhXWluNWhxGfNrPYBbQXHGi+77vCeZzF4FqUcRHluUJSYp8GDXB4R+3lt+WyXYSN9+ftGxB9KSqtzthrXDy3WNmPetM6Tg7+gg0R0O7yzQ/DROq9wbeJPgOnCoorbR4mA1xFa1NR2hSE0FXxW1N8+nIqwQa8qQJX4OLP5vcwTmdVNv/vzc/6omTlLhOZbRLXhMEcmXh85bYGEOhSgkGABe5LrMuQJza3G7u/ToKNIZWpOa7IvOZ+DOBuYosoMSjI5jnRGmY9fl8DPEkcglRjGVWXU+DFKA7zLbmq8EUfGY0AbSescpJNifybaKkR9GLdFZE6ULFB+vV6ObvXYk6fXxwPzNRJ1AC+rD0QohPsw7BYnan11dAH//vPB3b5oJTmdsOKK3yqirjCGGwE+fogtcbrI+uLkdOpXrMmACkpfyyxlIgF9+EB+UBal7/incuZ6uadkSejYRMZmsiTxJiKQCY7LokuhUuzokOdcWIot1IQWsFG2i2BAbUFfnluySLJ76RZZZk8k6yipEX/7Pn1zr7uH74eToid8loglob9362t6A+/mcT/sbgPSJCV9HQIx9yQ62xrgFqksUlGqrO6Go4V7N7Nsjloyut08S0M/o3hzHnpMCvwfgAMzSbbvGP9gaIiogYq/qPZokX/df7wG4OYjQLnHQ4bw22wQVvs6NjPEiJeiIhMCvb7Um9MzMl4UJh5efNMsBYYy6VnFFEAS6u+ehPnpweKVXZKcqjuuCU037pVR07b/NxUiy2J3D/CO2C0CP0BMDMGJAAoQQBe7MBMT11il2pWSry1s97GSVJs426wP3bFJ89ajMj86OBLHanC8VUR+oCzQJDxJZCTKp9tQTeef/lu01+Ilz5wBJ/s0EEgtIn5Dc/RHMglsXq+gimff86ENLjEufW5QSGukX3s0fNg6vd23HRyQoLVo9LiLOwnjYOrRGHFUtREUSQVvYAz+lA2tCnVTCGM+n21Op2Km2ncLI+JVTnEqdDDtxOWXdFUU6vSbZE7sokNQnhXh7YxQlN3KVrg0mGrfXjx9B+e2D17fTwQ4k9Z92c4dGn7KQwRii4x3LaHayHPtNvUYCreHIkcXrQIZGY9Vk1XYDX5cC7BCsEpFHgsdqkSZcD9jZQUXgguCslobQ5aqIpijxVOO0ST26pG4vJVOQQuXEkQwxc7ow6OnpcCEQDs+Xj/jv3Jr70O25VzHDSLCkfQec9taSKLQmBDX16dz+BTanZvryPwmKCTjHxZdE80FP2n502IEjufIdpdWEwlWHRFByCaJCCDD0Phj4i3t9446eqPsM1eGloRONEiwThnfERGRmmmD9tSrZ4ngDY8UFQA4Fgsob3NswwswbCnYZ29n8Z/Bg/28vLJxVfZOkZVRi8Qj7m3slcSMkH4vDNThKWDFZRc67fmrJUuco5SQjzm26p3z3zr552DfLwMsb3eo2nb1f/jOZb67dUBuZZLDluoLYiTm9ghzgLNm0zAniyPK+GpRc12zrENK86zG3QfzB0uB3klh1HZiwrh9HDHS5O7FFvJK1DAA5dcXYbL64UxnLCP/ohmQhPGsOwMxPzC1JdZFGMi0Hxhyr+VTSyCZ5FSlXyeEq0mZ3adTH7UcNT1958IN56ZVlP48TZK+pm4xc6nZKCUOYKSw/Yo2IOnPMD9Cjb8dnFkDmknu7+0IWd8ZOD/px85dhky6LMmRWRsO+pBo1qk2UVhw9x97YWRzely3yFtviOhj7Un/gX4NiTPhGSvJanGr1rwrY4LrHJPWopuPIkmKArPFLmF7ruc8YooEqS4huhRDTrm4pQSeNfSmJItKBewsmga5mUiWalVtPmbhx/Pwff+2JAc4kxqCtIbRkyhHcoenqCuQga5Ikco6spNxTYefghLYeOMRzL/LurpWtoy/jNv0PS8gjZZpVvgYKI3GcRtR5KhEVUgFQrMOsdwv37HGMM9NONNsSYkeyUhYa61oJAv1tsUvcBVZNIsRILhONROpmmP6yzf6+/2U75jMH2bgQeEfCarVULMViNvGZ4N7B+iSVakt9kUvhXZsd5BCiAMYSS40Vf37TT6584WNry0K7fifIitMwgQX1ujSELUrPqM2DHnVUs1gQ/mVj1ut8osvSU3cKGknpV5P0BNEJa4dVuuz36NzwDOPOVozt+qBZN59f+oYD4cxijxQ77EsY2QylacIuFT549d5yQ50ZWcch3VxY5CO1B5L/JOyo/uGtOP5SiO8xetUBNZWHLrKLJ7EN3/A1Ar7vo6OJHO0ha9ByaDaUTM1Z2P6koNOhFxsmz4TTMSrHM0CbOjPgjE3mHxqJlWhT/cau6309gw76m//H89s1MWbpJa2aoNR+fbjH6QooxDE+Rive0W+Tc+de3Lu2wB75phzlGvBusSNU/bihBdRpGmelOjQicIaBqNMHbbnZNAlSGO616q6v6ETpDVyTUONj0C2MdR47EjvVkGwpQSk1BDBc0JptedFPoO9fkfxx0cCK8Obm9txbq6VWB1GyKDxTHt7J9+NI68UEpq8MoAXy/phJhMRj1zkFZ41h4Af35DjidM1UKQ2USbH1xic0gvFFJ3hYCaUhtZyIffaBzn4v19GR/Syp9BIiQDhcaCIsapkorXHZP97mYHyE2kyddQPVwv981ELrlmJIAvrn9vX43379yVOJK0qD3e8Owj41TyQwJ0DSPYOuxywOF5HlhR7xIfcvg2161CoI1yKnsaiU2P6NySzNAELSKh5sDyakf9INzHjqHUruNLx+HArJz+Shh5xjD9t0Kq90+1So1prVZBSSy00BHm0+JHtwNfUFTbh8W8ifQ/t8/a9fiDs2uqwpI+5kUWOfs9+4wgtDRK5dttdsYN+vkQAoiGx2Chp/jIGp7jtoteyCfBfOpoXlJrykyyFuLX2PAeXlPRYFNijc7fipvE+76DYUarc3b0o9yzXova0SYj3cqMw5LX004MSbLttuU1qnqQdmi+tmpV+v2afL6DYqu/OKMk7PODIEwcRA8TCM8GOGRHkXlbrzfNYmWJdoVg3HTdeUdYsf72GWyWxTQlAyhNqVmv25aTaYpGqWSxDJqCt97bn3lAjZnuv4mZBEDVTTffXWgK0DimIgqwPKrurUdPpZU85hvYkDLQResjURxdyt+eDH22Jf1PRn0iYwOXY7sRu5dDPVfJOIsaP33TXUK+NJljWpucuae/WzJiyNYK2YQbtTO7omMxGbO0iVXkgwySYjHHwI2NAJKH9rhArT/aw4AVww2gf6IEKGnKBUmetcnotZkVeEtX8WL73L814DUsXpMQjOhfPcy8aIGyeUMZi+b8ytG4Pc+z7cISswC5JMoaSsePrS/ufNfxg8aafzEqvzeKNZ3KcVA5txRgXBMd0woCNV14EEXdQm4xyiAQca2qIBEXjh9OyIdeyad/8dunK/Ppme3M34ipi64lAdRH6mY5zVAnWF4CVfJHVsdEAjyyWGg50a1yG1Rr8I2N42UfoNt94+/Q061wvW42mHUt7DqAt6X6r39kMA6SqRb6ZA0r7r4PPe9dtKwyvN6bYmH19aeTfIOPX6oV4jf1w9IU0E+RzlkU8ONhRniqUR77eJ/bSXO8WZi7xEZn33FeuX7PGXb32IrHFxCxGn2Eu6uRCrJLYsTJXWW6P97gs+vm9tyd73Pfun6/AwXMi9IKrVokSH9+foMvDFJqSXoFTH4fY6NjnXmByzL2TYMdJMtjMQxCqPApy1AkQjoUKA6qWRJ+cMqbDDHGmi/V7Ws69d5SpIY5dVFiuQT2AiLBQbSWiWMgIK96LFKHmn6sol24Nvv4HkAszS4KN93eveEA9z56Cb1CHLFKWBXMkTtHaZjo4GlKL9iOS837vJ5Mrk2LukasoJT+vgMVc5IoKYrNd0UqbnAlomNFLK1GKxfYM2udKQbFWFYP9q5OH/2EyeSsd4Ss5Rkg1UW/M0wbWMRisJiF0npjuArB74F2ouUn2sjDvbb7GsdlPsvdzRr0YrV3O1bKZ+kkvW6f/RZTX3rmK+84qsMtMlKf4RATXnT9D8Pp4RJKM0daeHHe/zVE6+NhVce/eHtfy0PPFAU+ySenSNfLoiOB13aRanulGqt7HJfmBWqT18GokjubYRwFzP+g+MRK6ptUlbjlglKqFyFlPZ3BI9vYbCfAw8Y/vBgREnZDESx78aMVCj8IhMoP2w21GRNg0THjO5YRQ9NMDGOanjugiPTcI52oF6rzp/aGuKzQZY146wCa4FVtB8eHQPG2/UYmjiSW8rumGj8uQOw3+qQNyasfFu6tYpRdpIhU0FUXUtNAU1KjUtVDo5/SDewrbuqDqQ4scqdn3b7arpCLKwdijD2uY8y1NU4VQeZ1jOkwS5DztILsp+V8hPDyDyujHXkNIue5thl7Ia/0Zn8Q5sECsxjBBMnYKBrhqj3Rv89T+r+kQfL7Ml89HotzsZH2opoCFNCXxGp3qp7yqi4NTRkuIC6E33vSorpZYDgk5BtJYnwN4Nes4LPS7bpnSR+jxNaIgLG33XBtszKQfRGBA/nn2RHTvepQHCwgC9fjlSFhmSJ22COhS0xsimIgaqXnpYAfxY2h9e9S0z3Op3yNlyOXfcNnx8ekOnBX60ll8zSHv+jfWlZLjMFiju/oeLnGqnuQmhOcFMlVMhPLryaIAc/MGtdjVj2TGWQlrAvEtVEtE1a0TmL5eymWS2mKKRnBoHxF/9QEoS9IO9UWhkJ5/McttwNh2qfn7+/XANSMadpcE11ytcnwMRxm47Wpp3icujMTfOiQAopquomlq8vLKC6xoh45/zoFGriDfUVZt5eZs0cR5IblgPjXwym2pFslTzPxTbQWLEijcGo2gEi+IAvz6IX++/aqVc7SNx4lGxp8cc+aNVTmeSFNaphMZBouLfzyUItf08Oh71aR2Hv4jK7sx7xy56dCil/xQsIXZvEPynA5q4mlizP/1eksRCzFvTRiHpiM3qJf0ZcKeoi0C+k1wg1jB3zNY36fIRiKCH+VQFR1HKEZxdlq0GT+/GPeAlQNu03/hRzgiTwKE9tsN0ErT4Ekku4z4qc4Pmr4Y/nm5evHFsAyxVzPIpdgK8TDXCjq5dCQ0kqiwV9gcJfpQWXBnrQw1OFwCFmJwGwnJdXRGo41Qvm72l5qEI6kqL94DWT2oUx79hOSdkbfVItPsUu5ePgFLIusdvQezUfqtS2tABUVUl4RFXp6e6hsNfe/De4e4nxux2WXrxBbdt94/Xbzs2HE6Jy7XwSFZP60LygNUNygAz6LT4+8MQ7X881Umxpy7ZYRBhB7vPHDNnbqZWEfn1iYv5nOdZqMUUxWRPiX+Vx+1Sy6VIl6/pS5twTm/HiDlfpNRRkHUJyLszX8hR1+iS1JrcaKAS/vH6318fb/aFAW4vFqm0yK6l2Hvj189vG4z1doI1TDErsYmLxAkX0WYR4N5uVLZFCeUy5Rps81jvMt0tIoAiqiQ7hRrQmficF7Qim6IxO4iDHndIGzQVIgJx9UFX3gpdBW9+WX9y2+FPQuhf2wjZOExMoNJaVNbVzIiDnR+N718X1tv3//72kAzf6tMHd8V+qOr3nM086bLcZvkjR050SsUdtIq2RNjn+5+eefrtAtes3BHV2OWF00WhNQ14I6a0RSpESfu/n0GcugzUJFvPrPj0JMdc6Dxz+A7PbDmqrNpBi4+/XPJ/n5/7eGM4hUpHNjGTpEaOglua8KLYGlxfj33e8LKrbt6t8LNiPWtDR3MFZJOYTLpIotLlVN1KIxF85yc13eum7eD/+IUwRXO7rZDjreHN/UAUVxJIdlZwtq6mDKudOSM31s83XDFXnZN9pTgq/0GrzSSYJrqUpyqJGFsvbz0l8KvD9A9PbwkNn+53egtCyBoBhtG42/P795cIXdSSirBKJjPe7NfTcCvB7D1knyYngHSCcxqy0Kq11h+xhZpw9r1+Put4UXCNe68gMZHqpF9hsgOXB88SkbWXC0rpICm+ZmrURlv1NWAfCDvUJ1C+fCRBLzGnOUGxgOMK1rd4evMuQhm2fCzP1mrK1BrZrCfFMo3Pn9+n89YXZYxSnWlG7eG/HHDPm4f7MSVfVlKC9iZFM9PNDnzmmU9HBoei9eezdZzpQgD7y1dYrn54FSW5HdN4xbkaWhhOR86huYiPP6qHp7EhE9ahL1zdBQZZQR4H8Y26S1UpfmWr+NE/AsGq6DPFEZdESKfSNtBC04EjfAnSj5aYpw+3A766okd1refDX6DZDZrfKXon32zJPqWtKB114tIyKqF23vofP0dkxB5nH7JNRAw4QN5rZqqU6P2XiYZw+t56FC1YKMCkKWrprXo8irEiTVkS+w+24d7CJmjCvJW1kRGSJQki8avIYeyHKC7kZNU2Xt0YsHYbxi9/kcBeF7pPf6Lgh20u9wu4pfsMd8P7XKlZkSSOhJMcV2uN7wwlV2WaP/+44/PBkRrcn/g4Yx01uaXfly1aDuByCV6308PfaVmzSG4oj5MtrW1eBu2M8GAEdCoHU/OEo3Ni4mmmKhHWnJTpIntfT0Y3kkOpYO6gWzr8zpDOzGVFh7dqOtEQfvoNOBzAcgExe5M+t3jup30Uq4FUzNQBYDUMnPQNZH3IIEpuK5DSLbYjp57uZeDUi13R3FQYUvV0l7hcnERQOMHOJlQDFG1VgILgEG5Vm1Y9yAMYMiGOKN5QQ3wGzbwtSgauTfYjA2NuNBTZWutUERog6Vy9jSA/Dm4VoJPh2IN5M+zSCMx/e8dKq6f9HsCDLvsijrcZdUxBFklNSbZYUZuZHtLcY9cnN8VPZgQS9qk0qzCx6rpFsG6/IBW0p8vrtqtnGMUnSO3rrin3Tsf7bAS2II4DaOyWEVShpuRUtwBJHJgrmubLDcJaiN2xqbJZB3O4IimDEGhIMje9afAqg/siwr312eQeTKVdhdg81D03gv2nneRwpJRGqs36K63QZHy1Jpe238cHl0c2X/6ajJ/2u/of5Ly7jui7nQem/+tEeg4RjNS0REBSxFMRot+FvbMRAAyhd/76CavzQX5NlX2koK2nnWQgD9niBYMmHP2d4uJ5emHp8q2P3XAZTz72XMLJvieZGlzurriBtf3lzgw/OHAkd8pogHYzfIuUKSgJxa481T7+4M++03y+lHnvBmNbGT9stRtgYU3FFcR2Je12xt7UFFjvIlN5SoDAq3v7fVLZDqJSuqQAQe217h6qxJkgUAVmukC54CRezGy0xt/s5FBmwI/9K/JSVxdi2T1onjSWfSrAGutsvfvrrN4DHNavFk0AjMHTn1/bY7Ikd16HQHKTI1+b6HVf1y+g+e1xBoPb53bsGJWLLmHHj+sSXchRR2Id8dp0qbr3GNrauZs7klxzZDp8wDSWv15qoZnWKBzEiSgFamAXPyT1DjHiaGvOSsQAsu2rpt434U49yvnw5ZG7H4q46gLzqo5v/QmwfjlTcfzFWeoTDdZjwtW+qizppRkisMWBemCjF70tDq4+dt5Q6EUyJzN7Kvp92YkYYxfU+CdQzJFnWevmfwMMSGNQj8wOOj7i9yzGlQJaSKk4IpHATTUuQpeTCeV7S7K65Uv8zHIWSgdRIjwVgpcMU2MVV7JTcgKwQdn97zzu9Z2FEf/6w81nhPztLhhcWpjU67dCwc6jelPdNcxUtxCS5PbHJd1Hcv5vVb9fV3jsp25MUWayAjPf5SFZpGO9TQ77KnT3DId9tWSscZbUeJtGsUWKuY6sDU0mU7yEXkt1bQtgnTKbaAyKJoiMemfDNo/7bxZw7U8LrxsELyBnj2AoAwfvwxCX471+yhg6JCWQjdfGksplgxr0AKqoY58mOuqSWPzxFRWM6HaCvmn+wekkmer4+mvTTJszXk+kYmtDWCDVTJJdJSGFFOoDRRRhRJirH1RPjEpubet9NVJxQGuejUOtWktgteRlv9iEgmUydHVyXdDHVFJ7OY/+nytc157Hw5eMUcSO7Nf/VK9vwyLMlaw+oBc1aRHgHUdJ7U780XH8OddI1hSY/dKR4JPAVJBz0J3kKEoJw7ypI6qnkNS4UiQHaqWBMMvZR5IE6sC5ds+BNhS8GgK1LegEQPJh2SRurmRf7lW6NiqRLhF4/heM/MTxs89AjWfcCsKvZLYmU3X+Q8VEbmHeuiEdK6j7wrFepmpBdi9X6yrGmk720rYKOdcdFhg6AIGirhUgU8EXHauavZdLNUWlbNtWowF+ZEel1lOP8SAuQNOZqyL3MfRWuyKae41CDMI6hQIWmYVRqRIiabKmwQv79JqUm3pG8/3yow5J/Kwt3z373VD9++NXvLtZA+6IgO/0pgQU8pBKHJasCzGdJmItzKwRvY91QoPUuitLtFFbmEsiM4RC/gENQXsstI7TxXV7zhx11Wv0R52Q4LIdEh1IzZc8BDS39SmVohYIl2FNVRApviWRjoThoaRAfYjmtcl57lJ7+8teCyq/jmlQXwj9+MOG9evzmzWBwO1n/R6+hOZWdV8qrIOKTvrpwXaJwl0dhiJ3B+Tv90ZpH+yAU1LbLqJtEmrieysjDwrMaBleeBplGZPHSVY2QDFd8Cjd7BSJ41aTMQvAxQCbm1THuIOgckRIrbgtPeFnUgQ4FPea+X13/ohCBsABW8SWtYkwTh+fX2yhoDZkv73I3fzSDqt+XUr2VFzBYmtrlWnayb2XpI17RR0gVzg46iUpniOyWMS965RyRdnMK0EtMiJmxJ2UpIMlC6S2sfmtGNeqWnIWmodHq0jXsmsAHYNFR619Vxor45FhJu/42Qr5wvPn89d7Uh9E3pntLA59rua2wesZqwQq/IC+jQTjsV8/8I0K7yS9NqnXbiV6dhSvoUxeumbJan7xagdsX3c/sojyyLLO6bJLCVBhghOxsvpVSB9JGHmPaiGtWmJy0egMA4VGWzJUEO02ESJjNq9ZQl6sZEUH0qdKFHiXlvA+cgfmz5sIlqBHcdxCcSrs+fJWjS0ou102DC4ZisC9bc+8hUBWT1+U70CarlAVqC6TjgHeUIhDSjMd9/ZjnaH9fN8vzP1/CYj7lLdUAco8ChJof9JFtw5qhKUa9nZSDi4gnjAvDel6YGw//EIJPjFsEU806GW7aDwf2qQqjLZB0MxRUHpZpzkkPZ5xGSAWcZ0tl2AHzqHUdypyBr/0sVNb2Yk2KclFbI0JHeqYD6YrF1XOrLj9YTfpKDkmbFbcfyjv+CoV2WrjAlzcoVYNZVbFumZcMO2onmZrq1cd4RqB9R7dPHdoJt1GMLvpjVZ362nIc2/iCupFGHwT1jwQaQPSPfy5cfsr2AFDpo0ziLiHrVy/FQdnm8Ls0qZwChdmqAKzPaPBWQaRA2Va7uvTQsl7VaVPlUZKucl3qqQTfwn7j7yDNU2+oPJQVxOcZlnfcZ0XEHYs0QeUD2/9jVcc0C8DQCs5hAg6wxIPIONKYQfPlO/n5xILflZ2AmLgHCD+tCi/ulQ8/JACfHsTkDo+JjPL8ayunuqKOG0BNZ3sBoP/WEFVYukR1wHvho8YSZwN446m+beW4pIGdOYnphKys1bAbRm3R4RLtjk3Xp1OMlp+VonSLrNGgJ+i6uN0HRnQN9+mG2gJmEYj6NnNw+46lOU0iEri1sHUnuAGxUrROPX/BqAGgka5O5jPrKwsNTEmZqqmWoLAbhkcz4Rj8R+L6BkzNyFnIZFha7sVRSToTLvMJlkoyRThKMGbNQ8iBNMF7LCVREYUpw3/znj6lX8XMoxj0S259ilDUvLcq3pbgE3B8zE7gTopL1qLUGns+ip5R2xlwOCrO64ao/pp5fT16rku2jebCbBAIWu6M2NxWFww+3yK3csZkcqWM6xbBPW6dfxPl9bvSHPoZTAVIGnqHMfEKE1yn3ukZtCTCWEEeyImCs9gXZKZuEXTRfevOhlvP8EBzM8qJw47O8LJMDbDkWrhVryNe8Xix5a7CiDUoXVXp+Jpv2jFlSbkWj6L/j9NPS8cOOjz/GabBMpGiKOdLAGXoGgE0wWRBg9jJFsdkBP7ai7JpbRY4+4AJG6MiRfG6ueV3D2unhk+aRb2/Ig0RI7Hhqzm5WvfWn0jItdGwTR0XtRLg646Ez1DYApxZ01QSNM/mRetlUAg7ddZe/Uto8I6wJXENzSi17R6qoSZGef4q1jblEMAdh/M0cDYufTF7SJhKe4fnWcZA24EKVGAJdNojvVQyOhrd5qkN9Yv0W8au4fElAWWPbE11sQJm2QScmYCf4qbvDG4i6gZrwT/sadZGN76pIXGeK+NLg4MEJ3BIZo6VlIz+jSqiJL9H7wHx7Rgy3APg5CSa/dm60VJKFYdFQmX6vjMCaLSi9p1t8jVrERH4Z9eT0CEMTgNx3ZEDDucmAMj14jguh9ZY7qsltSbj5h0rcfZyMdcreKk6jNIMWaBPTGLfW+FHcG9ydcvuQa3GXhyZo6VrD1kLifkilbmWXRENkN1RRq7qo2j9bH05qNrhECjmTcaKbD16Dg5/aZA5JwzTZg0VdYmyT6NNS5KEpWiOxxsGJSiCLLXp2MUmvzeJi0lZqoqQkyVxQXDHiBM6dzb3PbaBlZDJKhwOT3sWzEUF54Cs3TgfyDWbJRUdcC0Gv85+ZgnNYdYCaIDzAAzyqlNABZQBsiHRlkTXwr5wctt1ybrUJcMiUJAzDspIYHWbSjEJUaM6+WhiUXGCUZ/wZG8DYu1UelQe7dxk8352+KQe7koPuNf6j+EUmxKT6BqylQS0UFQUyrd0ie1RbiTJEUNrEV9DDNtdo7WliDHeDSkAPNvzqVyLtz2pE1jCsdALkA7VHtUZdAoIJ5AmtpaTgr6elxdBXaWAxPmS3XJk+JtsTKiD2e2+RuxV7SiF8tN+rg3ku1g2g8lFbpGXq/GvJzjXB88XUn1gWiST5mkuqwZUaXmW8EGfSH1aDDBWyfrUdJvdRfQc2UYLTyyIrxf+4SlyGhLL6k8Vxm0IacQaJN6W5VkEgWjjdyaJr75Bw88DUtNb0PSv/BMBFaZP8jVzTe2vP9Ws2PrkYWUjawwSYY4hFcflq1cfNYgnS4cCJXTL8EOwZEr/uv8O3gOje/Au/o3jq6lI4X33T8BG+mDvBJ1t8zxcs6sY6+p9UMjlDV2qSjivNIw2RBidovf9IzAJEYSm24vuWvzoQ7Tcr+hmJyONcxOg+wE29bRLcjH1sA0SlOpOADSHppL1OjWH9KsoeCe8/7df3o83bVD+ZBGPEtbV+Zc9VMB4hxD/iWrmVRTZxzKVL0H4nJSaM/Dbao2hixRduYA51ClQVQ3665JnN1eFf/2xKy0D5AlVPL0VLFaB6j4wQIKqAV+0/2ntUreqWrjQMVTyUJlCfQ8AG6F2SW+0JFzh7JLLJjzoSKBKnt9VWgJDEzSDd1o2AgQY1UpHb41lSlMyEGSbZQuQGnaz5m8EY+w1qxaOEXl+vCHbR794mb6mtEJk+c/nCWaNtaF2qtdzeTTkK7G/q7Zc0CH4DIRUGRlRSpTCoPwuE6HR6+ZJIZVF5r6WQoW6sk7ctojH7mnD7RtuvClRxRSlezwqARKTZuGFZfEyfjXMCPvNYpaEY+n6UJqkO1MOwcfv7WVFuV1R5HxOYeowGvTSrhJPIqG09Sq0WZt/sjsQxPP0AdjWeCe+YQMvek9RY0jVCecK75NWNyFyL6VmNo65JWwlRY+EWqKJz/WP9QFsTPCIhR7pIeabZmnTLYrvaqUlUJ13a6B57AXCOkcl8qFe9fmwmsQq3rL0qS0QTmEFlMZFX8eAkI3ZqdlpvlLwQrhrdXoPOC3MaDrKgCgHHqpuiQSaeMJd+WVNcchSdnJlRDR0WIa2xihOa1oMLqmukKPRuSbDGuCL82niKkVb4a+RSisjtn0kc7et/Jti4QEj86quU5eM4AhrZWNQ6fHsn8p160aRTIYL+B1CXMuVyhwL4tc71yI9puZC9rSaoq0RaZKpmgda+C4NxaUyAmJRoPTqBOCQpNU5YMJCoNCGjHOs54lfEJOmtxLEEl0FKO0OkNK9z9syAjeF6uDARZ4wj3+uWm5wDWUVlLadrKO1iyzO/ZUx1n7J84qxbp3mkmiJ5hxgHbcOzb7b5KxvZmUovsD8RaoQcBKOmWNf24aV+SWip4VSh/tcNXmBiWN/Ig8jNZqLLOs09K6+Bx6/EL0erH2lWmC98K8+yAgiYIEvjW6PgYh87ousx64CNUlZ4KsXxaTFJgwFQ4v7OZbXvC0ImGFPrHv86KbChGZVcTbUvFbRvQ1ojRFW7t+U6k44H+kNuKtMVvJCo/sqClY+lVTbMvKHiodmtoF8Sdrr3csuDgVb5oTkB4QUh6dTUeIGh+RETsbMMJMnnwzD7ypyBZ/M1H4eM/agxneOfUsfJQg8qzFw3dk5VaBXCQsmhTdkAwp5Dokh/zY8A9Wkme6YyTTaKtnrY0cmgMdYZDVTzPh9+d+RjAmCntY+mPgEhrndWyQaFbRFXy7100osFIViemHjvCOGqDdHVxyzK//EO+Ua0gFSHPhLmmTpYzYNED9VLg20O0zORxGEuW8/+gfDwUTKrdkaRlU9NWc8FHk3kGQqXqqC5z3wB4L5FQA3fIN3SH0y7he3g3BY9OtAsHsTfHjj959Pp8uDvJfqpXWCbeZMET/B0kz0SPSGuEZXC3EOQ9PJYds1iTVpjQ4wZxPbnklXwJuJyp1Z6gddkUhrcokXaLcsghsgDugd1/K7RI1WWJfoLQCgTqiZ12yosZZ96/HLzeXBlSDnWz/bY7BFFuy/a4GDmbtvfktz/3Wb6OjJcuPChnEJimDK7VUnQch1AY1Ls0NvphDtcOxH130WBQR1hiaSxppbogcOk+fwClK6mQHd2LVTOzsITHIwYYLL5sICAVFrSOu5LW0LfcMgKTcCsQtTX29++W/ZvGHjpDRT99Tfvy9+UiB6PB1rkkfBxsz3UujN5SulCcsSFqpodYdo2nynySeoReoEi05i1r11HjW6ITeHl1EhZuwEqFzSoi4GtBSoAxUKpQAn+yZlagNE001QhJXgoOPTdjI3ojGsJGlnk7BquoeICOlHFrUyx/V8IVz36TIQwqFsX0PAZ0aqG/estGfP1b2aWjCLopzD7B4yBVWRDZ/aBldIeyNWAkMm9RGsiO8bYvcZNNVZDZ7WcO+VgatGnzOlqfWZNrQJKoCJ9TemeZv2sGp4PU0k63YUlv9Os5ilnYRA2uKxYfv9DnQqkfcox/8ffmzXEnXCFkh9zeWtVEhGql7i15dTfRm/5UUp9ZjzMVX9xJwqMnWGbMwh3VOWH1OoSwc3qmG/dCTmWlq9Ha2Ai4yt9iQknV8Mgn/TRLLK9lpqkcrRpodySbnBGEfk8owWQr32qRv/X30vukNicJu/grty28CGEP5p5GQax8FpCB5Xkruf3RzLXHpSm+BqQ0RZ6iHkGucjfDKilmch2M8FWtHKZWJ0VXk7khkW/TZP6MA/2bhMBHKO2Gu6bbJtJQ0lDoMY1WdlWcIJQwfQNFjc2okaLZtWDGsjxWo+srp7f78kcK3a4T6rAnKj+cP+xjlabOGUHVmiCbX35N8u/15+L4QQnv9Lwq1x5HVcCNi1pVzvq0fpav6KMMKP0fr+XGnGHXkhj3O0DRahvBZE8pPXwNkURW9chzO4fADUp4ElyXnVO5CV2fbslGGrLWsnIlTQ1ArfgbjD1DuB/G376P6SmqPdvw+Qa9YFQgaRFVlkzBJ2YmwP1wOH7j4+eylN/ZuSMi2TM0w6WlsfI+RV0YrChgag0DLTuEtv/FkZ0b8XzssC1otLRZ2Jrk6KVGmDcrQVgdXPyRIp3rki5k2zh1BKep6f8kKk23TvDEsgRLy9Hv0vqvu/vr+/Xr+GIu4I7Wc8dksA3b4XRw+5f24+2pklDGYZc2pOM2y2mHaUcphGqHkqAGlJjEj/A89Kevz2sl07/GryWlIS8KK2OWYwDRZvwKXBDaUZjaKGZIJ4U2AEgokA8T5aWsdEjrMoXWoJCukHn1tvu+2sQn4+e2Xk6E64tp5SzfmpHlqiR8G+VKvr3teSsCtBsMFGhRr1NpANGjDXZRkrhO01kMJBNaZbmoO/dlLNZS4VwZaxsMuFO4fig65J0JwtUtscItBDgoTw5m1MqlAtKM6qjlUeSiwTzQ4pBGflgB+0ZiZffvglhwH//zQePjz1L0necgkNNlQ2rUBIef44xeQHtx2yAK4y8JFUKAVJiXpJ6cGoiwlGUFc+9RjVxetD1o5DHUvibIEJ5t5czH5CgnHavOISWK7DbTXHNHI03EZIiZ10tlIh5LE52NZDlK6t06IHGo2VKyZfTneje6332RB7bOvIytMYt/t508lSXG0QEiJivsflm2ihbu2g/bv+JimFqkxjMx1aL2qfvWFNI7AVhYkABvPDjJtGoJCr2FoWxjOlgUlHa02tVNQEsRMlIy2j1LJQoSnJRt1K/+h42qlAuuRWweHroHVO6CXODYKfv0Xs5y1j++fh1dqtxZ+MukFA+aH3x6KXSVUkpIhavzz8+3Xa81VOmsXsOI1Y3yb9tXLXXEWjTWWKukCOmJVYJoVtdzVJfjhYbuIPXl2KRe4SNSNESFlHRAXs9/SFaQce2XPjxYUlLe6xCAYQsNJmDzrUIiYGmlmo89rWFgJOO9mtR4udmnYwmZ3FuwJkxVy74jQlBBgRf1JwP78vPpJGbZ5WTplkv6rn5KCPtS075gTJoNDT0Ss5aSNiKka+F18NMy+h7FWbmZq9rn++pf1qmlRiYfz8esvZ6qVJoA0Kz7l2rIkRCvNGAKkRIuEWGUWyXH2ZCnjDtcvuYwP1Msvt0WpemL25wG5ZiZJIQ5vNuMaqEja8Ic7kv7VH+OhOH9mS7MzTA7OqkqQQmnK5+opfP2QwFTdVlSz7YBOJQpsYogzgqYd0mUW9m5XNeZgH8hHZ9xkyATRvrE/sukEAvBvYh1N6wOtjJ5xzr+z7glTLLW41dyaGsgbXK5hBrgX/L/sf5lKOC/ZRrOx7Ufa6N1dGRLhxr3KtWk/vCnevxnhsjgjSJmTBdXK5wWK497zFXxWswop/FYoeNH/YTQ7h/B3FUo9d4pmlTWLzS46CyEWH53UhehoabhaJDGRdCkKmwdQkOj9km5NnRXRh3HquXPVKUa2F4qb3zPWHB/VqtBXh/x9UnL3P9vzZqHM5Vqqd0OQgvpDW69fHwJ9u9tYKHRk8Wn7R5lJMtrw8XzBEDAywaWR2wq2TH0dw2rFBZlRXi9Ix0K73OLecGl+B0llPiTxgaviVA+F7ozGxlUR+y8lVgEJdOll1+U7CJ9+lU0AOvEc1wN/Vp0Z9PJXx/y+MZHv+mts9maiwhBzlVlhgNNaH1Jyx719sR73uldubb3SHLNOXL0wz1d+dyEhKYtEIurr52lMRLz4iZrOmVVNN6yZGPulZ5MqUgqkJMzMwVfCJVghCvUrInQtoqwbLrpRWSpQanniBIgxT3ZNLARMdL/LZnwbyIhxPwZ9X4r1B6nvfwkClk3kP/cld/vsytsOwjDQ5GKjOFm/Pv58+xVPv6P8fb++Cnal6plT05R1K/AEok9DJ1sz61i9hY+KZlkTVzknamJnedGLkSs6Z6dc+m3z2gmTo5rI8wnsLoFWWKNcr1QIiiS1Ny5qj0AhVGowDfykpiGSLHlg/PCs/cP3t89viFjo2VE4Sq0BpEZ/CjgApi/nIqPq/Y+/6edj4n4bqXSVpPV89aSUWhGyLvdSK+qlrmlWuT5EqkN0FXX0Of+0jsZl7Y07pLkWSK7dNyajaSAnJCbf2RKcx+XGTfpN4LQ5XhyqQdjUak4dl9BrEjkaIGGXcO8fVwDyiuU//W698Gvz3g6ffh7JClWqZlZJnA2WLYwPDPxx+2PB3sGfP9plKiMQ5zVEqcTDvJds0RmXwuiv+oWDucOGYmKyM0qNvJ57zj5MIPk5liGcb4WIFkRLGckHwar0/PmxgwcGK2Re1Wl2vZvGAWidocnPycxbjxc6vGAx/7muu0T6YBdx3MHefr5dY7lrwLs+ICtpR1rVTZqbsxTNWkfTLkigvtsfFnAWd2aBX4pzW5JjlZckig4tPRMnRCjcblPj15edMgRYzWhphxPa3uaz9J8lYfGgX7FNl9oi+QUhrYVf1pIfEr26zswOCIw6yckisyqS8aSlTUlXsN+pMRFQP36TD1//9Pt7/jDB+TzHac59lm9e9GXY160Fh94jZiItVUJmUn+Gt5+kULey/9z9WUq/ZuqH8de0x5xjWLLIdLk1/aWbrg6rp5Zo/G3zpBAZYE2VKT2JBpbYdGGTZihs9HsIlmByimwao3vigNSAHRP4DRGjMO0yY9yA1rJCbp/jKs/v/rMpENbPOcDjP7/2FgwkdOwnbi6ZwlgbmoLyT2cp0bWx0eYWorQqmPTpWzpI4mrpZs+r5/xyRCiqqhDJVyOzY4ZljUG8ip+2jnapibdlN2Xz1RHEiHoZoikiZ2CdH1xTLYjBeANVr9Sn6TI7+XrRWAaAjO1oBOPWJ3dUaGbYen1jLlaCyS6g1wczOO7jy12DHz54F4YuJ6SCXMyZ1n5nUAuOw0Sk04rNWd2EhKLLCaXrwzB+bdDR759peduIJjMd1ZGLzOphMAHmfTyvxOA4m352K5eF6LKiSarUsZqQMYKSoEyJBJezTkmjh6XnrC2pbdPCxOvO7pwM6zQR7v76DRstAE6K/J59ai6C3XYx+D5aeP76iTqucriwF3/6C1Dj0EECXC3knvLkJayOlBKglSbwQBgo2xz+n2Li99FOz52ZztF958gLQvTVqZGMTBGNhLjDJoCe+kCkodTLqtGoyzYtsKIFSoIIYPYtm+Vj9GCNqLMOhGE2EuOVNGZO12l/gwwP+wFk//Etsp72ZEojrtkKKSpZXtGJjGMManzVOet7iuiVT06GKkLS1KZUDjIw+ZO0nGYiWXt96MbQ+hMdqD6h62mrukaKu+AWmq7tp0XdWNHLJJVki56mSo00V9QZqscOhZcHzUbOtajZJYugMXvVzw1MHagyKZSPBdgAff/4O05+PuDPQXpVYkr9lRI3aBsl8e6PwmGX764lgwCzJGMp9p6JXQOTBMKfpypIaocXXRS4z0p1k63MzHqKbGfn4BhCR/S2b7jcp6OtFjEDmRcJnvpTQLSloDSQT3VGqE3HiCFXt40smEm2adaSGiLrHHlVSrntqU2/YeNnMjpHuHI1gPZDV+hgI5hI93a0zxw1LDmW9lXXseK6WXIxggDJk8YMAEzdZQcR/iZ11siKqGIoYalttMR6fXOC5Vi0uUAA/vPRfqGNr4bDrDXnVCoVnTq4IyAgMOusciOU3j6QeSUBJysW6ROqFtdsFlF/MyyInt3mLJ+SqJ9a7gbgFKPTaGpv0RqRWk8793z5O/3+wtvPz/0vtwT9u5RJr7P2Dq194oAAdmL+SJlf9RJnAt+mwR0FG2DviXWzO9yFLQRzQRYpNL9SscF5Ckcb1J/+Lay/PbdHYDoLCYqhZWYNYQHqjgQcJBXPvZ56S0PymLdDTV9gmq8dnboN4Hyn/yfoqlOKVEhkk9S1jNStAEBzyQhioXaEkh7xh1u+f7nD/3vrX8lsnOO6Q0ng4h+dppSP5zdBbMcN4aZjaywyEO7vbbFDsWfw5hNrdVfTml6oPtcyGuVBsP12v9//H66zFCXjN8ABAAAAAElFTkSuQmCC;" vertex="1" parent="1">
          <mxGeometry x="20" y="112.99" width="108.62" height="94.03" as="geometry" />
        </mxCell>
        <mxCell id="kNm-ANeQV7d39zhUVkQm-3" value="" style="rounded=0;whiteSpace=wrap;html=1;fillColor=#dae8fc;strokeColor=#6c8ebf;" vertex="1" parent="1">
          <mxGeometry x="170" y="80" width="30" height="160" as="geometry" />
        </mxCell>
        <mxCell id="kNm-ANeQV7d39zhUVkQm-4" value="" style="endArrow=classic;html=1;rounded=0;exitX=1;exitY=0.5;exitDx=0;exitDy=0;entryX=0;entryY=0.5;entryDx=0;entryDy=0;" edge="1" parent="1" source="kNm-ANeQV7d39zhUVkQm-3" target="kNm-ANeQV7d39zhUVkQm-35">
          <mxGeometry width="50" height="50" relative="1" as="geometry">
            <mxPoint x="330" y="180" as="sourcePoint" />
            <mxPoint x="230" y="140" as="targetPoint" />
          </mxGeometry>
        </mxCell>
        <mxCell id="kNm-ANeQV7d39zhUVkQm-6" value="" style="rounded=0;whiteSpace=wrap;html=1;fillColor=#f5f5f5;fontColor=#333333;strokeColor=#666666;" vertex="1" parent="1">
          <mxGeometry x="310" y="80" width="50" height="160" as="geometry" />
        </mxCell>
        <mxCell id="kNm-ANeQV7d39zhUVkQm-8" value="&lt;b&gt;...&lt;/b&gt;" style="text;html=1;align=center;verticalAlign=middle;whiteSpace=wrap;rounded=0;" vertex="1" parent="1">
          <mxGeometry x="261" y="137.24" width="60" height="30" as="geometry" />
        </mxCell>
        <mxCell id="kNm-ANeQV7d39zhUVkQm-10" value="" style="shape=curlyBracket;whiteSpace=wrap;html=1;rounded=1;flipH=1;labelPosition=right;verticalLabelPosition=middle;align=left;verticalAlign=middle;rotation=-90;" vertex="1" parent="1">
          <mxGeometry x="280" y="-10" width="32.5" height="132.5" as="geometry" />
        </mxCell>
        <mxCell id="kNm-ANeQV7d39zhUVkQm-11" value="&lt;b&gt;&lt;font style=&quot;font-size: 13px;&quot; face=&quot;Times New Roman&quot;&gt;K&lt;/font&gt;&lt;/b&gt;" style="text;html=1;align=center;verticalAlign=middle;whiteSpace=wrap;rounded=0;" vertex="1" parent="1">
          <mxGeometry x="266.25" y="20" width="60" height="30" as="geometry" />
        </mxCell>
        <mxCell id="kNm-ANeQV7d39zhUVkQm-26" value="" style="endArrow=classic;html=1;rounded=0;exitX=1;exitY=0.5;exitDx=0;exitDy=0;entryX=0;entryY=0.5;entryDx=0;entryDy=0;" edge="1" parent="1" source="kNm-ANeQV7d39zhUVkQm-1" target="kNm-ANeQV7d39zhUVkQm-3">
          <mxGeometry width="50" height="50" relative="1" as="geometry">
            <mxPoint x="230" y="170" as="sourcePoint" />
            <mxPoint x="280" y="120" as="targetPoint" />
          </mxGeometry>
        </mxCell>
        <mxCell id="kNm-ANeQV7d39zhUVkQm-29" value="&lt;font style=&quot;font-size: 20px;&quot;&gt;&lt;b&gt;...&lt;/b&gt;&lt;/font&gt;" style="text;html=1;align=center;verticalAlign=middle;whiteSpace=wrap;rounded=0;" vertex="1" parent="1">
          <mxGeometry x="510" y="140" width="60" height="30" as="geometry" />
        </mxCell>
        <mxCell id="kNm-ANeQV7d39zhUVkQm-37" value="" style="edgeStyle=orthogonalEdgeStyle;rounded=0;orthogonalLoop=1;jettySize=auto;html=1;" edge="1" parent="1" source="kNm-ANeQV7d39zhUVkQm-35" target="kNm-ANeQV7d39zhUVkQm-6">
          <mxGeometry relative="1" as="geometry" />
        </mxCell>
        <mxCell id="kNm-ANeQV7d39zhUVkQm-35" value="" style="rounded=0;whiteSpace=wrap;html=1;fillColor=#f5f5f5;fontColor=#333333;strokeColor=#666666;" vertex="1" parent="1">
          <mxGeometry x="230" y="80" width="50" height="160" as="geometry" />
        </mxCell>
        <mxCell id="kNm-ANeQV7d39zhUVkQm-39" value="" style="rounded=0;whiteSpace=wrap;html=1;fillColor=#fff2cc;strokeColor=#d6b656;" vertex="1" parent="1">
          <mxGeometry x="390" y="80" width="120" height="160" as="geometry" />
        </mxCell>
        <mxCell id="kNm-ANeQV7d39zhUVkQm-40" value="" style="rounded=0;whiteSpace=wrap;html=1;fillColor=#FFFF99;strokeColor=#9673a6;gradientColor=none;" vertex="1" parent="1">
          <mxGeometry x="414" y="100" width="27" height="120.5" as="geometry" />
        </mxCell>
        <mxCell id="kNm-ANeQV7d39zhUVkQm-41" value="" style="rounded=0;whiteSpace=wrap;html=1;fillColor=#66FFFF;strokeColor=#b85450;gradientColor=none;" vertex="1" parent="1">
          <mxGeometry x="460" y="100" width="30" height="120" as="geometry" />
        </mxCell>
        <mxCell id="kNm-ANeQV7d39zhUVkQm-42" value="" style="endArrow=classic;html=1;rounded=0;exitX=1;exitY=0.5;exitDx=0;exitDy=0;entryX=0;entryY=0.5;entryDx=0;entryDy=0;" edge="1" parent="1" source="kNm-ANeQV7d39zhUVkQm-6" target="kNm-ANeQV7d39zhUVkQm-39">
          <mxGeometry width="50" height="50" relative="1" as="geometry">
            <mxPoint x="380" y="250" as="sourcePoint" />
            <mxPoint x="430" y="200" as="targetPoint" />
          </mxGeometry>
        </mxCell>
        <mxCell id="kNm-ANeQV7d39zhUVkQm-43" value="" style="endArrow=classic;html=1;rounded=0;exitX=0;exitY=0.5;exitDx=0;exitDy=0;entryX=0;entryY=0.5;entryDx=0;entryDy=0;" edge="1" parent="1" source="kNm-ANeQV7d39zhUVkQm-39" target="kNm-ANeQV7d39zhUVkQm-40">
          <mxGeometry width="50" height="50" relative="1" as="geometry">
            <mxPoint x="380" y="260" as="sourcePoint" />
            <mxPoint x="430" y="210" as="targetPoint" />
          </mxGeometry>
        </mxCell>
        <mxCell id="kNm-ANeQV7d39zhUVkQm-44" value="" style="endArrow=classic;html=1;rounded=0;exitX=1;exitY=0.5;exitDx=0;exitDy=0;entryX=0;entryY=0.5;entryDx=0;entryDy=0;" edge="1" parent="1" source="kNm-ANeQV7d39zhUVkQm-40" target="kNm-ANeQV7d39zhUVkQm-41">
          <mxGeometry width="50" height="50" relative="1" as="geometry">
            <mxPoint x="390" y="270" as="sourcePoint" />
            <mxPoint x="440" y="220" as="targetPoint" />
          </mxGeometry>
        </mxCell>
        <mxCell id="kNm-ANeQV7d39zhUVkQm-45" value="" style="endArrow=classic;html=1;rounded=0;exitX=1;exitY=0.5;exitDx=0;exitDy=0;entryX=1;entryY=0.5;entryDx=0;entryDy=0;" edge="1" parent="1" source="kNm-ANeQV7d39zhUVkQm-41" target="kNm-ANeQV7d39zhUVkQm-39">
          <mxGeometry width="50" height="50" relative="1" as="geometry">
            <mxPoint x="400" y="270" as="sourcePoint" />
            <mxPoint x="450" y="220" as="targetPoint" />
          </mxGeometry>
        </mxCell>
        <mxCell id="kNm-ANeQV7d39zhUVkQm-56" value="" style="edgeStyle=orthogonalEdgeStyle;rounded=0;orthogonalLoop=1;jettySize=auto;html=1;" edge="1" parent="1" source="kNm-ANeQV7d39zhUVkQm-48" target="kNm-ANeQV7d39zhUVkQm-55">
          <mxGeometry relative="1" as="geometry" />
        </mxCell>
        <mxCell id="kNm-ANeQV7d39zhUVkQm-48" value="" style="rounded=0;whiteSpace=wrap;html=1;fillColor=#f5f5f5;fontColor=#333333;strokeColor=#666666;" vertex="1" parent="1">
          <mxGeometry x="582.5" y="80" width="40" height="160" as="geometry" />
        </mxCell>
        <mxCell id="kNm-ANeQV7d39zhUVkQm-52" value="" style="edgeStyle=orthogonalEdgeStyle;rounded=0;orthogonalLoop=1;jettySize=auto;html=1;" edge="1" parent="1" source="kNm-ANeQV7d39zhUVkQm-49" target="kNm-ANeQV7d39zhUVkQm-51">
          <mxGeometry relative="1" as="geometry" />
        </mxCell>
        <mxCell id="kNm-ANeQV7d39zhUVkQm-49" value="" style="rounded=0;whiteSpace=wrap;html=1;fillColor=#fff2cc;strokeColor=#d6b656;" vertex="1" parent="1">
          <mxGeometry x="730" y="80" width="40" height="160" as="geometry" />
        </mxCell>
        <mxCell id="kNm-ANeQV7d39zhUVkQm-51" value="" style="shape=trapezoid;perimeter=trapezoidPerimeter;whiteSpace=wrap;html=1;fixedSize=1;rotation=-90;fillColor=#d5e8d4;strokeColor=#82b366;" vertex="1" parent="1">
          <mxGeometry x="740" y="130" width="160" height="60" as="geometry" />
        </mxCell>
        <mxCell id="kNm-ANeQV7d39zhUVkQm-53" value="" style="shape=image;verticalLabelPosition=bottom;labelBackgroundColor=default;verticalAlign=top;aspect=fixed;imageAspect=0;image=data:image/png,iVBORw0KGgoAAAANSUhEUgAAAV4AAAEvCAMAAAA6i1lMAAAAAXNSR0IArs4c6QAAAARnQU1BAACxjwv8YQUAAAJeUExURZ6enqampqOjo6qqqqCgoJubm42NjZOTk5qamp+fn6KioqioqK+vr6WlpaGhobOzs7CwsLKysp2dnZmZmZaWlo+Pj66urpeXl46OjomJiYODg5GRkYSEhIWFhYqKipKSkoCAgH19fZCQkLGxsaysrKSkpE9PTy8vL1FRUW1tbWRkZFhYWGBgYD4+PicnJ0pKSnBwcLa2try8vLm5uXNzc1NTU29vb39/f2NjY19fX2hoaHd3d6mpqbi4uIeHh6urq0hISDExMVBQUHFxcaenp5WVlZycnJSUlIyMjF1dXXJycjY2NlpaWoaGhq2trbu7u5iYmLS0tLq6urW1tXl5ebe3t2FhYUJCQk5OTmlpaYuLi4GBgXZ2dnR0dCoqKjAwML6+vktLSx8fHyUlJV5eXmpqamxsbL+/v4iIiENDQ3p6esfHx3t7e1dXV2VlZWtrazU1NSYmJoKCgnh4eEVFRR4eHklJSW5ubnx8fL29vT09PWZmZk1NTXV1dWdnZ2JiYltbW35+fi4uLlxcXFlZWSEhITc3N1JSUjk5OVZWVkZGRsDAwFRUVExMTEdHR8HBwVVVVT8/P8nJyTQ0NCsrK8jIyDg4OC0tLTMzMzs7O8LCwkFBQSwsLDw8PMTExDIyMszMzEBAQCkpKTo6OsXFxRwcHCgoKM7OzsPDw9LS0kRERCQkJMrKyiAgICMjI9PT0xAQEBoaGiIiIh0dHRgYGBQUFMbGxhkZGRUVFRISEtfX1w0NDRsbGxEREQ8PDxcXFxYWFsvLyxMTE9zc3M3NzQUFBQMDAwsLC9TU1AAAAIbpz/4AAADKdFJOU////////////////////////////////////////////////////////////////////////////////////////////////////////////////////////////////////////////////////////////////////////////////////////////////////////////////////////////////////////////////////////////////////////////wDP3C3ZAAAACXBIWXMAABcRAAAXEQHKJvM/AACP+klEQVR4Xl2dy3HjPLRuu8ohOBwF4TSUg5LQ0MMea+i5R6fqxHXXWh+o/s+FSTz2GxsbIEhR8p/PD9Lnx+f985P8g8zmx8fXDqB3AKLvdw5OAJQ3wBBIf3/+PB+P5/P18xIK/OsLSbfn7fZ4PkYo/8f99Q2FmuCavmmrfENmxV34/f74vn3e0Pn6fqpUM8giiq+GvJ07bGdICRD6q5EwDckX08Uh5gDp8+n82goe3AxefEIl8FcwCIXdUUPtQPTY4/NPjSk/YlbU8rjd1KNJnPUN6tmSq5F5F3J/vF6P/0jIxHoi++3+uCvr8fN9G0qayCdrLWnNA6bi8bgj5n5//fw8Hg+BjnLWT0R01FR1JJHVS0f0oI2TiOedcx5q+Q7hssqLTBI9J639p0WGgkN6SE4OyIqDiJ25V3aAjEXSY/VPuhvRg/uwNL777aEhhaACOPLV/XH7F5doVyRnjv/8RMj9+fmXzt6ez0e2fv1NscTxqCulBppFB6QPAp5Z8PpmbtxUQBBbHhMUH6t9l0OxCqgyMsslvRz5xSfpNJVB7MAMlzvsixSiggtQtXUAeS3S+Mdsgu52c3GgPg1QxUh90pnlBK/ADv6IQrW4Ojxe9w9mvuSUdFk7TEEs6TAE6L8jRPznDe47zkmDmrSNYkrNda8VzSMEPj5dcp531x4mByPlWDOUWZR2uTR79bjXFoAJVBVbcaldw2YtaiwJNYPOX2H+eUx05BFZlssYJccZbSr2nJD7Q/PLBUAaSOz/6J3BLlQuAKD06Ofn94MWIYA76TElTrsRj/K6EFlYV1TsWWe1Ht9fuPaKJ47mi3gzFaccmDIo77evz+fz9ngQvqzkLFNbGXAvhI6dUeCcUmKMnAWxrX+xZJmfrzoYlUWfzuqu0tY6r6OWSSpt9wCmY0wRvEnUgw+aYLez9orIoR8EZxoEw83l6b3cSP96tFCsf4Dp4ScXncZNQGfJipKsTgQD+v2Nk6yrIJaOlbGGMSCOUv3PzGBNeT66KjkV9LB2GJqFAW0KLVRQgjU42VYu0dp5KIAtV73Y0xjA1uhqiRLR2mICOJxV5Uh8qAQVBHT7T62aiumMmoIF9eebC0vipGdWwqKzDBwhBtSLS3rcccnoKcuRrR4uo07v54Oj9QJhRpnHQhgtqUjbmlfv7u5BHkToupC6ee2kBCTt9HF+EFR5MstTt1B8EQDAEdUoJZcEWp1YajPm8JO2KJSkdXrKLCrXaOUN99qeKintIrCC4f78fVn1TyK4NzlT4lVOL7ucyK4gEblug4sJIiRwejsQRKKYk6JV41hXy3WyjdeFhYR/RQkzfuuApys5pczFuirlD1CeKItka9EqBymT/RvASrYPaU6poGWCzFLVGiXVXOthyyLTdmlzDZFcVnmXoLq/mPde4MCbG70TkAQv6cz1L65swA+UsVj0yKIcB0ef3l1ppucYE4dMHSkduO5SKCW4Lm7ZEsSVjquGTHNqJNWSxDljkr2/UzObJwexsF5tkGBWNkQ7aNaXGtkurACV5TQ79ZHrl2PM4jAw7CskyASdyergsNRbpdNF42h0SIBAOXg3wSEmr7G14YFvJYClWcEEjj7QPDSVgZQBQjrrEyRQ7i1Ir5f7QDguhvE8mxYKlNWUjNgjrGbP6KtNF6egMUUWqYDj3moCFhXnoD04UAvbQqhRxWXP79tfLggfZ+2t+ws5WnnShAVuMPJBvM7Ez69AuV65XtuTL/dxUoMjjBb6iDYKhClFZa5b4QS3oB5SDbF6KINGs+Xs8/kQx6xb4IA0ZQi7kvX2CBCd5NEce670DyYL10nXsaWQnXUnamEelbYD21J75cDVb8/2kKRuihuaSMcxqZva7le5u9t65zr39dddh73TKqhuv9/y/Z90bFEYdfcZbEK4qDEw+WXaxEZr5y7IQLUU0spFnbs3OFl/vz6//nKte1MUydhhdNemOlZI2udEKkVQDyCWQqzZF9MI+3MQc5ywcr20pmi7EW8zakQdNlpCqeDenBtGCLWsUE4JqIgb64I+hccdXY42yc36W03hoA6XRRAv5l6VHr/fTy///5WdZaZsMNXTcBReOJLFyV2fDNn45W7F6wD8+k8YwHhrGbWyxWEtKWRKzgOGjhSHstyKf/GRJs+G8RduTRkKNepabxYikoS2tnwQvaNGmDMuSsUGse7Vy5sIx1ggGyx6Aqm9SxhpfTAzQaZSdUXAsvlgR/b9TfROxsFaHhLBZlq1oApsBTDO4LqYiRrJFZdBZuPCcLWdkBpWPetEYfUpEvqbEIsmqTOzvA4NL8Fi/DRMudQU6Xpodb2Vzr9rmWM9V4ZUJuaaaj9wrzDPJze5pQiC/eWqvzVW/iVXBMcuhfq9aJBNgWYoe0stsnDL96/PDLTZhTsdZPYphvXXrguNGTJVJBquFzeMbOqM2PvTmz9uFpHbAznVSO45gyqUC/8IjlIlKnOVk9Hkr/DZ7JUknHlWjKdpdpJmRXcyBJSEMu7rUWtvpF6rLB0QhLjf8iJL2DQQDY0h4aZoc1LN9quruCnGGZVMC0+W+u/XdbvtHi2UWfmMjkPXxLUjvHQPbvcYaUKWzZ1Plfgzx8EQYcMOAawa3ENjPkIVfEk6sdpIHrXhTuuiWHWU+sK8ZGhYHHRsC7lj/tSPxqWDxMYs/ovR+n+SIOIcsDXZDQVdamfytavF9SgWMVN8CbJO2EPx/fDxBeRniZRIYgltX+ubLbspUSNd0lx3110enU0yK87u6FhBtS0YTXvXkCdMaipVtcliKR3CwteuFSqqU73IGrAqQ5ErXojxpxwmjlMrhXOvJFXGbalxhYlxqoOzXP4xZK2X6xtXrN2QQVpkLJQTWgtlTxZs5XhDLFxEcg4Vp9YpO8RgenyyYPri4uYWz20IuukGC2/1edWNQyYy4K+tYD4gISlWg5Ncu4I0he9csgs+0Fp2P1OXn/7ZtilZVXuIngcB+fzWBDdm4cLrLgUc1vvj59UTB6a1JGfi2iOSdQbKpQKIPUT4uFG/hd76X41Dhr4yAoB6RKtUZSX91Fczpy5M/8F2MyBYGR6sVQwYun0M4eV7y83dZ/lGAyer1+3ONHk8vNWYVPMStaSGSJOGpbRO2eMw5Vc54Mg03ziyuWuSezEb4gyilx8t5N4E1GWSjqkiJwvm8w63TwkyG7pE1WHXOPr6cDE8cAqq4zYbsWBZnBBJi/RiONURYlDtSTnAUjPeRztoxAdd4vRvnt9C99IOo0eMIw/MXntHrhglJU+pVqpGdXw1ZWValKiRbWMQ0z+q4zSGg3yUIYkt1rDvF+3W3mib2PEfIh2IfFXoTVvRJt2gANoHYU14eWNL2imbH9Tsg4lYwj8FlKDFyWFafSBHzso12Ou+TnLm4V904kN97WbcudP1zoX9VAl3yanopSKMiotMZk6lNXMBoxh2bXvgvOjQEPufm/2L7f9wFkDUvv4SRFyPVGb0RnvkQBaLRuvRnq9zj0enWiNIWI0myT6ePzisaZ6QBnIka526GT57fP98v1ilb17U/1FGNxpHIvgZEL1Tzz5ZpZTIvM+zLrusDawIUrZDq2Yw6NSz9BDXhjKsukZLjuA1JLJSMTPMKA7F8DUuERujAw5ur0+bILcDgIgiDTkbs6BTvd5IbyR4yWAtIUxaIwzpYyPyvm7fXHFsTJGSPP7VhuB0XG+uSI/Xz/ed/bQLBWiwoo4A9MVUPAqkGgCvSdRqJE7v8oc5BUHLrCxryObsqwuSXYKOzHVvfx2FiyBVWU2Alqk1D0oXcPgQphGj2qWCsG29+kscMFm/b9wUy37Ij2Gpk8xMiw1hqqXgCqVk8nR/mo8uexQVxSyo0mR3Nt9Z0ve8Q3CrB1WzEXbEiTobBVVVYVyRsV+X7cLmmOPr3K6zyfW+S69HCZBBoWAueNldXyYS5aEGwB5qZvZulliu8zQ0+Bh4ecvSu34j8/H9zboLXgYuS39aja7R0QrowGK+CzfWPfycoc9wZNElctimpHj94PtxXYXTRYkr5OkihHx84uO1GjcGxhBe0shRn3aVuZeijDDg5k2/so1oudKdunwbNn2ZaBXlfkEAQCa54ZRARUlUhY0Ugqsh/PhiTZzhGlhz2T9KM2smuvT9ze3p6+6n4lD2WZvT0xKCciA6My6ovIS4H9KeJAsm0Vv2s/fXbvsTILe3DkvJqiJU+hs3ty2jiCXUQGmmdBIp4ZoCF3f5SVDjNG8TvXTgXD/mfJ2xR7Zrl72CzpnibWLONpilOdceDkCFi+jmh8Nohxnvo3LjtAYlLrMlYKZUALOxNpPreX8w/sQA64N989LWZz3h7U4yATTqmITGvx9eOFz/lDebWMT9kMaOJF+nHCHKmI9OsuUEdUf4/bvt3ihMK6ZZHltWawvWYxJzsjVDux+95dkXla0WRqoXPW3Tz8C4ubBYP0RxjUMpYk6Iq84sJebpWd3sIEuf1yMToXJHUZOWQ0ODNQuVXz4Q1xC0nM/awlqR0UPY5Djm3Bm7HigZeNK9UehjNkQRhvIeCRXFySJJPxLn3qgysK8XNyuC3/qsnboMXZc5Qp36aTGpcK9PdIhZ9LLMeaVzWeDcAbF91NvdSBoB5UiXEHgXu2PC+ljlUjnEDoEk985+SDIro10h0VRGhx57i+YbFxgk/1kUuXc9M2desXFC1QquBbdRB+J8YndGH4kY7oh181lGQ1pYnwFdOHsQQNCx9vta08F5Oh3HIXEiBghNavY6dYFhwN39HXMVq10WgJX0sXWbmIozWTCzWRBs4NsnNxN9s6t09KxQe/5I0/RaZZIQTD9v/x7EoaSaY9Yr3OOFlplF/U+umhOlPkzqEAEf9u01r5FprFL5w1CuTuLZuMEIhbLMEpqhNiPlCuTixLJ0c6+ho6ZWEot1LOkA4j8krYdB6fNf9ip97vH18XyKz7GL3ej1J8S0U1Gh1a7Ou2Cr3KWCyuRmhxUZV7czaybTxwNeLCW6SCtJiaOOkwZ3ShFzSGVx0JqL9FTjnxBtdsp5JROSYaqVqrt7ajiY7uKO0ShmAhKBV4m2F/fYjioWEj/eX3G8FV3UnAoe6EBrJJ3Dy6MADbp7vUWKkpr5pkoozrZBZCRSgoLTWPGO452MGbUfbdNbOiHi4jBMo2Mlc0bp6Osdb/pp6WVcQkR9frExs2HSAMkr48wwndWiLUttUlrTEAaJxIWSRFz8M1kxLrlM6W+uqj/fN6+K22lLq/ozILZT/5+iZOmjfaC4iJI4lKPA1Cacat2MAWfFwtYcDS/8gHW07WwEWr/rzNGiU1oSjyXnFFXNxSlOYQgKYybHSnuPlSy14ogkP2s7I0QmpyRxBMGG3OvEO+69oAAMQXtk4Ap2iaJQ65udHKQfBX2zYrJOfzOoIqeRpF9sB9GDNJfgt1PWKJaOAYVqV4RKVmHC0fWB1qL0uDNe6vbBTAdTJrR+zBCpqKpfm13RhQCLo044hQJljK6u0SD5FJoqPniwN+OiZBz0vHfkIpVvZj6QnaCeBv5WYiMzq107DrOLU6676YJaaNGm2mCxsfOKxoLpTXFj64xSh6QqUd3Vrr5aRBxf+qdaqntCijJzyPKmjnW9dbj/LQzs2rM3vwOwtJDjEr4j4cd6+3qwGxDrU1WUH+wpXWnYhOsmsD1onKyvy70Nm/TlibX+eCK9/hfiWAXQC8TN6wr+cs2VRQ7DyqHUmEw5ApXTvaK3rkpjhIdOF7R01yUGLYPEuCv3RoF8ndKVTByf3qtHw4DqrflPUR4LVOVJkVGADa3jYAVOF9l0mgSeVf7tRQ0sV5aTB0SixdPgeu1FBfsfz4+/X8SuzhR596aYqrJkkGfrD2i88gMlsFwrtd4BhYPrp4662BQYEmFeNWhNDHw+ZuBGiwXYceUupbgbwdjy/LqtgBaAHflTQUeLvWbv4b53N2oWdtvT1slGmS2yLn5tRQgRWItd7pNuSbLH5Wo1rbYrFtVAExATN6K7o/PTbM6fx9+zWLo4WBndYVoPHBUuRbZp+HGOyxvmeTsBiaTElvEg0xFhLWPEH5iDcPNu1kH2MXM9KjaTnQFbxrtLSEi88avz0EyeOHrRHhZTMwrmBpolsAcRC2F2gz7rM6Cdc9q6OElMJbJS2El+bFbdf8Cnrq3DOqGU1cD60icasU/FbK5bET3f7uUw7FU513D6wqh+5OLzZCePX31j2udd70XK/qg3VqU49OAcvoEldSe/+wAvcXcudM2C9SvFEWKcr6hisk4QpAhvhCSbRIeXwq0KXclpyLewZySM9iL6cKNtpbgApxmkOkf9nTRE5atPaXVrhYB6L8D+PNYx5DKY7HK/n9D5CF+XSDQ29r1JUBAdUMtWB+YRXnFYWFM0lq1qr3Kc96fk5u763A/Xe0vl4JpsEBzK0GSM1Oy9G8ZgwfZmIS0TCN0Cbh1QRd5PXFoBYiNdcz7MrQa4rj1udhPIKHnRLbjIpWDUMJcFUjGl9OnuDK9+JTVeSocUMDp7OCx/uJjrUBcioIur9V8q3NtV48hJVn5yD2CY0Ns9+3bfbIcYoYIBWthASxX3/Cs83ZmjnjcKiKtft6bbxoDUolAybDNMhDNJTpIqTdbcw8WFs1xGrqC0mBOhNNPLmAmXz3mUg+0+gkB7zwISKDP0ZhghcAGe0eBti7vakTQIguoVxe1BVVE2YlOPu0QoWRyUoe0yR2JduZxt576+3NJL1IXCELFCu07CsKtBio8wkhgNW4NYsivwPX+6EqTWsvyis583oxt8i0Yk8FtBsYtCD2X0q3b42MH0BthTVdOwRUik6uHWxZkswVgAyhP5sWHKrM4Ns+0ygszeEsGnFUTP1qFDPImCr0ubQLdpq0enUbpWhlxl3MtvP0JT5aYUh2VJHiClISYHMlHY5DNvGLvsPH9+2NelaPQV6ksO7dtPn7aH0gqSmSGZj+ekFj0ula1VdcgYDZHXBAhxlBfFejxWRSBSvKlAy+xllfXZph3RNI92i8nzPAFAu1p8au56r5b7n3dHE30aThWp45W7Jwql3Nlwf/hNySR6XgNRa8uqjTmnZdugc11gWczITl8yHvER5PI9n+Ak+ygofeQgzEkuBT5HerCHx1MQ6NVc21mQIk9aCtxOrm9BRg8+H5HpSHo3D02hxsloHzRL6DFQHoHadmgD0EfkJPBoJftjXBeWTvC62vgUq2+XIYpOqy6lJW862vDJszNmSD73qD5BsmzZfnw//C4Bu3D2IAALicNo/q/ipRABXeEC09T0tnj6rYmfy7gJpNre7MBcL2zlPVlJ1/4xn6ullrdgJY1ZSITU7Hq7m6na8l11sxrCRMDucOyKtFm+4fU9B90feaIn/0ignkDXbrcPdlFGMLj7+fHpbYKWTmv0tmrYqhfUfPzNxYXblL8ffawi8miwb2dloW2GbG/v2dv6AUHgJUdJu1sfiELLbTq1Q/ceXO4RZlhb23IgWbKMfn2QwkRbZhR/SbMlOQDjRLJDWdIq6EYsqRMidqgpZ2qftTVUFHFJsfxI8YQXox3tBgWI17W/n35B2IHDJTodlsYx4xJi8qMKP7J5fP8+vXN01mtDUuQ4NSOoNLB3QUz9UHFQePkHg7lOda2yE/nNGMaFQDlpZOf8CLnbFevKVcDDR+/w2SUPJSZVoGM3G4JQt2wnQm2DBAstatozHUKFv9gD7xMhbooF6PdweqTMNjWwOMIHReJaRbA5AmwkgO2364q72FwgxYjJ4FWaEQb4+fP7YFDkEBkJ54SpEdkzvRaIu5s0+0SXXDGKXZvy6K8by418poJ3s8v9RNEqptBWdmpcZJRfj+ccU3rXt8m6THMkIFOqlUOqPA+7VX8cxyQzFr2vCAL7il7XC7usf6ZOC1wAdG/BtSubAuufBK7GqTr0gShQEy1NURT2EICXIUlGJomDnoGetOcCEdDb4Q9v6OE2cV00Vu0sqQ2iS4PNd8SCbPPgIcbVu/YUZS65GpDOHy2rB7gss0RExZQRa0TT0Lj9SQV9oRI5Y+tMnrdJznffMYPDTlMxPkOtKa11sCeGVfom8Ou+o0gxsGNRyDDmsjnkbsDTE4KORJU8x6GR1fHrFxUpXLa5s5UKBz6/iySduYBaTtuK4TrPCvIvVRS+M5MAWFMQ3vvrXANMV0l6zItC80w0ukshToTNfZLP1roRpOAJLBGXUxeHI3Kdqd61j+TITGUOJlwxyAQlNM9fP65Lo4BYlFFWqxREb7bQCV9uQeVtoGTj24j4F8WNm1x2LkB9yxTneefRjmFMEOsjanrNVaSGc0GXqcBB6GhMBMKlP2C5emVVO+WURquUnSghAC743H80x3HYhqxfjmYfZeosiaI3wKsdL9tKgpeay72fXhm+v9OStLwrm3Qqwhmw17bUJe56taaVSKlXHl2VA9K4GpxKNnaeepibPxwElDjWW3BCKyVWyLRSx2WXDS0TclE4QLGUhLrFzgDjkySfrY5jr9KULExkZJQxCLGCYCRrlLMBPUbvITSFMQjoFB7PZ/JyfrEOctHXHIm5fLweMdf8NyqTljVH6ThYO/dTL9ewOTcmujNW14w19JyclG2DCWGDgAFW5O5uOOICYmfIxqL/hIh3YMELVaLlcDMNjBSkoRNQspF8CqbvCuECq69NUn4i0XtmAuK85LRzGCBZY2w/LUyxaQZ++/5xbkqM4cT+s5fXL7MoTovycKeYZl3yY/tPdIpLn8naKgcgyCGIYmRfRenj12f7xpksSTDVxszjzVrVzzogpIhCiBQgkdGf3Ro7ZCegFaF0DXKOlWwwCiFdMZM6IoUOUOlY5uguVf3Yi3XzaHxieXgHqSD5YzZuksYN5vF6ffsTC1TjMSuCTxjbjj33uvxxKWV2//gCoeCRREHukAjOBf/AnbAjtAcOWh4ovUc5eVCaeqkQkqt+Cq3IoYgw6d4S08LdXLwTJFWdCMuZDVC0KEmh3InNuccfniIEd43Tgj9y2zgkI9UWE97TcJIv/xU5GQ1h3/fBvVRHoIhiTiFBHP+g6rqzbQDD3tRFtKUHjNTROibyZ7gQMSE5fea3aNACcC0XVtaKg2pWWwt7+kDDzZwt+F1BNIPmXMykglTi5ABIqDXra1Dzla+MW5u8HiRDjzNuggG0NAX39xxMUySUFGRyKjcSS0qUnOr5yKw6KZ9zptthqUmbpH99qcI+TMCFNQvvX+DhOTUmJE0sszs+qzAJUVYViaEVBLUnHPXHLp2zwgOLDZABs9kN8hg9FJSQ1CyX1pXmcm+Y1EDZCEiUzBquwMxU3by1N77wFzP5FVr1224krrwGPjwrodly+TgSSimDibrG9ZIx9z6SjKKUsAHIM0KKcA1VFEwg3FvroGLRrbnQlsfVj0wLHbnQkYtY9Nps0Et2a5KP2MRPtB/SLDrVEKTJOOIpPOErl8u7i2E/OLA1RfefAbUFnUSEYXMv3nm6AzLGqF8auIZhxU6ljEozEKSZvgn8d58EjU5JF3Xk9i9rhsqaKCXRnMECHj9PfTCb5C4F0jlLZQP43zAgpnJt3QUWF0mhmpPQ2vOMHUTO/dvfMwB6xuCIptWK7nC6rVdk+D516HH6aJsA8WGWFuQStJXJUhjJHgvCzntlqby616hSiTLanm4kCi8T8S8NHRqZ8SCub+/EePltMlchYawzUfp4HGvXICDrtyc5hrXY62A6ZJeomYHtBCzlwUqaVJWtohhSbl0DBt/pP3XlkCTXijk1SIsPbeUo//1JsYO5Qe6Oc3pb6/yRFYWE5M6CKmC871PdbDpWlXN6BBbjbCYxdEaVqlklTBFw1gVrpbwGwOtGlSjw37HoEvtmUSQstcVomGCQ8TCyiXB1ikxs7t5cjmd9Oxqrm0a+Kgb9vPQBwGiODXJ4KttigkDZePTVFVGL13dOYdgpjzGs6i0bbUbeJqj5IanThei08XecSmIofATp82wXvK+vW09mZJ0NRnTmCDnQ0xDdfWzQwYdoTNRXq4PlsaA8NKGct8zR2jh6fh3Cfgq9v3RubDbDmimqasm+vn683/4n/F2Aq44J50/b8JvPe4XbS2MLQL6NGGhsxobvOMJwfHr8q9TTtKqYNVPF4fpCt3y/zIlo8gEtq4NYPS9DKc5lRQhFcj4ZC9wjHhg5MtLGiaEuDGd94aZyFp7RkgcCDLBD9kkPrxJQa+ivXLNfnceG2o2h7W1jHz/+YkeEBz4t1RUZU6mGQUD0Tor6OlszxnrJ+PKF8Nt+9VFfyjCxZUfH4eDYWiitFvtGjYLti59ldn8gVptHmwhbMSgr14WxNprqdTqAZKwi8yaHyBhBL8jIbIUTiehHGwAbhpMTY/QARjthpARUEUTmS0vaLCwwVbMRaqbhkqTD8/5WpnGGKmbidI7G/nf1ef5cH8sYtQqVx2zWURx5M9LugT0DoWg9a6PKjb5tCJdBw98kmWhsdU9m1lxESyGkKzij8ox2zehlHljf50mfocaKIRvBxIGxoUQlxL/hHyet+4vb1C5GIufLyDJiNCHkUIFZN8W5vp5DRC4f8E5ydxjvMHunrtrJ3YiSFXhjLKiqAfZFeAatXkxJV2EJlpIk7ZiXtM9FSMMlPnQejXtLC0d4soDyab8AmkWxu8p501zsLpba9zZZBkmnOO9Zv8AAHj+9QZDoZI/AjEbjWEAJa0wg+GOharOAZ3Eo2ZHEHzb5KyLQJowtyqDhLLZFN2ersqQ8f378kQuvMsYx5rM8TPDk2B3JPZQzzhVYNCNqbSUohEzCQeo5yCXDftZqxsTOSxHsdK5ESzP0vARRlGZ7F+VgmnaQlMCfv9++Vk8znKWUHWtlWIqKJdbeKdWxGmD3j2VJMNOjJegqdJFQ+RTeWTpU/2q+1uX7bbvGTTQRg4CNU1NgE7ia2AWUXqNwl6ik8JKMC8Ip6dt1bg60J2Q7BJEXR1YqLNB6ei2AilJtHcmkqE5aeyXo++9Tq2icRzZHRxyZHbm6pDHDvRdBGCvK0pwQJf3UANp7nZS6t3ipRrlazkkeK9ZP7yuGcPDica8kwAaWjTiNg9t3ugHchRqQ0MBHsJzvIPb+XpJwMpnUVkDGp9OFiZBi40tLnjdmRRQRrVGuObefR9NC0M5DSKmMgU+ASOc34oEdzC5bIwGQzLfJykLDg13A0CJIzYI3fqTsdAbyg7Lv759fNr4g+84fiWXMxQJ10WTb+nIJqsqyAtibkaSmcL2IYnSELvzCcu8qIY3SeGSrcZJ8GW12IP+5ZNW8/oY8+tgkVqN+mU5e5rwDatOhs8Soy70jgT4qCVtiILSRTA76+vr++RG4JKpT7kUCUyjpwvz4B/ofvyjYYO51MPqEb/0I3bvqMZ8Ezh7H7PTYHV6YCSU/BNYtHtu32jc9RuVkyojnZO+YinfdHyoO4ad6wa6CFOrLG5dBOevtzBHb31D09MDcOUScIAHVamkBbVeFVTHOb5sqYsTr+/GQR/ACVPH+0D/R2220k9NHvSrw6v3305/O2J7kfbQSZzYtBtivQKt62shM8leXliF0CVhngWz+XaRLa6jUXBJptBHJF+lorhonRzKvtm74fLnjkU4ZwavAV+DO+c4TtUnFziEa01sg1Y5O+zwgBZA1ZTavUN4hoPSybOJ+68nK21Xn62O/zuFe3h8HAHC/c4vBaLkkKVZJatBDVLgLJ/afm3YKV5ktnZn8NI6n48pmxqociv8P7IwEZgqkanZ02NhpMa5iPB8g6uHG15qo8nd682wCGh509k8fwJomwSwBy9b1Q2GtRWP4Y4bCJlAKUlejzy9i1x+ccrkCfOe+mKXbEAZid5TkR0zwOSBHYCpTgecLXkCIH49HeoRfpsw5Y79ID+Xw6XLtmJ2jz6xMq1oNgB2sNhmDTgzH7TuDbC1Sq1s2akaqZIPeuDn94w8WNaCR58gmTaxz7Kit/o1QxBt8TD4tXeVbMVZev9+324tlwMQy8MBlPc7564/fPJjVBPPth8LXSpGtGBNWgH/682iyErAHrv2XvrTZlep4THyui7QMNNTME08UF4RnaTE1zSTGA4PIqDti1tMBQljxp/WvpmEwtY28ZEe4V2O66xf/u2uDJj9Wp0Yv7MhxdoIjMjW8JmUKnokj4bw9+/qEC63/aIL7h6joituGPf8ipm+vn5e/yeBLTn6FkWuYAplRPl7z2xE37g/aKbfrSEmG2IdddNMv4DImdBkDdFoedLc+SSp8Jo3Dridi7Q4zFJyuhpu8D6ZeaIGHstyi1ZzAwQE0Hc7Prz8bo4UvDI7JqQ5uSe6hmAhUJ5aM7jeGNeUi7F5+u8vvElHxDs2PLtmUuUBwZYGeHYSd7bUSo/Sz1xf6qOjGPuPmR/aQENxu3vr0SNvVYqrmX4Yanx7Xmjc4vJLPUA4C1z5GNMR/OhIkvhhChxxB/id9seIVdiN6D2CZccv15sleiSXNm3lBfVoheTSWO82uqrLMPEqFOMV1EbNqZswTKUQdVyWTV6ZHl1ud/Onbo6R7X+L660r88eHWy0HpaQu9d5+hiEJdhdo9C0qVemojbZ8EZUTQd9XIl1z+gv0CRyfZRb1KpVWy+X6ti8Z4bmsmpg4bmRfblBGzr9406HNI33OI2Hwui5zCiv5y3LGO2WZNrKKqZOqhVJs6nf4usOzf7t9skSFxluBv3EtEhcW9vkzdJun+9deNBKL9ySGEpBvXXGOnDhWoOaUuIeZySyAw8KwoxfJGctb5qAT+q5Z3njErqQC9Mok5NEz2O9e2Q3Zp8QhblW59hzVCzr63hPQUHC0SnyVuMhJidAbWAgl1gVY4eHYCT3pJevoKOiG5txqISaa8rvfZpt8B8Gtnfsj011G79Snh1+3399HnS1o6r9o4FpSIRPNZICydM69E1RUTcYCMLqnij9P2odbeQ1IabEkGOEDXzCOcmur1Sgk0PbYficDtErHEpWTyfeHLn0eG3SSNZi0qEJXHlHHUCO2xIsjIySCVmja+U1OD7t2HS6gXOrT6pLQ7CNX3Su7r5wcId8YEMRCl3v3m5/GLsTu1ZIGmQzMM9ColzZMo604bgH3Ryhkebq4e6VqH+KTwI0iFHQkpLCiJja9ON53hcRCk0+SuJq/fPixozl4/j5xL/5vGvD6ayr1Dwo5cKibs6Qunfpp7/cLON5e4XWH8VQLvivE+i4a/3s8Yez/n72f4TIIg7+vGvWmuMISorh6m+NIm/r+6LQZ+14Q74hfW8sBPOp0LLNMwUuJWn6AdltDvomz3Fe+kn8jErNtc0blcO8F9aEWI7nF6Mbgac2sbEs6zNgzHcY3cWBRqMFvzbMcbJ9IJTu+AQd+8ZqFRanxOHTIi1V9Tm3tf/gSCHxJpV8KTckw32QwWihPLCjEpVpJf4/wvtA7qGqWGKxkkOQ5C0hAhT7Z92WHQlvx33VcIGiEoAcnfFeUKJpxD9IIxIg6NqXJhX+3AJ0YjBbj1mNtoCqgqm1/idN6LaSfIkREPvOjPSN7uOrX4ZftmFBO73ndoR7YcWek8i1eK7Kf6vS7b3wjntbo7opFUUZhyDkLzEvqmTYlHAGHwHnWIxMfjSUj/ve7iJFWRLRFcv+2bX2qm77D1Ueai0wn11kMqGxsAScKYWXi6ZtL3zRYpXQokBuIj7u4KGkgxbR+IUxx7uy1kORnuVikGYD/nDv87VVd2cFWY+5ytew0Vi9CZ3SpF8x/3rBqX6QCtOYY0/uHOhB3qQJUij96tF2wee01+o6f/DpgJytXDl7zZVj5/f37c4YvSvZFqbKJn0MlcUUg9SIFaWuM2YwjB3BuM06XVAj8hfb/d6VqsCRQg8ABbhu8ff+WLbRiXPQagGTCTJdWCmWymYPOj+VRUkjUzUSra/x2bKs4Z5lKdGRHnOWofcCl5SZWBJt5AIi1ppZDx8eM7t7EevpR9ci/BjtR3Oe5fD58F6gCSO4cjSCZn4qnbKNVZFSb0bMmgyG3V8p6lMr8+X7++EcDlSmqIJBQDxZe/t8Ag+0DBQWi91qgPPyFLHamlRMXTm1eOqpRZZzroOiUbxzkmjCQYZ7lbN2vrioRdmhNsITpUtVYCFR5IYi5SIb0dL2DG0cmEY40/waR7QRA0Xt+MlP5vBVp1aWJKcXpMcCgZ/+Eb1Iuw8R7Cw7f0uG62NqSNnLHQfdQYWz82BqkRBjQSiGAndy5CKO72mmnVQz1pAOOgKu/YA5091Bpahzr8gO/mkiYkZxSTqShrslcIqMWhNivx/De9rRDVI6rm4Vc/jXQ2mx8f5+V/ai4MSl+TINQ+GyI0flNHE/p4QKJoVzvXAAYKHKJ1g/RQRKY57Xr3insODqrIHmbRiBw+R8ZuXZ5CGmIVIYWYnUE4VHl+xQDiKW1BW8rFra9TmPWjgLYjJisSCVmYhzpSs2apJkBGl1W/r955C8XFg5jB1a/vet/7vSlRyOFTkH+ALwVhRzIg1cARVD14VW5uJ8NsGOB66fmDX5n+0mDh2XnY3OjZ0r1zIIeu0FBQhrQFK7x+JdFhTBBHj6gF04+XI1pvss5coaYIbVNWVBnsYGgG06arJ+LMW3PCdt24+/CPXWUv0XMfRcXLSuTXA0nPsWTDESac/CxX+XvE5P/1coVuwFPN+NYGx99RbHeU8wCDHqEZdSR60cVFGCg4pB6b5JXLChYkS2d7SVf7pUnM1K+63IK/MukOraac1gCJWYxohqXaD2BH6Ax+AxluQIKdrl2fvfu33y0RHKe7PXPYcs8fiWpCVafMt9Bgubd1QPDOmGxr/NbbOuzjSLt9xliFmmVLfC4IwdrlVZC5RRX3sfehkniy2RmpmzcKHRLeoYs/p5iQTcBqy8wb7wTk8sEUZmtMb2CANWI5aqwPb0Og7hKypw0kv/zMxp3rCbGSmHXXtfekS+gk/ndeaf6aNaIq2aBnOC10n9vK70xvCXrlgPgKgd4zO7NroYQdmOGzXn0Mo+4XIUG1qdGDPrIAss5JAWLFSIrcCyoLdaEHW2zYzKAaMYR8a4qqmtnB13YMqw3PaQS2GPrRjHdSvsKGiK8Cjdr2vdL/kzopForAc+arX8AV/vJFP/KqvTnSl9xmsowPf/HWFSDnwGU0G9DYoJDkaGJfbHFoGgNFZUDumSWeDOFEHZwJpY7laCQH3fiMIsaQE2FKoXgFJcwMtJkI/tzpzZsJsKx5KifL0jYN/n6V+0xvnHyq6gzV61t7E5ToRChEQKeCQnmWViG/sX/+fVE9ttxv337wa20Erx+217pdBrrrt1ecQvkJ0VaIWx+T+h8yYvUA6xyfkLTli6Gv/tmipBXyorfHtJrEQiW8HBjTqMPGtYlnuljMqSs6QNSdBY9ml/BAt5w+anDP24fb388+0GKUMcMfOTxqLjGIuOQNYxIkkQitSDNbEgQNQ0KtH7fjr65vAB+/v/u+lZYyol7MrHraWV0hJxdctwPToBJXG2sHonAq677rO6wj0yAkVTuUpAwqI+XTq0Xe1Ij3kFVOnoGQRVF6HpqOIgTtxoxy6CBbTftq1H7+Dz29+a/PWOb84Baevd8r57YHjr7dUFN+PAqQJraVOiDn15373mNdUQOEQ/f6gZ5TpZ90KhC0xwFA/BqmbCzY9uF9gjhWptGOpMJDtbD3qrBRxyVVeCWSpDtUS4leAook7R9Qykk+A1U+QnJt2wyiYsHl14Dp/7zAobJihdnow1R3nNxSeHVwD7Fg6v8Un2C1b2qCZXsDDoUPy6EWG/+cwC4gM8JnJbxZ5mqKWr+3qZGNttMqH7gqUXXyiPKgCbrhTHKSLG32Z9I0IePwsCkXOqQ6LJwlydbqFNlg00TQaDdC1qQRdWitqsGaLnn878vdpguspoGNE2JvP/eGl7f7Xlz6pIYL9rONmaJOSQWjPK/uBbQD1Bpq7Avln4IjGbH/CwDo1h2tYsT7iE1YT3xyLYgyh0LxsfTz5EdsImutEZFAq9pGi4jJvdcZIYj4TYyQHYFhTJEMfyi8TsQWzeoFwAFLDcprFPdjvz7ee/kYagZRSGt0ttsR1NOGVsibX9l5XF+8sjjhY9/9vBbePJkxcVudndkFiaJkF6Cx9Rn9PlWWwCfk+0rJF5s2bol3S6cKC/4SzNh93b65M05X2jLKqv3QSReECHLj0XKSamC72NCgEpGz70gDWMyPexCBnIORl6j8G1+Nk0zAaPyhU9eBY3JpY2HvRohDHA0MdkjocF/ZzjO6xZFwpM7eRlSZOUzT5oFowXQhM8/fg7UY/ynaLrkCc6tghH99/WWb8cFaLKe2x56rjVOOtrRKUY9UXRyrBXAwEeyzTKxrNRgdelx0kNPQmuzxGcLDjQrrx6lDAUojKuu/ADPdYyUqf0CjvvuVbVb9VhXFkCw4YVZM8AnxH31gxu2xu7ZrmhRlAVQ81dXHhcCBh5ZUXMqo3fwhLVrdGUjt0w0rTqebXy7aP0IRRRJz9cQX9hSV9COy0DiiqdhJIP3WsujBxNv5AOpOtMmta9h1nxrkFY7NsV6CoVJmmkE2ZoCXl0D0wmgSnmDJszQ5pYqgvmVEpPmdYg+UHXoIZqOkVU84lWQ/LFfNqVHTuwx/tZA1J4Dhe91B+L/a2Lz4DHIz+ZrGufbzo39psmPi/1Wsc25nQwRzqUZCPUy0lBQe75MMo1wU6EBN8qrrTT0MfApOytywwTIOdJ3T8aunGTlb/CrKmMQJWXmSHymyG77+oVgWSnHcfI54OOtLozi68rS8ARq8/SBXzeanj2/8tB0C+ukm7vHt2745VqP9npydYANyfQrQgxKFqlbBKVC9Wz6F27l1/cJQkKKdfSZzkVGtGPqwBbiI9ehotoZK1O5P8z6fr/NSwpHYUoHL3oxvU0ZhTvdIuXdLbyQVdKRAmRpqCbA9GlJLSRgaUUKjRUx/PyB228c6iNvkufeIl8b398/Py61LZhgQ3iEbi0//D5bij46mb8LfPtXoGV+q3hVsPJxJHT+ZjwczbBynPK6VKNxq4Rpfj64oTrJosd7YyJ+JyBs25lJNbVNAW7wmY2lna+/hymuyWuUAf9lCfiEmIYoGwS5RR5zz/f7tbTBon5xTYXTJX79Pdyy+3eD/VnO3YW/82bj8TtUdXPbBkfwkU+TeaT9YwQo4VHJVVhuZSrv3SJrAQ1uuxYeli+DBpj8wmQuYcw5RzvLX2SBFK3H0V/VAvYpX08FG2ye3FVK5SEmVgtgkdhKLqJtqAuwyKxavQGpUpZT9rnux2zdrgUPpXa4/TMS6qhRu4byUsih71HH+/NE3hbsZd5YZCe8+qu2SPkOsA2fUmsKSFTX+X4xF3JKlHZJSDshyKBDydeBqqbbZGvA4FHaf4EHjNP5i9r3CDmc1Y2xMBHpU9eF/HqbmiA1m9J4ezfgaCVNEcGegeiftgHU+7S7LCMI9bqy42Wb7ok8Z89e3Hd0q1PX3vHAOUEkuuXH67l69UTH6s087IpsCTzM32huJktAhmqNWB2unhTdSBshr05vDfMepijiUAn265NwU3VXtP++3jMlJoUcDSKcu5uDPPgQyuVKyOEg9BdJKOodtnbNdOvBI8/clXscxe0CwaWBh6LrmdGLHi4/bPAB9+tjGN0d89zTB3TxG4DPNJE7nUWpBMree5j1aq3f8aZBG0B7HIQ5ds9VU2IUdwcZCYKPoX9KCjSgnnIQOaZOlnY0c1TnyBIJ1f080TJ0henwgCVIWjiZhchacQif0pEDSb+EI5FVAWhIOy3TXU+8MFaIHzTCG69f9+9d7Xwevz64Vts2FwikTSRrA6uytqfBim7ojwZAKDNvluH7pqfcV752bHTtVE2MLinGrn4/6dKY+E9rjHO7K490YtcFzeJ9DGiGgkMUUYEZvYzaSWZx0QTXHajOEJtHSmBYsO4UatbgspJBLgY83VCSu99KHQrvRO5OJWt9ST24KOJSG8+ELVC+nttwOtiYFRuCJshwHg06zyL5dJtaJI26pSu03aETptuHJogCXvQqpctUDehul7CCCNB07HIs6x1JIjPX6dBhtHPmyYNbJcqXyGuDkhxrh6Rvbfa5rGuE24ZjT0uE6kF+4/rktawHRWUUGdf2hiEw9HgNhe+AwgrJRKsGk6KyYQtmPZpAkDlS0Kz1ioZTLlqEeW4We0eJIgGCqsugFJWjXoTHag0LfhieXHvtfk56xkD1f19or6NIRwFA4pBuZrLBdAMcV6WA+PGvF0IyrsAs+Wn9xd0FM04KGjbG7jvBq2BSFcMYiCSsrFRxmeiTZpXQqD43AkQaWtoG1Wp5HLneONDcmlNahgmxcrlo+E3fNwkvSJPB4ThbNFnrkbrr4iVbyYCt42C77hmS047HaunXYRZpNnhfkk7RDpNVC5PFz/3Ir4D/D2peoSEpgoSWE3fZ60/H5hZtZlRR7SVkYqIyo/vj0396QCmJx9YKGsmJaCElTmR115xKZ3vHXl/GPWpK1hg9e3W5ghv/L2Vfgfr65SmjqkFuHNgYyFPSHl1o02b0aGakHkumyd0MekiD1rA4Nyhky1Gits5F5+EP13ogw3t4mhHFKIYe9F+22FNm3YDDAiZCzZVfq7UXeK7S2ltR4WOYxAFjTKmsXAWtpepUyw+JPZvVAay4L6pCeXerBGAJIdY/e6/X+jw1f6tbzcV1+k8HiYr4SZiLT+aPN5wcH0n1dFzL4vzzChhldK6aCR8bhc0cWBuPSR7w+u/UdPlWxIGOrr1L7JzVAKSmdQrq5Hoby2bz7F0WDmi2rU5H0apiJq4jUoyIXNK9VJQyyiak6qhD/umrdS4Y9Y4KN6vl8/fyw1dnbFcrlONPhiMiENYycdEsMyIr/t0KapTwseGhBpzRPDLtbLv7dTKoIjN7TQxsyX3X43AfGLgqfrxeXCj3dhcynalqwO9bNcvbtAJofALtgT2tusmapfDq/63mdcKBksyaj+cWrKc6ks3MDJpvVVUan+g0UAO8pu6xwV/Qtzp7+sESwAfANDEQmRzHHydmcNA0ApXjvCkaI6D9uPJIv0KSj5Dh5HrAeSCr7JE9AO+GYoy4CXPZ6sNLme2Y76y3u1wFgoPORj8PIjFNMKfce8em3z1OVksgELnpTMrQjalnXo16hPiskDRMgWZUDspqNoXRy6wJtGu4l71xEXj9+9fGD7iTxuFj6d/HOJ9xm0hP0+efcXQdcUVhaPyuuUOM6JhoVJuLFyxbrldTDEi903qsT5P5vJX3ilFOicWwD+RicZs2WscAv1CTdmWLrRjlkhWRIe6l5xz8K8cUY64qxzFMTRGOS14LO4fOvXqmmQOSsGhndav45P7xkK9l+qFI8rJKf2KdWhaR4iCfnuq2Qr0JFq64vQ2iE56rewDtLuQS4YOnkpII1UPcfq0S76zVqrWGri6cDYuQmGi7Q5UeFvag6I63qjCUhanoTayZ2hD98eqAKNUCUVi2UuKwGp3TkYOXrhsm2ErTZyFC6Fvc3Qi028v5jFRo2KKSGzuTS2HeKHe7UHtkVkcY2lRUc+FagH036BMMF1WVPuiZrH0lpWe9hGtgkB+DGKuatmi9AbNuu0NR03b+c1kkymPSMcqMWQ98yShCQgFeHa5USbDeBnfZawyxVO1rXp1GS4RMMxcP6ZpJb4CRVcClve9BXERoRFHJJuIPay/+xKDeFqY8GIvkveSGAuHvpk4cf/2fiB9OSq4H/nzEVBgN+VFdPejSACaDFxK5vl7gLvmbIUVn2LgufzOS8CMXOFPJDN8NUKr0BCLxC0sBWJZXtHMIEJGLVBNfagykS0dsS7NgZN2OBaExANcnDfgWdjEnlGvTz+PKujVYrygmgukazeQ3Pu09JJPlcEd/6HR+uq9rz8nF4oZt0L3bevtNRemr86WGZue6BZnDESJnuUBkFReQgAlaW4nc/Jxt/cdg4Zl2jEe2kTUiEVI9pgiJaHg6kUhRkZ/q6kv1ZLDDlIlaWCsfTGEwfuXEueHQ5ggAsemUzbYmANsAMijAWAeI9WVy5pHJrY/wzdL7cCsJnYxrgk/WEjW8Vw5XEysHK8PrpsqbEDJZoZeTTEqNoaul2I2K3JRZM7d3dUQdbGWJk5lMUVUoaRVoU9NF2D079xzvPn+99v6YdhDhDLtYiIUYXBIpkAd8iWI8CKN8w/OPamUq5JIl7jcNzpTdCBxO4/moRN1leAxxiU/Q3bncgMxhKk5GD/36y9t5e378P53G9DFsns2N9lX7V5ImAhCsmQaPEjpVcQpC89SBl8qaQseYc4GBTJew6ilkTBWst89DwNfZ+Xl9oQ/J1XUiKRmWqB9nRVEeSJF5rHLfb/Q8rQLrrp6dRFkf0zrlj2KDsGDqYOQQpGF/L9hkTXu5J2Z7mosUtzSVqNfrr0xKW7TbbykT7lo3QnOZ+ZCXD8Lh3/A2n5BepbK0YLu1pS5TKUym2Pdm6OPI4ye1ZlWBGSO97tqkR4vO/PMbomvKpxNIqXAB5M1Ygx2RHSI6lPXNwjVSN5McgKc5oUI3G6pnjsHJL8+Ke8cn9b7ut9i/eAZ/J5mXXuaSsXZ9gYlXwO64+mwghboolsgg4vaeRPudRX+fKUuHjEzc26KugPkcXJeElHnIt4dBLsmdUNORm2WJYm4uSKdJuu2aAliI5KsujpxPbUvTeCLKkLYvZTyvwlCqyhWRNtuarmOEQEdNJbm5xVD8Bhx4sglruG5cDC1cKx6yLknzq8xdguCJ6YVORClycSnY0xVmyYuq2N+p5H8DESZGeQdYaj4YsBaAxcUOXlQdfzdCl6jWd5VY9XLkUpCiD177FcCSE6cgSAL43fV0WoKm/MPndCsQCkS5DBUzz5Euf0aIuHfiUldv9F66EDF+K92ke/WTG9JqB6sxXZcIZ6n5OJMh5ePOHztpEJJm04CRzbEoHodJcaLnMG9loQd97DNNQgRRPc4kmDGOtcFzCj6qTzO7ip33UonMFefOmhNEiwM726MceBLZmlLuIRHOlDzZmIotr0uQYWTb0EvTZpJTTYQonjGtIVD08dn28+/OrT/8NFlLYPFC8n4Yt6ZfNbgTGRjy3siJeWITq21nRH9VsMQQGFeJ01ipaxVz9VQKgE81m5sfBok9GgsaKbE51+O/+oujN5TG4IaD0eAYy25ZVepjabeu1VAZPIwz+OzxahN5WX1tHNU3FRCtklmi8+1zgVk3utFCHMOWwBKm3r1L5yz45czJmZ3ZQG0uBYCr6EXqpE0T5H9VhQjXEqvayVugj0PUfGkWP6eKypeuiygVSKICmYaibVK1d/t+pvXQRbwm5k2E3D/NJs/o6Q5EwZtJde6n2Fl2IBL0Z1GuvaCA5bRB5v2g9z31wRxEZRrju9qsX56PLtheuYjLaUchdfwIoN7fI/CbwLyUnM8kw71AfaFQTwuHdiq+iAEjU2C8xkMypKpBggrOrXgkCR9uGoRMxBZkjkLpSg7CW15xLFKdWmlZ1hHCQ/yP+CL4wSlU2K8A6rPSp8IDVDyQHZFL27xwgxYreB9k0kxAZz5/+DViCk02mhVGQzDdu8kdEHULTZJDL5MDUKF/FKlwo/vE7Rw2d5OdwYTpUQYIeVAnFddHMU5wXAq5veVe7TiHROnyWoDAr60xAP+kSQWBtN9ZXV2RS9qls46rD7LmTr9VY7GgI3zabCmVjFhluZbvavsG3dNzjkPrfuQmQ/OKfLJgMeTN03fyM7h+yhIOO3YOJWn3gYOR3f+jT7s/Q7SxHZmI8+y+Cot7wODXcQyoDuAa7B18hvhSQTvele1egc0rJLIQU4iwsHEWRr5EANxe9Yo5lVXQ7K5WsjdwSt3u51+XWrwe1TPj+GkJh8fMMboAYmQ/iua2ltKpR3JXWsxBu4xQyHdmxtYeWDy+gAWLvTqo7pHW4V1MFHrj5lQ5bKMXTWGFb97b8UrYOB/Q9uIdbEYZJF8qjhAnRr4rtTBBs8td8Ek1Sh8i9lpBukKigk3WBDjfhU3lRSwXdJ6O7HZGWdTFjqzBz/B847hpnxnc/SSeYs/3rJJE0CrhxHTp5ircKzlGhfSJnNAJAzRNvUW/Lo9F+jc6L9cbGxVp3TFq4JhQOk2y28yddf7xoNTgSAzs6gIo4ALMjUwDeKGBMQrprG9/ZMqEjx5olAVlXHxGli/w5kzZmhNh588cep9IHamy12qL73i4Qg+woKUtqmmRYMkZBdbtBNdkRQtqo/SeBvvUy+zlJUZ6KtNGvqW6OQVFpf3SItfmOP6crp3Xfh0Uj88/PsdxrTjTsWlXA6V99vopYc/uchhRJ1xMzcV+6UBkgROEzN7cDiVlK7Oftp19z0SI/FC7GXSgU9Hl7MYC4CT0swn0ICKMqL0HSvVNLAmnuDcXFD0ubE7QyV/lKAq+dfuy/FWEiI5RWQFCLQWGwCdH0mFnMoSYx9VlVVI4OAUXAlY6IxJBxOMOn35Yy5WIv5cWfgdl3KxS3fW/ySYybg6lEoQele9Pc55McPw8u2n5HmbHgfkIX+Usv8bGY5jpPnK1kWQtFZWmkkXG64Bm1SUJkWVoNcRVyu9sreiZJDypentFnsBJKR8gZZysk/GAXcsmA0NGrRP5zq6Ejwz/vCwuge4c9hRnF8+fp91HxyoONmUBlKRYLHTIvNblX6qDaG77FcrqJTZ+JPrmI9YCSWwRU9BCaDvevk6LM6xMWX/z8rQ9g9AtVSCIfhTRLkYgRYYZ96JVbsCxJCH8gLWhiqmq/RKRkQZ2HZ1YWhDRuIqP7/qjWgY4u2jQ6CKHihCOMTSX3Hurj98cNCIvDpXrqJSJ4dTJ1hB1Ja6zLFymFj3ZwZx9e3rni+ZgSE1m+FAtFWyEJybgaWx3nagI1dgYqXFrO6+CM9/CMDI91+QSxWXdsHTYRR6BcgNPeKm5/XdeIISEGkbROgNh0ERzESL9yLI9hDmgSryQKyAFON2Yoyje+8AvR5ldXUKdgSbyYSd2AaIWoyVEnhwsJcSGNH/gwQC4TjrRLhvvd7Ym3D1VvjIp3qdjF0qMSDfRwvsgAwaOI4BgwYPBlEpyoGZ6UVPt3GuKUPOJBslwXqk5raDRL8/FcLMTPDnGP0hxEGaPBTEsXw6NdbVQBZ8ABEfs9ive2gqZEeMSqKQlSyxXB0mIF/6rRye3Th/33jiee7a7U90TwinEiJ0dGK0rrrCRbg5WQ2Q4F0AYEnD5JXYyb5SGy8U058GrmdbOm9suc3NCCS/MfFdR6kRCGfiI0OgDFWDf+2gXBoQYttjbwujXQCNI8amC94uHL/7ahNCrHMCHkMjiqkxJ2cuZdJHjzQNOnk+3PMMi3hnW0tiXk4lOSAs2tDFxtQAgkUjTNtwkOhMTlO2bMABsTajCFq42oQ5B6oRxHN1qKWhKdBpTlYgiXwgOkO848DULCbLGqrIiL32ArUnZaOOT79fzebUVKFXBkjFXUwXQBDJlIMFjg13v7rg9XGu6G3SG2+XVWQTmTkmcABrERzuLIP0k3AXYQmh2GU5qgGR+JSi8JXqzb/4m4IKIspbV6tcQrfrP61j27U3w2Hc6bv3t7Hvdy/+XeD+hBVhbF/W1axmxDHORyVO0FMN0biX1KiPkse5vs4SBr2Wgh3uD//L5cDp4Mc51UrOsrIiCW+jJBoLXjKaqbuMoUJsfFk904QrD+q8mpL7ho3vYdvpgusWbTYS0lkxpryoIk1ExTISVKRbLoWffiYeBKaz8u7rfYqTDrVMJgCf8PeY090jkXN2tkEYnjprsVRqEw7Sa84LVlcH19fHNX9vr9eYlzhoFza0Myqqb15LBaO+KjtSiwp7gxUraWoBOBaHQfEteYSV56oog/z3moPHZplLF6xmcFpV51y2mYNfHnRBF9TPw3t7sr7fI1eI9DFFcvKLM2C7yGpOMcQu2GXfIDX2+K2ztpgCmKjkmQzRytV7u0IXZpcAPDTPDtfyddHORGR5JPpCFhwjj14iSVK5VTDshoQ+lDeq1U8fFaDGeMtCSIvQ0yzgkWcIAVYWywmOg7jVHunubDcGMtAOHLQ9593nqw6s7afef83GghJf9q77XlDJNElNA+geWE8OeRgeXtQ0z2n4bBYXXn+E1RuP4+/Tjm5opFIHifcYjRknckhGWuO8452XwBSQJdCoXMl9Y84izRLflETlhCQohOlNWBrxE5O40EziyfVukLVwHHEG9C5JNUE+R+VqxLHo+Pv/fvX5ZjSCaiQm0FyBGtboeqtmjpIj4/VWSt1iSsRhrKdfawkI69/rlLCuM/w9QPjH/TVs12RyPm0AB2sNqBzKDmlyD4Ww8AEhh6QE9QIEaNrjd2Kj3JE0q+jtakKj9ZxZUSv6rbAd2oLwPRtAt5na0D+x6vzEzs++3v19NfOiZmtjwpqA5bCpVsGu3uCGyYUfgTne8GxJJtxEvDYIaalxwnvaRptaTRLdGSAzFuW5wjGljWXK/EpeMWIKmmpaKu5T5x9UaldGm02vASdE7eZKJ7ZIo5DEdorRFZKU9YzqWKm/Ur3rRBNBuy56MCIOzj/ZVsH/MfwyF04Nd6v3fuvYACMyTSqaRLfpS5RiF0cDlNpQfHQthMVwwKBraBUGXPceEBcuURUCeO1y6dV8BsMMgoYjLZb3zrJYerJZfLfGnQ5t4olWu9q1sgfTSceZ9KlKZjWlOjRaYW0lWNZbe3Uonu0nrCgqXKMWbVa/CVo/IjMtOO5Ao5QpPDIByov/wv7/jjq8z4CwjM+LNFEaaEsF3VB6wyGR7HlDBzwTp1bAgdNBYKI1dnUr58kwdW7abT8SlJdBLVUyVEGPOG01IM5yrVGiWR7EQGUfCTG6I4FODVw06dbpaxn5BW4PsMQVG466n5VVB2nZEnffn7vTnTVkzSFiEpoBFGnIAY+TtDeQX1MIdIHlrrleXpoOj6WFLwyBNBvYXBlcEXFL2+eLkw3IrQS5E1c+MMVWKSpOhOrK8adMpV2RpA1cctljcuYay0oBEcKDYl0Tl4ybxrUaYJLQ71MUBy3etiMQCn7r5aCrl/9kmxEOqA0iVdFtmNkQbtBH6N2GaT1cxJ6jkF4xVqVu74QTIwxIvyRoic7FmCzIn78fA3S/oOFAmOPSRsmlyxqxVsAoEC0mrOPupLQgpMEmOlBL7dJNyxko7l2x9H8CKp7b09EKlEcmiqT7W71IVKWHabxlZH89qYu9JhamSQu3MAHm0ScgJKTQkoi+A/riAlTg5Zhqq76qallDlDweIUf6xQnIo6J8LRING8f3/7evb8a3t2STj6j7+f/rrfxadInOBDj54xmiS2WxwUmwDJN+HkZz8sIUhirKd6zDSp0u8z+uTg++d6n1OhyymM7S5qU7E0brBXkXtpLdDkV2M2cDgAAcdgflzWNDmqlCpxPRKHZ0Vm+0EfygGQal8BJWK2ih8NF3E/A6GQ2s3dBioKe+X/uz7bwjRB8fSFbNx7QmB5Ra7Dd1JZkhiMbbEF00EmyJv+n9XOuYf7XsI3U52jJc2AxBFWhMSDKbSUYrLW3pDiozgVDaLI4vNnljCNhMZ7jsmxOHRiyyl7rU78oWoqJd6Z2p/QXKhM2VD88HsJTeRmkYuGS6VEAFmcXT7sCOA9EWVFccuNOGWkvoqzxdddtVhVjQhibE+TsH7Up4jIIFOy6JKvzM1ncSczukjqvl7mmNAQGwkJ9ry3fpN5xFs2fwU651tTJo7Q8j1GwTKf43x5NHBcIU85mFVN4p705dGw0emzJPqJYKslmeskiTXz1Xc6/G44slxytf8sZ7v4KN/D9x33j1LUVDpKpc9x0SnbnoXNR44TkI/979yMfBPIdYRxtEJIoNQGLbJR7q5NdEq3KI/GTWBjM0o7Q3sb30vF9Ng8VBRZkmb3QMFEekRZ1aJzMAjx7q//r0QtPcBi0PzXLK3BufhKT+h6iREqnxlqmVIoFKW+RGLHk2XcjofaMZXRmFtx9ThrmaOEqhGSPh792+spGGvhoIl2NLDZSFK6ka53/Z9ikiLGPY8IW5E0etcFz8nmsmmP7X/BfZHKSHm6gr2+JanVNqI6eT6IBbi53ypl0vsfufuFkiSzgvRImkUBn57FA8Y7NPZftxtk/docycVYUuUrTvlqMiPIrEAo8BSkbviRziLReMimHtUrhQvcua/Ic7THL9klgaYxiMnqOfyxfO6fmP+HT9tsLEQDChLmEsg2m/5Kb2jGdBjBjzqAhkFSI5mbapHSODP5gnz4LRgsxb+9GqMNdsA34F/4u8VXq81chJOCI+1iwsnhwk+cEjKo+v9okIBU502WwuqVH0tMVnrVIUm0dsvxcgtLS8FpUqf1kVjRvcoXDLHONlD/jCH0EoJWjkhwYhjohdB+jB60QyBlY1Wi+Yax7e75nu0CX5i4OmJ4hjFouHAr8Iu4xMRNPP/1jZcw7/rpovFLkLGf8vnV5OgfKNtgKArHZtk8XO3h77Frdb6WhzPz8vUwvq8393FayktuOzfFQiZYnG1pBZ6IPVQR1LL0pniSGVp9OXeAh/jaDSkKGj87DY4t8BwRUvTYiEJy09TC1pdXokDLhJ0UkNwR07tMwieXqqe/JIlVmLHN78/vt9+DgpD7f79U9AKcYdD0ns6XS9AlVcshLQpo3VlFslMfwKQxy0n1QgPakrTmCqkr/iFAo7Oauiyrrj5JV81CSk9hV/pT8A+l1KhFBKmKQEr/PavNY64pfH9H7HBXM4BWSqcQgKdccs0j0JzSvvZHLzlnRl+64N6Y3P+7SyCT/NwUmQ5J8j/maFkGwTXJT7dw76wFSUZBBB3rHAR6gV3I9Su8R1BiV4uhTNjkBB9SspBgDcpF8dICWh4XB2fY5avUTwd/tJAAdwh5DoHCXBMPOpWYuudYMqu/39nbkqxpSyqNiItyL7k3mZFGfPocMqKWAa5rLyLWH99wg4Yejk2U5PmZgsTak1nU3UBXMRmyFqfr8bgpwCqvZ+4babs1MVYyya4CXA+SMTYkcUk/giWVIPfIBBlUSbCUGpDU/hpJ3IlOlO62L6MdUriw5Kj0VDW35I0CVzs7T93RzsgT42rS1cNtRO59/0J6Z6aPWXGwr8faWQh99PAN2Iv7Lld1fqthxtvjmVJbyWrXvASnSrR4JSgEOFtlNWzL7FAqI35JrdRJDZPJGqhrv5XIkjXb1DY6YUlJF+p3K3J/xJEMRVuTLB9s9sfIOXVzXiAfW8nJQgtYEwZPhpdDARNHbgct9HZSRSer/nt7upH9+p9+rppI21Csl6pI/oTWtOHaKXeNBtKR4BAiSAEtyaL9OCI7CjBRmj1mQFQkg9DhyzLtG0viOkQlO/BVDHVE7JFOc0rOokOwlJMHoBUu3qzLnqMqcUX71s3e2xIkJiyWW5FGjRuwJOgDeiAuS638/QshFy0D9fHzy+Td+qM0B0UiLbUpZyuFAmXWOmU7TkD9NEc7sSqD/VPT0C4SpmRHuGTpN8moucb7VzDKxd5Gzv1Jd3pewzbwGVdTuDfFwcntVpiVEkPT8wAail8HfdbiUMQUgykL/zMR4gfY5SevllZRnNX6MU5o3L1kokoffshPV9cu7vlLQuQqbMyO2ztp/1uE3M1Rjx4lTW9RNtV/Gm1tFS9C+pnEuS67Rjg5KKKQMqkpT8DOKyMdaR/+8r8cxYH+pQCVWBWNzHzCL529WeZhEh0nqbu4Gh4y+eHQQBJYOYNQ9OnhySQzGpRA5PljqZJ3uXRSFEum0ysZyKe5eLs0lLMb8JoVMMYpOTJQKyENmR2EyyEjPpeUrNIZJbYXQd/eW+MwknX6ZxfCtnMQUCBdBIfUxSLFFj06t1VmN+xEZYzvERM0fgjfoSvMZGmMkvRm4tpq2XWndHL9Z1m95f7pbtuPNeHYtkoZpHkrQDAlZFxKv9hI9r37FKlUZq+FsEgJRM7h4s2LQUuRiYAlkj66DyXjdSopkYkSFMWVd1M8BmuxhLCty4oPNV28wtNIai43H/9tmC4TJmAElu6pAgXVKMGY1iLX6MAql4L8bje3a3/v3Cd/4+KYWpByjUrmKRlSOZEsAdmGd8+HoRqVUKhiINdZzixZjggotQW0ZjSbTcK0rurYOQsCs0CDnRWg7gnx8D2HYJxv5khWVaY3rQXaIMPlmKqSb1aLF3TIVhfZJCXZBysRC7PDEPkpg3Rv/o8b9xTcpHEH3t7Xjy6kSe+hgX+e7EzB8YBtg9fvQJnGke+43GXRIVtpFymUYdPUSJ5JZrN+OiDUp37ncp09Kco7nrST/pYO8uU1JWaFbFb0Qr+yt9d3AQ2lwMgdxIuLZEuiAGpqHDiA6IPpdcwkAWfcJ3kS3Dc0I3EPN8Cklw92mJmKM0EXNcxbIY/RHBqbWm7h9e+sUe1YRCxE1UxhXIQIXUpGFNFP49KGU6hnYsVaD6abOZKdJ/w/xQ1JaPMRHsghTKw/XghCGVk4FuWJr2F+ahkPMScynLX1RBJyv2poL8A5f+tIjxFkGY3bVD8xLoxxlIISB+mxi0zKksXMisKbEv7gGCKSRa5rqRKCmbQvS5NsuqzXGUkLcfJDNV8Gq03D1c+mDgrg99pcZwZ902Zibkx5A1FfxB6iUZv+QYMc+IR5Ojh4t0gLtv/D7fvAtNyBKCIMCe963ZXd/ejDe2NW0YgdkaWJQ3CGXeBqvfn3yZi4qnCxb/XVgyNDZoRrimgLjvJ6eski99CsBvFosi/CYohGm2ZXpXSXeETiXkDhQ40u3uzOGhIW1GWtCcsZQ00p4tx+Z40KJQMzeu2FLF9/uWP48XuxXhJB+YsUeC/5BTCHIa2oj/vz5+f3KV9mJ+14QiOoZPyshK/BvPluODfV3FZL7hI1vJtfSQVK57Tsyqo0LxFpmKJg6ZJ2Lftf8yKwRbFpVSZuXoC3tXfKRC/ile5FYB7Wfl1TAJXkLeOcsVbfQg7ypGAFCT13Zf34/P59+f7Wz4vgevhLxN785l7TuHtK6cX99vP726/orGe5xIF6K9GCCpkdrl0Puyb2Yxxvu0mY4gYLue4UcqhnVnJWz70cwpQnwtrxQGuUSVvRGqe1A1UKEO9VHt4USxaRFWqOmAo0RNSR60gbbRKlIKESTq1wjUqTHT2wEjLpVQqMLK3yp4cfT6Ls9+fhFccXirb8ItVXWjP+44OVl2FIOyjN0sMZ2BmRyK+/usyLIZs5dnOv14//TPLislCEG0EtNFoFBxQpPsFLh9wUViXB/otYX98mDKcuxdyJXpntWBWR0oO6+VFMT0rkPcwM4Rh2yuBx0mgs0+dABKuLfsnQuW5Q0fr0N7f2aYTPc6dGWvzls3M2DGeEfFikjEQlMO8SA8ZH3jBzjG9+MKwCMsX70z057AoYBTgVHU75kLolK4vqS1UThY2z6QxmUeOign/vgwbTPbpaPs778349kPRMAkog+Pp6stckbK71yEwqN1JRJ65smFxRP4OWVq6he3EL+1G2A06vW59F6Ic+DNZOumto+rD3h63FJqHiXA6SYxW7FazHmIA2sxFAHtWpSsW/LCliWllKc6CccSVHZys0maNcL7ZHXDUfVzsdNvNQTryZKWEkHYyhb0jidONLFLUF0ufvry8H7pc3cR0aZU70PBlfUiauvw7O+iER2g9xt+y3bsL8oS3nhh+AMJFvNz9+98kmFhG5um3/UV9RDZxSVII8+jkv+URM2SUBbJVLuZZz/z3OZX0CGobZ4zySu479x9ijqeYpcYmfL3VDogXr3qjsVgBhUg9Rsvz849ZwXC4Patoq6AORXd+6wEYvg5Uu9IlZUYbcU1+FpLWpVNenHxj6WTAx9vSdMG96/bdXD65yvs7l1EC7voap15Y1+1qP5xgjbuJUxaGGKrRf3EorXRd7Wfth7vmI/tP9BNKPhFjsJwYZTEXx+chOGyzfiYZ9YE33mzypGd66PatUWvkcKFG0+15b5OPm72rQv5L/mPSQyC7rtsqB4iqvHb80jMBFEwwL6az9ZsukE9yTGsUstLoFD3etYWmIZ4IuGTXpp036NCfnLrsz/N3f4jZZ4GKG0h3az4/jMVZ5LGSqafhY9110oBLSlyRGT90wo2rUhQ/noXoPjZkKgGFkLV3uvdotrTqxmAEuPsWUlxOrXpWB7W7L0yQNVFntVJllXNdfT7/OLIghuHs52pxmCvrpJharvaSQ+krnkgykVkKxU2Sz3OQ2pMA92bfavr9/z5Mz9wryRp2QHORCwW0eK9YhQ2WYYzjIAzZXtZxHTmALkcBtNgxy9c0gaoFDuaCG204irvGaJFAfCNULV0sE4oTU9bKDWU2jEG1/snDaAPolJ8LXOyzDG+e7OMkT23hNE3vqabKPGHNnkckQN2S4090IBSGMe3H5fs12UnSbpPLGrzClGr2Iz7johAI3u2KTBIN1JcRInXNWLQtox0xuzAQTLgYM8IM/KQbzemY2pLyTVwGkaKefeXGMIusPIt2SXmSiQ5px9fz6wjG+RUE3Xn0GFPZKdm790ZMXzl6TbMJp5G9V8DdAfXfq5U++OVUevYUnA9l6TZl7NS6r3AsGJEHWoWhZdgNZYx6QhzIyKkunYwMwGboQ7nF6cOXFMzkGsQhOd5T5vgudsKOsQwK1v9v/qtY02dK2vBVlC2C2rvqeFcKdhS/dfftqWiQjNXbmCF0CaHD72NXfnrodcbfgvvfbh2zelTxYe1nSoWm6Hon2s7GesGyoa9L839QktHuRYW5XdJKz0KbvD5zG4MsYbfsA+jzvVYB+H9VVHl8ssCVxySy5NibTwuG9Gmaag4STR2hdtET+6VMBVG8vcvzLhgzQg3g7H+ePY6ca9EZr4rxV0imkj+euZmTesrUkdPNGR8ND9a93b1mHuZZXNlOAk7LPcrDiAS6SDtFKLsxSeY0Gp+AxVABp3yvDacstiCExE15niAGbDRrtoUpixzS3lgR7iKFSflCa5VMcEiDuX1waCUPv7v1vmz/9T91LRWIKa21vRidKhFM0OApufpmd+GV0dG+LxO/3N+sOYjZRlQm13myLooAWGB8Osw9dGB3F0Wf41p83hBMgII16O8QYG4Fz7YCo6l6l1OtBI5LChrmVTz9nZ9R2dQWqnTFY7KChLRY2kphUM49VpHpb1YPZ7incvoNy/WxXwZ9yrHUhbyWA0wcOBw3e1UExX91TeI+NvNYJS30mVoJx2bBI4FYN/82nKpNr0n7YStIdznm1Q+01l8Sawto4RP7fChvc2IgYvGWIQw3x0joPbU52aIe2Qlk3Vx1iKPITEigLRgN5I0aZc9onA063iIms86SgP+TSvzxLU5+83aBK8arxq3DGb0vEgrcXOfFfDGpO6Ewwfhwu3UvfEGrWjWNSFRppA6ygf8CBO6leLWNgvWjFOnw+kIRGAvstFFGOtdzjV0I1528WdZzTTGAjFPEOoKINZ0UZRbY3UAnhpIfP54P4/Vt8YZ2zOXMxIO+YBjHcztXVan2+TMe9vonWVc2LGxs0mP1Kyh4ISaTGcQqR8RyTxkrK/uMYr0hOa/kk4CyrEqbKaiIcM3Vs/JOy6IXEzPpiVqZys1HY+fv+DZvZilE1HlaijHXnmi5CtLHA5uH8+vjr64lff+H2H8QDvPfsu5lik25DplCbJJxwOmpFkZ4Hr9+NvycLhBc4X+/7uPmapb9mqmPyDfMAIuq2W298yMTKp4+ZN14CJtLkNJPSSupC1ViyPEZou3BpBFm0Maudg0gCOY4vADiyVk396PHB2P7HQtF/XzmwgzHp/UNhXWluNWhxGfNrPYBbQXHGi+77vCeZzF4FqUcRHluUJSYp8GDXB4R+3lt+WyXYSN9+ftGxB9KSqtzthrXDy3WNmPetM6Tg7+gg0R0O7yzQ/DROq9wbeJPgOnCoorbR4mA1xFa1NR2hSE0FXxW1N8+nIqwQa8qQJX4OLP5vcwTmdVNv/vzc/6omTlLhOZbRLXhMEcmXh85bYGEOhSgkGABe5LrMuQJza3G7u/ToKNIZWpOa7IvOZ+DOBuYosoMSjI5jnRGmY9fl8DPEkcglRjGVWXU+DFKA7zLbmq8EUfGY0AbSescpJNifybaKkR9GLdFZE6ULFB+vV6ObvXYk6fXxwPzNRJ1AC+rD0QohPsw7BYnan11dAH//vPB3b5oJTmdsOKK3yqirjCGGwE+fogtcbrI+uLkdOpXrMmACkpfyyxlIgF9+EB+UBal7/incuZ6uadkSejYRMZmsiTxJiKQCY7LokuhUuzokOdcWIot1IQWsFG2i2BAbUFfnluySLJ76RZZZk8k6yipEX/7Pn1zr7uH74eToid8loglob9362t6A+/mcT/sbgPSJCV9HQIx9yQ62xrgFqksUlGqrO6Go4V7N7Nsjloyut08S0M/o3hzHnpMCvwfgAMzSbbvGP9gaIiogYq/qPZokX/df7wG4OYjQLnHQ4bw22wQVvs6NjPEiJeiIhMCvb7Um9MzMl4UJh5efNMsBYYy6VnFFEAS6u+ehPnpweKVXZKcqjuuCU037pVR07b/NxUiy2J3D/CO2C0CP0BMDMGJAAoQQBe7MBMT11il2pWSry1s97GSVJs426wP3bFJ89ajMj86OBLHanC8VUR+oCzQJDxJZCTKp9tQTeef/lu01+Ilz5wBJ/s0EEgtIn5Dc/RHMglsXq+gimff86ENLjEufW5QSGukX3s0fNg6vd23HRyQoLVo9LiLOwnjYOrRGHFUtREUSQVvYAz+lA2tCnVTCGM+n21Op2Km2ncLI+JVTnEqdDDtxOWXdFUU6vSbZE7sokNQnhXh7YxQlN3KVrg0mGrfXjx9B+e2D17fTwQ4k9Z92c4dGn7KQwRii4x3LaHayHPtNvUYCreHIkcXrQIZGY9Vk1XYDX5cC7BCsEpFHgsdqkSZcD9jZQUXgguCslobQ5aqIpijxVOO0ST26pG4vJVOQQuXEkQwxc7ow6OnpcCEQDs+Xj/jv3Jr70O25VzHDSLCkfQec9taSKLQmBDX16dz+BTanZvryPwmKCTjHxZdE80FP2n502IEjufIdpdWEwlWHRFByCaJCCDD0Phj4i3t9446eqPsM1eGloRONEiwThnfERGRmmmD9tSrZ4ngDY8UFQA4Fgsob3NswwswbCnYZ29n8Z/Bg/28vLJxVfZOkZVRi8Qj7m3slcSMkH4vDNThKWDFZRc67fmrJUuco5SQjzm26p3z3zr552DfLwMsb3eo2nb1f/jOZb67dUBuZZLDluoLYiTm9ghzgLNm0zAniyPK+GpRc12zrENK86zG3QfzB0uB3klh1HZiwrh9HDHS5O7FFvJK1DAA5dcXYbL64UxnLCP/ohmQhPGsOwMxPzC1JdZFGMi0Hxhyr+VTSyCZ5FSlXyeEq0mZ3adTH7UcNT1958IN56ZVlP48TZK+pm4xc6nZKCUOYKSw/Yo2IOnPMD9Cjb8dnFkDmknu7+0IWd8ZOD/px85dhky6LMmRWRsO+pBo1qk2UVhw9x97YWRzely3yFtviOhj7Un/gX4NiTPhGSvJanGr1rwrY4LrHJPWopuPIkmKArPFLmF7ruc8YooEqS4huhRDTrm4pQSeNfSmJItKBewsmga5mUiWalVtPmbhx/Pwff+2JAc4kxqCtIbRkyhHcoenqCuQga5Ikco6spNxTYefghLYeOMRzL/LurpWtoy/jNv0PS8gjZZpVvgYKI3GcRtR5KhEVUgFQrMOsdwv37HGMM9NONNsSYkeyUhYa61oJAv1tsUvcBVZNIsRILhONROpmmP6yzf6+/2U75jMH2bgQeEfCarVULMViNvGZ4N7B+iSVakt9kUvhXZsd5BCiAMYSS40Vf37TT6584WNry0K7fifIitMwgQX1ujSELUrPqM2DHnVUs1gQ/mVj1ut8osvSU3cKGknpV5P0BNEJa4dVuuz36NzwDOPOVozt+qBZN59f+oYD4cxijxQ77EsY2QylacIuFT549d5yQ50ZWcch3VxY5CO1B5L/JOyo/uGtOP5SiO8xetUBNZWHLrKLJ7EN3/A1Ar7vo6OJHO0ha9ByaDaUTM1Z2P6koNOhFxsmz4TTMSrHM0CbOjPgjE3mHxqJlWhT/cau6309gw76m//H89s1MWbpJa2aoNR+fbjH6QooxDE+Rive0W+Tc+de3Lu2wB75phzlGvBusSNU/bihBdRpGmelOjQicIaBqNMHbbnZNAlSGO616q6v6ETpDVyTUONj0C2MdR47EjvVkGwpQSk1BDBc0JptedFPoO9fkfxx0cCK8Obm9txbq6VWB1GyKDxTHt7J9+NI68UEpq8MoAXy/phJhMRj1zkFZ41h4Af35DjidM1UKQ2USbH1xic0gvFFJ3hYCaUhtZyIffaBzn4v19GR/Syp9BIiQDhcaCIsapkorXHZP97mYHyE2kyddQPVwv981ELrlmJIAvrn9vX43379yVOJK0qD3e8Owj41TyQwJ0DSPYOuxywOF5HlhR7xIfcvg2161CoI1yKnsaiU2P6NySzNAELSKh5sDyakf9INzHjqHUruNLx+HArJz+Shh5xjD9t0Kq90+1So1prVZBSSy00BHm0+JHtwNfUFTbh8W8ifQ/t8/a9fiDs2uqwpI+5kUWOfs9+4wgtDRK5dttdsYN+vkQAoiGx2Chp/jIGp7jtoteyCfBfOpoXlJrykyyFuLX2PAeXlPRYFNijc7fipvE+76DYUarc3b0o9yzXova0SYj3cqMw5LX004MSbLttuU1qnqQdmi+tmpV+v2afL6DYqu/OKMk7PODIEwcRA8TCM8GOGRHkXlbrzfNYmWJdoVg3HTdeUdYsf72GWyWxTQlAyhNqVmv25aTaYpGqWSxDJqCt97bn3lAjZnuv4mZBEDVTTffXWgK0DimIgqwPKrurUdPpZU85hvYkDLQResjURxdyt+eDH22Jf1PRn0iYwOXY7sRu5dDPVfJOIsaP33TXUK+NJljWpucuae/WzJiyNYK2YQbtTO7omMxGbO0iVXkgwySYjHHwI2NAJKH9rhArT/aw4AVww2gf6IEKGnKBUmetcnotZkVeEtX8WL73L814DUsXpMQjOhfPcy8aIGyeUMZi+b8ytG4Pc+z7cISswC5JMoaSsePrS/ufNfxg8aafzEqvzeKNZ3KcVA5txRgXBMd0woCNV14EEXdQm4xyiAQca2qIBEXjh9OyIdeyad/8dunK/Ppme3M34ipi64lAdRH6mY5zVAnWF4CVfJHVsdEAjyyWGg50a1yG1Rr8I2N42UfoNt94+/Q061wvW42mHUt7DqAt6X6r39kMA6SqRb6ZA0r7r4PPe9dtKwyvN6bYmH19aeTfIOPX6oV4jf1w9IU0E+RzlkU8ONhRniqUR77eJ/bSXO8WZi7xEZn33FeuX7PGXb32IrHFxCxGn2Eu6uRCrJLYsTJXWW6P97gs+vm9tyd73Pfun6/AwXMi9IKrVokSH9+foMvDFJqSXoFTH4fY6NjnXmByzL2TYMdJMtjMQxCqPApy1AkQjoUKA6qWRJ+cMqbDDHGmi/V7Ws69d5SpIY5dVFiuQT2AiLBQbSWiWMgIK96LFKHmn6sol24Nvv4HkAszS4KN93eveEA9z56Cb1CHLFKWBXMkTtHaZjo4GlKL9iOS837vJ5Mrk2LukasoJT+vgMVc5IoKYrNd0UqbnAlomNFLK1GKxfYM2udKQbFWFYP9q5OH/2EyeSsd4Ss5Rkg1UW/M0wbWMRisJiF0npjuArB74F2ouUn2sjDvbb7GsdlPsvdzRr0YrV3O1bKZ+kkvW6f/RZTX3rmK+84qsMtMlKf4RATXnT9D8Pp4RJKM0daeHHe/zVE6+NhVce/eHtfy0PPFAU+ySenSNfLoiOB13aRanulGqt7HJfmBWqT18GokjubYRwFzP+g+MRK6ptUlbjlglKqFyFlPZ3BI9vYbCfAw8Y/vBgREnZDESx78aMVCj8IhMoP2w21GRNg0THjO5YRQ9NMDGOanjugiPTcI52oF6rzp/aGuKzQZY146wCa4FVtB8eHQPG2/UYmjiSW8rumGj8uQOw3+qQNyasfFu6tYpRdpIhU0FUXUtNAU1KjUtVDo5/SDewrbuqDqQ4scqdn3b7arpCLKwdijD2uY8y1NU4VQeZ1jOkwS5DztILsp+V8hPDyDyujHXkNIue5thl7Ia/0Zn8Q5sECsxjBBMnYKBrhqj3Rv89T+r+kQfL7Ml89HotzsZH2opoCFNCXxGp3qp7yqi4NTRkuIC6E33vSorpZYDgk5BtJYnwN4Nes4LPS7bpnSR+jxNaIgLG33XBtszKQfRGBA/nn2RHTvepQHCwgC9fjlSFhmSJ22COhS0xsimIgaqXnpYAfxY2h9e9S0z3Op3yNlyOXfcNnx8ekOnBX60ll8zSHv+jfWlZLjMFiju/oeLnGqnuQmhOcFMlVMhPLryaIAc/MGtdjVj2TGWQlrAvEtVEtE1a0TmL5eymWS2mKKRnBoHxF/9QEoS9IO9UWhkJ5/McttwNh2qfn7+/XANSMadpcE11ytcnwMRxm47Wpp3icujMTfOiQAopquomlq8vLKC6xoh45/zoFGriDfUVZt5eZs0cR5IblgPjXwym2pFslTzPxTbQWLEijcGo2gEi+IAvz6IX++/aqVc7SNx4lGxp8cc+aNVTmeSFNaphMZBouLfzyUItf08Oh71aR2Hv4jK7sx7xy56dCil/xQsIXZvEPynA5q4mlizP/1eksRCzFvTRiHpiM3qJf0ZcKeoi0C+k1wg1jB3zNY36fIRiKCH+VQFR1HKEZxdlq0GT+/GPeAlQNu03/hRzgiTwKE9tsN0ErT4Ekku4z4qc4Pmr4Y/nm5evHFsAyxVzPIpdgK8TDXCjq5dCQ0kqiwV9gcJfpQWXBnrQw1OFwCFmJwGwnJdXRGo41Qvm72l5qEI6kqL94DWT2oUx79hOSdkbfVItPsUu5ePgFLIusdvQezUfqtS2tABUVUl4RFXp6e6hsNfe/De4e4nxux2WXrxBbdt94/Xbzs2HE6Jy7XwSFZP60LygNUNygAz6LT4+8MQ7X881Umxpy7ZYRBhB7vPHDNnbqZWEfn1iYv5nOdZqMUUxWRPiX+Vx+1Sy6VIl6/pS5twTm/HiDlfpNRRkHUJyLszX8hR1+iS1JrcaKAS/vH6318fb/aFAW4vFqm0yK6l2Hvj189vG4z1doI1TDErsYmLxAkX0WYR4N5uVLZFCeUy5Rps81jvMt0tIoAiqiQ7hRrQmficF7Qim6IxO4iDHndIGzQVIgJx9UFX3gpdBW9+WX9y2+FPQuhf2wjZOExMoNJaVNbVzIiDnR+N718X1tv3//72kAzf6tMHd8V+qOr3nM086bLcZvkjR050SsUdtIq2RNjn+5+eefrtAtes3BHV2OWF00WhNQ14I6a0RSpESfu/n0GcugzUJFvPrPj0JMdc6Dxz+A7PbDmqrNpBi4+/XPJ/n5/7eGM4hUpHNjGTpEaOglua8KLYGlxfj33e8LKrbt6t8LNiPWtDR3MFZJOYTLpIotLlVN1KIxF85yc13eum7eD/+IUwRXO7rZDjreHN/UAUVxJIdlZwtq6mDKudOSM31s83XDFXnZN9pTgq/0GrzSSYJrqUpyqJGFsvbz0l8KvD9A9PbwkNn+53egtCyBoBhtG42/P795cIXdSSirBKJjPe7NfTcCvB7D1knyYngHSCcxqy0Kq11h+xhZpw9r1+Put4UXCNe68gMZHqpF9hsgOXB88SkbWXC0rpICm+ZmrURlv1NWAfCDvUJ1C+fCRBLzGnOUGxgOMK1rd4evMuQhm2fCzP1mrK1BrZrCfFMo3Pn9+n89YXZYxSnWlG7eG/HHDPm4f7MSVfVlKC9iZFM9PNDnzmmU9HBoei9eezdZzpQgD7y1dYrn54FSW5HdN4xbkaWhhOR86huYiPP6qHp7EhE9ahL1zdBQZZQR4H8Y26S1UpfmWr+NE/AsGq6DPFEZdESKfSNtBC04EjfAnSj5aYpw+3A766okd1refDX6DZDZrfKXon32zJPqWtKB114tIyKqF23vofP0dkxB5nH7JNRAw4QN5rZqqU6P2XiYZw+t56FC1YKMCkKWrprXo8irEiTVkS+w+24d7CJmjCvJW1kRGSJQki8avIYeyHKC7kZNU2Xt0YsHYbxi9/kcBeF7pPf6Lgh20u9wu4pfsMd8P7XKlZkSSOhJMcV2uN7wwlV2WaP/+44/PBkRrcn/g4Yx01uaXfly1aDuByCV6308PfaVmzSG4oj5MtrW1eBu2M8GAEdCoHU/OEo3Ni4mmmKhHWnJTpIntfT0Y3kkOpYO6gWzr8zpDOzGVFh7dqOtEQfvoNOBzAcgExe5M+t3jup30Uq4FUzNQBYDUMnPQNZH3IIEpuK5DSLbYjp57uZeDUi13R3FQYUvV0l7hcnERQOMHOJlQDFG1VgILgEG5Vm1Y9yAMYMiGOKN5QQ3wGzbwtSgauTfYjA2NuNBTZWutUERog6Vy9jSA/Dm4VoJPh2IN5M+zSCMx/e8dKq6f9HsCDLvsijrcZdUxBFklNSbZYUZuZHtLcY9cnN8VPZgQS9qk0qzCx6rpFsG6/IBW0p8vrtqtnGMUnSO3rrin3Tsf7bAS2II4DaOyWEVShpuRUtwBJHJgrmubLDcJaiN2xqbJZB3O4IimDEGhIMje9afAqg/siwr312eQeTKVdhdg81D03gv2nneRwpJRGqs36K63QZHy1Jpe238cHl0c2X/6ajJ/2u/of5Ly7jui7nQem/+tEeg4RjNS0REBSxFMRot+FvbMRAAyhd/76CavzQX5NlX2koK2nnWQgD9niBYMmHP2d4uJ5emHp8q2P3XAZTz72XMLJvieZGlzurriBtf3lzgw/OHAkd8pogHYzfIuUKSgJxa481T7+4M++03y+lHnvBmNbGT9stRtgYU3FFcR2Je12xt7UFFjvIlN5SoDAq3v7fVLZDqJSuqQAQe217h6qxJkgUAVmukC54CRezGy0xt/s5FBmwI/9K/JSVxdi2T1onjSWfSrAGutsvfvrrN4DHNavFk0AjMHTn1/bY7Ikd16HQHKTI1+b6HVf1y+g+e1xBoPb53bsGJWLLmHHj+sSXchRR2Id8dp0qbr3GNrauZs7klxzZDp8wDSWv15qoZnWKBzEiSgFamAXPyT1DjHiaGvOSsQAsu2rpt434U49yvnw5ZG7H4q46gLzqo5v/QmwfjlTcfzFWeoTDdZjwtW+qizppRkisMWBemCjF70tDq4+dt5Q6EUyJzN7Kvp92YkYYxfU+CdQzJFnWevmfwMMSGNQj8wOOj7i9yzGlQJaSKk4IpHATTUuQpeTCeV7S7K65Uv8zHIWSgdRIjwVgpcMU2MVV7JTcgKwQdn97zzu9Z2FEf/6w81nhPztLhhcWpjU67dCwc6jelPdNcxUtxCS5PbHJd1Hcv5vVb9fV3jsp25MUWayAjPf5SFZpGO9TQ77KnT3DId9tWSscZbUeJtGsUWKuY6sDU0mU7yEXkt1bQtgnTKbaAyKJoiMemfDNo/7bxZw7U8LrxsELyBnj2AoAwfvwxCX471+yhg6JCWQjdfGksplgxr0AKqoY58mOuqSWPzxFRWM6HaCvmn+wekkmer4+mvTTJszXk+kYmtDWCDVTJJdJSGFFOoDRRRhRJirH1RPjEpubet9NVJxQGuejUOtWktgteRlv9iEgmUydHVyXdDHVFJ7OY/+nytc157Hw5eMUcSO7Nf/VK9vwyLMlaw+oBc1aRHgHUdJ7U780XH8OddI1hSY/dKR4JPAVJBz0J3kKEoJw7ypI6qnkNS4UiQHaqWBMMvZR5IE6sC5ds+BNhS8GgK1LegEQPJh2SRurmRf7lW6NiqRLhF4/heM/MTxs89AjWfcCsKvZLYmU3X+Q8VEbmHeuiEdK6j7wrFepmpBdi9X6yrGmk720rYKOdcdFhg6AIGirhUgU8EXHauavZdLNUWlbNtWowF+ZEel1lOP8SAuQNOZqyL3MfRWuyKae41CDMI6hQIWmYVRqRIiabKmwQv79JqUm3pG8/3yow5J/Kwt3z373VD9++NXvLtZA+6IgO/0pgQU8pBKHJasCzGdJmItzKwRvY91QoPUuitLtFFbmEsiM4RC/gENQXsstI7TxXV7zhx11Wv0R52Q4LIdEh1IzZc8BDS39SmVohYIl2FNVRApviWRjoThoaRAfYjmtcl57lJ7+8teCyq/jmlQXwj9+MOG9evzmzWBwO1n/R6+hOZWdV8qrIOKTvrpwXaJwl0dhiJ3B+Tv90ZpH+yAU1LbLqJtEmrieysjDwrMaBleeBplGZPHSVY2QDFd8Cjd7BSJ41aTMQvAxQCbm1THuIOgckRIrbgtPeFnUgQ4FPea+X13/ohCBsABW8SWtYkwTh+fX2yhoDZkv73I3fzSDqt+XUr2VFzBYmtrlWnayb2XpI17RR0gVzg46iUpniOyWMS965RyRdnMK0EtMiJmxJ2UpIMlC6S2sfmtGNeqWnIWmodHq0jXsmsAHYNFR619Vxor45FhJu/42Qr5wvPn89d7Uh9E3pntLA59rua2wesZqwQq/IC+jQTjsV8/8I0K7yS9NqnXbiV6dhSvoUxeumbJan7xagdsX3c/sojyyLLO6bJLCVBhghOxsvpVSB9JGHmPaiGtWmJy0egMA4VGWzJUEO02ESJjNq9ZQl6sZEUH0qdKFHiXlvA+cgfmz5sIlqBHcdxCcSrs+fJWjS0ou102DC4ZisC9bc+8hUBWT1+U70CarlAVqC6TjgHeUIhDSjMd9/ZjnaH9fN8vzP1/CYj7lLdUAco8ChJof9JFtw5qhKUa9nZSDi4gnjAvDel6YGw//EIJPjFsEU806GW7aDwf2qQqjLZB0MxRUHpZpzkkPZ5xGSAWcZ0tl2AHzqHUdypyBr/0sVNb2Yk2KclFbI0JHeqYD6YrF1XOrLj9YTfpKDkmbFbcfyjv+CoV2WrjAlzcoVYNZVbFumZcMO2onmZrq1cd4RqB9R7dPHdoJt1GMLvpjVZ362nIc2/iCupFGHwT1jwQaQPSPfy5cfsr2AFDpo0ziLiHrVy/FQdnm8Ls0qZwChdmqAKzPaPBWQaRA2Va7uvTQsl7VaVPlUZKucl3qqQTfwn7j7yDNU2+oPJQVxOcZlnfcZ0XEHYs0QeUD2/9jVcc0C8DQCs5hAg6wxIPIONKYQfPlO/n5xILflZ2AmLgHCD+tCi/ulQ8/JACfHsTkDo+JjPL8ayunuqKOG0BNZ3sBoP/WEFVYukR1wHvho8YSZwN446m+beW4pIGdOYnphKys1bAbRm3R4RLtjk3Xp1OMlp+VonSLrNGgJ+i6uN0HRnQN9+mG2gJmEYj6NnNw+46lOU0iEri1sHUnuAGxUrROPX/BqAGgka5O5jPrKwsNTEmZqqmWoLAbhkcz4Rj8R+L6BkzNyFnIZFha7sVRSToTLvMJlkoyRThKMGbNQ8iBNMF7LCVREYUpw3/znj6lX8XMoxj0S259ilDUvLcq3pbgE3B8zE7gTopL1qLUGns+ip5R2xlwOCrO64ao/pp5fT16rku2jebCbBAIWu6M2NxWFww+3yK3csZkcqWM6xbBPW6dfxPl9bvSHPoZTAVIGnqHMfEKE1yn3ukZtCTCWEEeyImCs9gXZKZuEXTRfevOhlvP8EBzM8qJw47O8LJMDbDkWrhVryNe8Xix5a7CiDUoXVXp+Jpv2jFlSbkWj6L/j9NPS8cOOjz/GabBMpGiKOdLAGXoGgE0wWRBg9jJFsdkBP7ai7JpbRY4+4AJG6MiRfG6ueV3D2unhk+aRb2/Ig0RI7Hhqzm5WvfWn0jItdGwTR0XtRLg646Ez1DYApxZ01QSNM/mRetlUAg7ddZe/Uto8I6wJXENzSi17R6qoSZGef4q1jblEMAdh/M0cDYufTF7SJhKe4fnWcZA24EKVGAJdNojvVQyOhrd5qkN9Yv0W8au4fElAWWPbE11sQJm2QScmYCf4qbvDG4i6gZrwT/sadZGN76pIXGeK+NLg4MEJ3BIZo6VlIz+jSqiJL9H7wHx7Rgy3APg5CSa/dm60VJKFYdFQmX6vjMCaLSi9p1t8jVrERH4Z9eT0CEMTgNx3ZEDDucmAMj14jguh9ZY7qsltSbj5h0rcfZyMdcreKk6jNIMWaBPTGLfW+FHcG9ydcvuQa3GXhyZo6VrD1kLifkilbmWXRENkN1RRq7qo2j9bH05qNrhECjmTcaKbD16Dg5/aZA5JwzTZg0VdYmyT6NNS5KEpWiOxxsGJSiCLLXp2MUmvzeJi0lZqoqQkyVxQXDHiBM6dzb3PbaBlZDJKhwOT3sWzEUF54Cs3TgfyDWbJRUdcC0Gv85+ZgnNYdYCaIDzAAzyqlNABZQBsiHRlkTXwr5wctt1ybrUJcMiUJAzDspIYHWbSjEJUaM6+WhiUXGCUZ/wZG8DYu1UelQe7dxk8352+KQe7koPuNf6j+EUmxKT6BqylQS0UFQUyrd0ie1RbiTJEUNrEV9DDNtdo7WliDHeDSkAPNvzqVyLtz2pE1jCsdALkA7VHtUZdAoIJ5AmtpaTgr6elxdBXaWAxPmS3XJk+JtsTKiD2e2+RuxV7SiF8tN+rg3ku1g2g8lFbpGXq/GvJzjXB88XUn1gWiST5mkuqwZUaXmW8EGfSH1aDDBWyfrUdJvdRfQc2UYLTyyIrxf+4SlyGhLL6k8Vxm0IacQaJN6W5VkEgWjjdyaJr75Bw88DUtNb0PSv/BMBFaZP8jVzTe2vP9Ws2PrkYWUjawwSYY4hFcflq1cfNYgnS4cCJXTL8EOwZEr/uv8O3gOje/Au/o3jq6lI4X33T8BG+mDvBJ1t8zxcs6sY6+p9UMjlDV2qSjivNIw2RBidovf9IzAJEYSm24vuWvzoQ7Tcr+hmJyONcxOg+wE29bRLcjH1sA0SlOpOADSHppL1OjWH9KsoeCe8/7df3o83bVD+ZBGPEtbV+Zc9VMB4hxD/iWrmVRTZxzKVL0H4nJSaM/Dbao2hixRduYA51ClQVQ3665JnN1eFf/2xKy0D5AlVPL0VLFaB6j4wQIKqAV+0/2ntUreqWrjQMVTyUJlCfQ8AG6F2SW+0JFzh7JLLJjzoSKBKnt9VWgJDEzSDd1o2AgQY1UpHb41lSlMyEGSbZQuQGnaz5m8EY+w1qxaOEXl+vCHbR794mb6mtEJk+c/nCWaNtaF2qtdzeTTkK7G/q7Zc0CH4DIRUGRlRSpTCoPwuE6HR6+ZJIZVF5r6WQoW6sk7ctojH7mnD7RtuvClRxRSlezwqARKTZuGFZfEyfjXMCPvNYpaEY+n6UJqkO1MOwcfv7WVFuV1R5HxOYeowGvTSrhJPIqG09Sq0WZt/sjsQxPP0AdjWeCe+YQMvek9RY0jVCecK75NWNyFyL6VmNo65JWwlRY+EWqKJz/WP9QFsTPCIhR7pIeabZmnTLYrvaqUlUJ13a6B57AXCOkcl8qFe9fmwmsQq3rL0qS0QTmEFlMZFX8eAkI3ZqdlpvlLwQrhrdXoPOC3MaDrKgCgHHqpuiQSaeMJd+WVNcchSdnJlRDR0WIa2xihOa1oMLqmukKPRuSbDGuCL82niKkVb4a+RSisjtn0kc7et/Jti4QEj86quU5eM4AhrZWNQ6fHsn8p160aRTIYL+B1CXMuVyhwL4tc71yI9puZC9rSaoq0RaZKpmgda+C4NxaUyAmJRoPTqBOCQpNU5YMJCoNCGjHOs54lfEJOmtxLEEl0FKO0OkNK9z9syAjeF6uDARZ4wj3+uWm5wDWUVlLadrKO1iyzO/ZUx1n7J84qxbp3mkmiJ5hxgHbcOzb7b5KxvZmUovsD8RaoQcBKOmWNf24aV+SWip4VSh/tcNXmBiWN/Ig8jNZqLLOs09K6+Bx6/EL0erH2lWmC98K8+yAgiYIEvjW6PgYh87ousx64CNUlZ4KsXxaTFJgwFQ4v7OZbXvC0ImGFPrHv86KbChGZVcTbUvFbRvQ1ojRFW7t+U6k44H+kNuKtMVvJCo/sqClY+lVTbMvKHiodmtoF8Sdrr3csuDgVb5oTkB4QUh6dTUeIGh+RETsbMMJMnnwzD7ypyBZ/M1H4eM/agxneOfUsfJQg8qzFw3dk5VaBXCQsmhTdkAwp5Dokh/zY8A9Wkme6YyTTaKtnrY0cmgMdYZDVTzPh9+d+RjAmCntY+mPgEhrndWyQaFbRFXy7100osFIViemHjvCOGqDdHVxyzK//EO+Ua0gFSHPhLmmTpYzYNED9VLg20O0zORxGEuW8/+gfDwUTKrdkaRlU9NWc8FHk3kGQqXqqC5z3wB4L5FQA3fIN3SH0y7he3g3BY9OtAsHsTfHjj959Pp8uDvJfqpXWCbeZMET/B0kz0SPSGuEZXC3EOQ9PJYds1iTVpjQ4wZxPbnklXwJuJyp1Z6gddkUhrcokXaLcsghsgDugd1/K7RI1WWJfoLQCgTqiZ12yosZZ96/HLzeXBlSDnWz/bY7BFFuy/a4GDmbtvfktz/3Wb6OjJcuPChnEJimDK7VUnQch1AY1Ls0NvphDtcOxH130WBQR1hiaSxppbogcOk+fwClK6mQHd2LVTOzsITHIwYYLL5sICAVFrSOu5LW0LfcMgKTcCsQtTX29++W/ZvGHjpDRT99Tfvy9+UiB6PB1rkkfBxsz3UujN5SulCcsSFqpodYdo2nynySeoReoEi05i1r11HjW6ITeHl1EhZuwEqFzSoi4GtBSoAxUKpQAn+yZlagNE001QhJXgoOPTdjI3ojGsJGlnk7BquoeICOlHFrUyx/V8IVz36TIQwqFsX0PAZ0aqG/estGfP1b2aWjCLopzD7B4yBVWRDZ/aBldIeyNWAkMm9RGsiO8bYvcZNNVZDZ7WcO+VgatGnzOlqfWZNrQJKoCJ9TemeZv2sGp4PU0k63YUlv9Os5ilnYRA2uKxYfv9DnQqkfcox/8ffmzXEnXCFkh9zeWtVEhGql7i15dTfRm/5UUp9ZjzMVX9xJwqMnWGbMwh3VOWH1OoSwc3qmG/dCTmWlq9Ha2Ai4yt9iQknV8Mgn/TRLLK9lpqkcrRpodySbnBGEfk8owWQr32qRv/X30vukNicJu/grty28CGEP5p5GQax8FpCB5Xkruf3RzLXHpSm+BqQ0RZ6iHkGucjfDKilmch2M8FWtHKZWJ0VXk7khkW/TZP6MA/2bhMBHKO2Gu6bbJtJQ0lDoMY1WdlWcIJQwfQNFjc2okaLZtWDGsjxWo+srp7f78kcK3a4T6rAnKj+cP+xjlabOGUHVmiCbX35N8u/15+L4QQnv9Lwq1x5HVcCNi1pVzvq0fpav6KMMKP0fr+XGnGHXkhj3O0DRahvBZE8pPXwNkURW9chzO4fADUp4ElyXnVO5CV2fbslGGrLWsnIlTQ1ArfgbjD1DuB/G376P6SmqPdvw+Qa9YFQgaRFVlkzBJ2YmwP1wOH7j4+eylN/ZuSMi2TM0w6WlsfI+RV0YrChgag0DLTuEtv/FkZ0b8XzssC1otLRZ2Jrk6KVGmDcrQVgdXPyRIp3rki5k2zh1BKep6f8kKk23TvDEsgRLy9Hv0vqvu/vr+/Xr+GIu4I7Wc8dksA3b4XRw+5f24+2pklDGYZc2pOM2y2mHaUcphGqHkqAGlJjEj/A89Kevz2sl07/GryWlIS8KK2OWYwDRZvwKXBDaUZjaKGZIJ4U2AEgokA8T5aWsdEjrMoXWoJCukHn1tvu+2sQn4+e2Xk6E64tp5SzfmpHlqiR8G+VKvr3teSsCtBsMFGhRr1NpANGjDXZRkrhO01kMJBNaZbmoO/dlLNZS4VwZaxsMuFO4fig65J0JwtUtscItBDgoTw5m1MqlAtKM6qjlUeSiwTzQ4pBGflgB+0ZiZffvglhwH//zQePjz1L0necgkNNlQ2rUBIef44xeQHtx2yAK4y8JFUKAVJiXpJ6cGoiwlGUFc+9RjVxetD1o5DHUvibIEJ5t5czH5CgnHavOISWK7DbTXHNHI03EZIiZ10tlIh5LE52NZDlK6t06IHGo2VKyZfTneje6332RB7bOvIytMYt/t508lSXG0QEiJivsflm2ihbu2g/bv+JimFqkxjMx1aL2qfvWFNI7AVhYkABvPDjJtGoJCr2FoWxjOlgUlHa02tVNQEsRMlIy2j1LJQoSnJRt1K/+h42qlAuuRWweHroHVO6CXODYKfv0Xs5y1j++fh1dqtxZ+MukFA+aH3x6KXSVUkpIhavzz8+3Xa81VOmsXsOI1Y3yb9tXLXXEWjTWWKukCOmJVYJoVtdzVJfjhYbuIPXl2KRe4SNSNESFlHRAXs9/SFaQce2XPjxYUlLe6xCAYQsNJmDzrUIiYGmlmo89rWFgJOO9mtR4udmnYwmZ3FuwJkxVy74jQlBBgRf1JwP78vPpJGbZ5WTplkv6rn5KCPtS075gTJoNDT0Ss5aSNiKka+F18NMy+h7FWbmZq9rn++pf1qmlRiYfz8esvZ6qVJoA0Kz7l2rIkRCvNGAKkRIuEWGUWyXH2ZCnjDtcvuYwP1Msvt0WpemL25wG5ZiZJIQ5vNuMaqEja8Ic7kv7VH+OhOH9mS7MzTA7OqkqQQmnK5+opfP2QwFTdVlSz7YBOJQpsYogzgqYd0mUW9m5XNeZgH8hHZ9xkyATRvrE/sukEAvBvYh1N6wOtjJ5xzr+z7glTLLW41dyaGsgbXK5hBrgX/L/sf5lKOC/ZRrOx7Ufa6N1dGRLhxr3KtWk/vCnevxnhsjgjSJmTBdXK5wWK497zFXxWswop/FYoeNH/YTQ7h/B3FUo9d4pmlTWLzS46CyEWH53UhehoabhaJDGRdCkKmwdQkOj9km5NnRXRh3HquXPVKUa2F4qb3zPWHB/VqtBXh/x9UnL3P9vzZqHM5Vqqd0OQgvpDW69fHwJ9u9tYKHRk8Wn7R5lJMtrw8XzBEDAywaWR2wq2TH0dw2rFBZlRXi9Ix0K73OLecGl+B0llPiTxgaviVA+F7ozGxlUR+y8lVgEJdOll1+U7CJ9+lU0AOvEc1wN/Vp0Z9PJXx/y+MZHv+mts9maiwhBzlVlhgNNaH1Jyx719sR73uldubb3SHLNOXL0wz1d+dyEhKYtEIurr52lMRLz4iZrOmVVNN6yZGPulZ5MqUgqkJMzMwVfCJVghCvUrInQtoqwbLrpRWSpQanniBIgxT3ZNLARMdL/LZnwbyIhxPwZ9X4r1B6nvfwkClk3kP/cld/vsytsOwjDQ5GKjOFm/Pv58+xVPv6P8fb++Cnal6plT05R1K/AEok9DJ1sz61i9hY+KZlkTVzknamJnedGLkSs6Z6dc+m3z2gmTo5rI8wnsLoFWWKNcr1QIiiS1Ny5qj0AhVGowDfykpiGSLHlg/PCs/cP3t89viFjo2VE4Sq0BpEZ/CjgApi/nIqPq/Y+/6edj4n4bqXSVpPV89aSUWhGyLvdSK+qlrmlWuT5EqkN0FXX0Of+0jsZl7Y07pLkWSK7dNyajaSAnJCbf2RKcx+XGTfpN4LQ5XhyqQdjUak4dl9BrEjkaIGGXcO8fVwDyiuU//W698Gvz3g6ffh7JClWqZlZJnA2WLYwPDPxx+2PB3sGfP9plKiMQ5zVEqcTDvJds0RmXwuiv+oWDucOGYmKyM0qNvJ57zj5MIPk5liGcb4WIFkRLGckHwar0/PmxgwcGK2Re1Wl2vZvGAWidocnPycxbjxc6vGAx/7muu0T6YBdx3MHefr5dY7lrwLs+ICtpR1rVTZqbsxTNWkfTLkigvtsfFnAWd2aBX4pzW5JjlZckig4tPRMnRCjcblPj15edMgRYzWhphxPa3uaz9J8lYfGgX7FNl9oi+QUhrYVf1pIfEr26zswOCIw6yckisyqS8aSlTUlXsN+pMRFQP36TD1//9Pt7/jDB+TzHac59lm9e9GXY160Fh94jZiItVUJmUn+Gt5+kULey/9z9WUq/ZuqH8de0x5xjWLLIdLk1/aWbrg6rp5Zo/G3zpBAZYE2VKT2JBpbYdGGTZihs9HsIlmByimwao3vigNSAHRP4DRGjMO0yY9yA1rJCbp/jKs/v/rMpENbPOcDjP7/2FgwkdOwnbi6ZwlgbmoLyT2cp0bWx0eYWorQqmPTpWzpI4mrpZs+r5/xyRCiqqhDJVyOzY4ZljUG8ip+2jnapibdlN2Xz1RHEiHoZoikiZ2CdH1xTLYjBeANVr9Sn6TI7+XrRWAaAjO1oBOPWJ3dUaGbYen1jLlaCyS6g1wczOO7jy12DHz54F4YuJ6SCXMyZ1n5nUAuOw0Sk04rNWd2EhKLLCaXrwzB+bdDR759peduIJjMd1ZGLzOphMAHmfTyvxOA4m352K5eF6LKiSarUsZqQMYKSoEyJBJezTkmjh6XnrC2pbdPCxOvO7pwM6zQR7v76DRstAE6K/J59ai6C3XYx+D5aeP76iTqucriwF3/6C1Dj0EECXC3knvLkJayOlBKglSbwQBgo2xz+n2Li99FOz52ZztF958gLQvTVqZGMTBGNhLjDJoCe+kCkodTLqtGoyzYtsKIFSoIIYPYtm+Vj9GCNqLMOhGE2EuOVNGZO12l/gwwP+wFk//Etsp72ZEojrtkKKSpZXtGJjGMManzVOet7iuiVT06GKkLS1KZUDjIw+ZO0nGYiWXt96MbQ+hMdqD6h62mrukaKu+AWmq7tp0XdWNHLJJVki56mSo00V9QZqscOhZcHzUbOtajZJYugMXvVzw1MHagyKZSPBdgAff/4O05+PuDPQXpVYkr9lRI3aBsl8e6PwmGX764lgwCzJGMp9p6JXQOTBMKfpypIaocXXRS4z0p1k63MzHqKbGfn4BhCR/S2b7jcp6OtFjEDmRcJnvpTQLSloDSQT3VGqE3HiCFXt40smEm2adaSGiLrHHlVSrntqU2/YeNnMjpHuHI1gPZDV+hgI5hI93a0zxw1LDmW9lXXseK6WXIxggDJk8YMAEzdZQcR/iZ11siKqGIoYalttMR6fXOC5Vi0uUAA/vPRfqGNr4bDrDXnVCoVnTq4IyAgMOusciOU3j6QeSUBJysW6ROqFtdsFlF/MyyInt3mLJ+SqJ9a7gbgFKPTaGpv0RqRWk8793z5O/3+wtvPz/0vtwT9u5RJr7P2Dq194oAAdmL+SJlf9RJnAt+mwR0FG2DviXWzO9yFLQRzQRYpNL9SscF5Ckcb1J/+Lay/PbdHYDoLCYqhZWYNYQHqjgQcJBXPvZ56S0PymLdDTV9gmq8dnboN4Hyn/yfoqlOKVEhkk9S1jNStAEBzyQhioXaEkh7xh1u+f7nD/3vrX8lsnOO6Q0ng4h+dppSP5zdBbMcN4aZjaywyEO7vbbFDsWfw5hNrdVfTml6oPtcyGuVBsP12v9//H66zFCXjN8ABAAAAAElFTkSuQmCC;" vertex="1" parent="1">
          <mxGeometry x="870" y="80" width="184.82" height="160" as="geometry" />
        </mxCell>
        <mxCell id="kNm-ANeQV7d39zhUVkQm-54" value="" style="endArrow=classic;html=1;rounded=0;exitX=0.5;exitY=1;exitDx=0;exitDy=0;entryX=0;entryY=0.5;entryDx=0;entryDy=0;" edge="1" parent="1" source="kNm-ANeQV7d39zhUVkQm-51" target="kNm-ANeQV7d39zhUVkQm-53">
          <mxGeometry width="50" height="50" relative="1" as="geometry">
            <mxPoint x="800" y="180" as="sourcePoint" />
            <mxPoint x="850" y="130" as="targetPoint" />
          </mxGeometry>
        </mxCell>
        <mxCell id="kNm-ANeQV7d39zhUVkQm-60" value="" style="edgeStyle=orthogonalEdgeStyle;rounded=0;orthogonalLoop=1;jettySize=auto;html=1;" edge="1" parent="1" source="kNm-ANeQV7d39zhUVkQm-55" target="kNm-ANeQV7d39zhUVkQm-49">
          <mxGeometry relative="1" as="geometry" />
        </mxCell>
        <mxCell id="kNm-ANeQV7d39zhUVkQm-55" value="" style="rounded=0;whiteSpace=wrap;html=1;fillColor=#f5f5f5;fontColor=#333333;strokeColor=#666666;" vertex="1" parent="1">
          <mxGeometry x="660" y="79.75" width="50" height="160" as="geometry" />
        </mxCell>
        <mxCell id="kNm-ANeQV7d39zhUVkQm-57" value="&lt;b&gt;...&lt;/b&gt;" style="text;html=1;align=center;verticalAlign=middle;whiteSpace=wrap;rounded=0;" vertex="1" parent="1">
          <mxGeometry x="610" y="138" width="60" height="30" as="geometry" />
        </mxCell>
        <mxCell id="kNm-ANeQV7d39zhUVkQm-58" value="" style="shape=curlyBracket;whiteSpace=wrap;html=1;rounded=1;flipH=1;labelPosition=right;verticalLabelPosition=middle;align=left;verticalAlign=middle;rotation=-90;" vertex="1" parent="1">
          <mxGeometry x="627.5" y="-12" width="32.5" height="132.5" as="geometry" />
        </mxCell>
        <mxCell id="kNm-ANeQV7d39zhUVkQm-59" value="&lt;b&gt;&lt;font style=&quot;font-size: 13px;&quot; face=&quot;Times New Roman&quot;&gt;K&lt;/font&gt;&lt;/b&gt;" style="text;html=1;align=center;verticalAlign=middle;whiteSpace=wrap;rounded=0;" vertex="1" parent="1">
          <mxGeometry x="612.5" y="10" width="60" height="30" as="geometry" />
        </mxCell>
        <mxCell id="kNm-ANeQV7d39zhUVkQm-63" value="&lt;b&gt;&lt;font style=&quot;font-size: 13px;&quot; face=&quot;Times New Roman&quot;&gt; Conv&lt;/font&gt;&lt;/b&gt;" style="text;html=1;align=center;verticalAlign=middle;whiteSpace=wrap;rounded=0;rotation=-90;" vertex="1" parent="1">
          <mxGeometry x="128.62" y="120.5" width="111.25" height="73.48" as="geometry" />
        </mxCell>
        <mxCell id="kNm-ANeQV7d39zhUVkQm-66" value="&lt;b&gt;&lt;font style=&quot;font-size: 13px;&quot; face=&quot;Times New Roman&quot;&gt;Backbone Block&lt;/font&gt;&lt;/b&gt;" style="text;html=1;align=center;verticalAlign=middle;whiteSpace=wrap;rounded=0;rotation=-90;" vertex="1" parent="1">
          <mxGeometry x="182.5" y="148" width="145" height="20" as="geometry" />
        </mxCell>
        <mxCell id="kNm-ANeQV7d39zhUVkQm-67" value="&lt;b&gt;&lt;font style=&quot;font-size: 13px;&quot; face=&quot;Times New Roman&quot;&gt;Backbone Block&lt;/font&gt;&lt;/b&gt;" style="text;html=1;align=center;verticalAlign=middle;whiteSpace=wrap;rounded=0;rotation=-90;" vertex="1" parent="1">
          <mxGeometry x="258" y="147.24" width="145" height="20" as="geometry" />
        </mxCell>
        <mxCell id="kNm-ANeQV7d39zhUVkQm-68" value="&lt;b&gt;&lt;font style=&quot;font-size: 13px;&quot; face=&quot;Times New Roman&quot;&gt;LayerNorm&lt;/font&gt;&lt;/b&gt;" style="text;html=1;align=center;verticalAlign=middle;whiteSpace=wrap;rounded=0;rotation=-90;" vertex="1" parent="1">
          <mxGeometry x="397.5" y="148" width="60" height="30" as="geometry" />
        </mxCell>
        <mxCell id="kNm-ANeQV7d39zhUVkQm-70" value="&lt;b&gt;&lt;font style=&quot;font-size: 13px;&quot; face=&quot;Times New Roman&quot;&gt;Backbone Block&lt;/font&gt;&lt;/b&gt;" style="text;html=1;align=center;verticalAlign=middle;whiteSpace=wrap;rounded=0;rotation=-90;" vertex="1" parent="1">
          <mxGeometry x="533.75" y="145" width="145" height="20" as="geometry" />
        </mxCell>
        <mxCell id="kNm-ANeQV7d39zhUVkQm-71" value="&lt;b&gt;&lt;font style=&quot;font-size: 13px;&quot; face=&quot;Times New Roman&quot;&gt;Backbone Block&lt;/font&gt;&lt;/b&gt;" style="text;html=1;align=center;verticalAlign=middle;whiteSpace=wrap;rounded=0;rotation=-90;" vertex="1" parent="1">
          <mxGeometry x="612.5" y="148" width="145" height="20" as="geometry" />
        </mxCell>
        <mxCell id="kNm-ANeQV7d39zhUVkQm-72" value="&lt;b&gt;&lt;font style=&quot;font-size: 13px;&quot; face=&quot;Times New Roman&quot;&gt;LIIF&lt;/font&gt;&lt;/b&gt;" style="text;html=1;align=center;verticalAlign=middle;whiteSpace=wrap;rounded=0;rotation=-89;" vertex="1" parent="1">
          <mxGeometry x="790" y="144.75" width="60" height="30" as="geometry" />
        </mxCell>
        <mxCell id="kNm-ANeQV7d39zhUVkQm-73" value="&lt;b&gt;&lt;font style=&quot;font-size: 13px;&quot; face=&quot;Times New Roman&quot;&gt;SAVC&lt;/font&gt;&lt;/b&gt;" style="text;html=1;align=center;verticalAlign=middle;whiteSpace=wrap;rounded=0;rotation=-90;" vertex="1" parent="1">
          <mxGeometry x="426" y="148" width="98" height="30" as="geometry" />
        </mxCell>
        <mxCell id="kNm-ANeQV7d39zhUVkQm-74" value="&lt;b&gt;&lt;font style=&quot;font-size: 13px;&quot; face=&quot;Times New Roman&quot;&gt;Scale Fusion Module&lt;/font&gt;&lt;/b&gt;" style="text;html=1;align=center;verticalAlign=middle;whiteSpace=wrap;rounded=0;" vertex="1" parent="1">
          <mxGeometry x="375" y="220" width="150" height="20" as="geometry" />
        </mxCell>
        <mxCell id="kNm-ANeQV7d39zhUVkQm-77" value="" style="endArrow=classic;html=1;rounded=0;" edge="1" parent="1">
          <mxGeometry width="50" height="50" relative="1" as="geometry">
            <mxPoint x="550" y="160" as="sourcePoint" />
            <mxPoint x="580" y="160" as="targetPoint" />
          </mxGeometry>
        </mxCell>
        <mxCell id="kNm-ANeQV7d39zhUVkQm-78" value="" style="endArrow=classic;html=1;rounded=0;entryX=0.167;entryY=0.667;entryDx=0;entryDy=0;entryPerimeter=0;" edge="1" parent="1" target="kNm-ANeQV7d39zhUVkQm-29">
          <mxGeometry width="50" height="50" relative="1" as="geometry">
            <mxPoint x="500" y="160" as="sourcePoint" />
            <mxPoint x="510" y="190" as="targetPoint" />
          </mxGeometry>
        </mxCell>
        <mxCell id="kNm-ANeQV7d39zhUVkQm-79" value="&lt;b&gt;&lt;font style=&quot;font-size: 13px;&quot; face=&quot;Times New Roman&quot;&gt;Scale Fusion Module&lt;/font&gt;&lt;/b&gt;" style="text;html=1;align=center;verticalAlign=middle;whiteSpace=wrap;rounded=0;rotation=-90;" vertex="1" parent="1">
          <mxGeometry x="675" y="148" width="150" height="20" as="geometry" />
        </mxCell>
      </root>
    </mxGraphModel>
  </diagram>
</mxfile>
